{"glyphs":{"0":{"ha":833,"x_min":76,"x_max":782,"o":"m 408 -11 q 161 99 246 -11 q 76 419 76 208 q 120 727 76 599 q 248 923 164 856 q 449 990 332 990 q 697 880 611 990 q 782 560 782 769 q 738 252 782 381 q 610 56 693 124 q 408 -11 526 -11 m 413 106 q 581 226 524 106 q 639 581 639 347 q 592 803 639 732 q 447 874 546 874 q 278 753 336 874 q 219 399 219 632 q 267 177 219 249 q 413 106 314 106 z "},"1":{"ha":833,"x_min":136,"x_max":735,"o":"m 671 118 q 719 103 703 118 q 735 61 735 88 q 717 16 735 32 q 664 0 699 0 l 199 0 q 152 15 168 0 q 136 57 136 31 q 206 118 136 118 l 367 118 l 422 807 l 289 729 q 256 719 274 719 q 213 739 231 719 q 196 783 196 758 q 225 833 196 815 l 451 968 q 514 988 486 988 q 560 969 543 988 q 575 921 576 951 l 511 118 l 671 118 z "},"2":{"ha":833,"x_min":75,"x_max":747,"o":"m 683 118 q 744 65 744 118 q 674 0 744 0 l 135 0 q 91 15 107 0 q 75 54 75 31 q 107 121 75 90 l 461 474 q 572 612 538 551 q 606 733 606 672 q 564 836 606 799 q 449 874 522 874 q 210 789 325 874 q 168 774 186 774 q 132 789 146 774 q 118 826 118 804 q 127 860 118 843 q 156 892 136 878 q 294 965 214 939 q 460 990 374 990 q 669 922 592 990 q 747 735 747 853 q 704 571 747 649 q 560 393 661 493 l 279 118 l 683 118 z "},"3":{"ha":833,"x_min":53,"x_max":747,"o":"m 569 500 q 690 422 646 478 q 733 285 733 367 q 692 131 733 197 q 572 27 650 64 q 386 -10 493 -10 q 213 17 293 -10 q 81 83 132 43 q 53 136 53 103 q 69 180 53 161 q 108 199 85 199 q 144 188 128 199 q 262 127 203 147 q 389 107 321 107 q 541 153 488 107 q 594 283 594 199 q 396 439 594 439 l 317 439 q 281 455 294 439 q 267 497 267 471 q 283 538 267 522 q 326 554 300 554 l 392 554 q 549 602 492 554 q 606 735 606 650 q 563 837 606 800 q 443 874 519 874 q 210 789 325 874 q 168 774 186 774 q 132 789 146 774 q 118 826 118 804 q 127 860 118 843 q 156 892 136 878 q 294 965 214 939 q 460 990 374 990 q 668 924 589 990 q 747 750 747 858 q 700 597 747 663 q 569 500 653 532 z "},"4":{"ha":833,"x_min":46,"x_max":797,"o":"m 733 317 q 797 260 797 317 q 778 218 797 233 q 726 203 760 203 l 635 203 l 624 63 q 601 11 622 29 q 550 -7 581 -7 q 500 12 518 -7 q 483 65 482 31 l 494 203 l 110 203 q 63 219 81 203 q 46 261 46 236 q 68 318 46 290 l 560 954 q 626 988 588 988 q 675 969 656 988 q 692 917 694 950 l 644 317 l 733 317 m 503 317 l 538 746 l 207 317 l 503 317 z "},"5":{"ha":833,"x_min":85,"x_max":789,"o":"m 313 864 l 288 561 q 475 619 369 619 q 629 583 563 619 q 733 483 696 547 q 769 335 769 418 q 725 153 769 231 q 600 33 681 75 q 413 -10 519 -10 q 247 18 326 -10 q 111 94 167 46 q 85 146 85 115 q 101 188 85 171 q 143 206 118 206 q 188 190 164 206 q 415 107 303 107 q 572 165 514 107 q 631 322 631 224 q 579 455 631 406 q 442 504 528 504 q 334 485 381 504 q 239 419 288 465 q 192 403 217 403 q 153 419 168 403 q 139 461 138 435 l 175 910 q 197 961 176 943 q 249 979 217 979 l 725 979 q 789 925 789 979 q 770 881 789 897 q 718 864 751 864 l 313 864 z "},"6":{"ha":832,"x_min":79,"x_max":814,"o":"m 499 874 q 310 776 381 874 q 224 493 239 678 l 222 475 q 324 581 258 542 q 469 619 389 619 q 624 582 557 619 q 729 477 692 544 q 767 322 767 410 q 724 151 767 226 q 608 32 682 75 q 440 -11 533 -11 q 173 99 267 -11 q 79 414 79 210 q 130 719 79 589 q 276 920 181 850 q 500 990 371 990 q 663 964 586 990 q 785 892 739 938 q 814 835 814 867 q 799 794 814 811 q 761 776 785 776 q 719 790 742 776 q 615 851 672 829 q 499 874 558 874 m 440 504 q 297 446 353 504 q 240 296 240 388 q 294 158 240 211 q 436 106 349 106 q 575 164 522 106 q 628 317 628 222 q 577 453 628 403 q 440 504 526 504 z "},"7":{"ha":833,"x_min":122,"x_max":804,"o":"m 746 979 q 789 964 774 979 q 804 924 804 949 q 788 867 804 896 l 296 29 q 229 -14 271 -14 q 185 3 203 -14 q 167 46 167 19 q 179 88 167 65 l 632 861 l 189 861 q 139 876 156 861 q 122 918 122 892 q 141 963 122 947 q 193 979 160 979 l 746 979 z "},"8":{"ha":833,"x_min":51,"x_max":783,"o":"m 608 500 q 769 269 769 446 q 725 123 769 186 q 598 25 681 60 q 404 -10 515 -10 q 144 60 236 -10 q 51 256 51 129 q 106 413 51 346 q 253 506 160 481 q 148 587 185 532 q 111 717 111 642 q 153 862 111 800 q 274 957 196 924 q 456 990 351 990 q 698 925 613 990 q 783 743 783 860 q 735 593 783 658 q 608 500 688 528 m 456 875 q 303 832 356 875 q 250 707 250 789 q 299 594 250 635 q 442 554 349 554 q 592 599 540 554 q 644 728 644 644 q 597 838 644 800 q 456 875 550 875 m 403 106 q 573 150 514 106 q 632 276 632 194 q 581 399 632 360 q 418 438 531 438 q 247 394 306 438 q 189 263 189 350 q 242 146 189 186 q 403 106 296 106 z "},"9":{"ha":833,"x_min":44,"x_max":779,"o":"m 418 990 q 685 880 592 990 q 779 565 779 769 q 728 260 779 390 q 581 59 676 129 q 357 -11 486 -11 q 197 15 274 -11 q 74 88 119 42 q 44 144 44 113 q 59 185 44 168 q 97 203 74 203 q 138 189 118 203 q 242 128 186 150 q 358 106 299 106 q 549 203 478 106 q 633 486 619 301 l 635 504 q 533 399 599 438 q 388 360 468 360 q 233 397 300 360 q 128 502 165 435 q 90 657 90 569 q 133 828 90 753 q 249 947 175 904 q 418 990 324 990 m 418 475 q 561 533 506 475 q 617 683 617 592 q 563 822 617 769 q 421 874 510 874 q 282 815 335 874 q 229 663 229 757 q 281 526 229 578 q 418 475 332 475 z "},"\u0000":{"ha":0,"x_min":0,"x_max":0,"o":""},"\r":{"ha":367,"x_min":0,"x_max":0,"o":""}," ":{"ha":367,"x_min":0,"x_max":0,"o":""},"A":{"ha":1019,"x_min":24,"x_max":957,"o":"m 953 82 q 957 57 957 69 q 935 10 957 29 q 888 -8 914 -8 q 852 3 868 -8 q 828 36 836 14 l 756 242 l 256 242 l 150 33 q 89 -6 131 -6 q 43 12 63 -6 q 24 56 24 29 q 32 89 24 71 l 478 939 q 513 975 490 963 q 558 988 535 988 q 606 974 585 988 q 636 935 626 960 l 953 82 m 714 356 l 550 819 l 314 356 l 714 356 z "},"Á":{"ha":1019,"x_min":24,"x_max":957,"o":"m 953 82 q 957 57 957 69 q 935 10 957 29 q 888 -8 914 -8 q 852 3 868 -8 q 828 36 836 14 l 756 242 l 256 242 l 150 33 q 89 -6 131 -6 q 43 12 63 -6 q 24 56 24 29 q 32 89 24 71 l 478 939 q 513 975 490 963 q 558 988 535 988 q 606 974 585 988 q 636 935 626 960 l 953 82 m 714 356 l 550 819 l 314 356 l 714 356 m 621 1072 q 585 1056 603 1056 q 560 1065 569 1056 q 550 1089 550 1075 q 560 1115 550 1101 l 660 1256 q 710 1285 679 1285 q 747 1269 731 1285 q 763 1233 763 1254 q 742 1190 763 1210 l 621 1072 z "},"Ă":{"ha":1019,"x_min":24,"x_max":957,"o":"m 953 82 q 957 57 957 69 q 935 10 957 29 q 888 -8 914 -8 q 852 3 868 -8 q 828 36 836 14 l 756 242 l 256 242 l 150 33 q 89 -6 131 -6 q 43 12 63 -6 q 24 56 24 29 q 32 89 24 71 l 478 939 q 513 975 490 963 q 558 988 535 988 q 606 974 585 988 q 636 935 626 960 l 953 82 m 714 356 l 550 819 l 314 356 l 714 356 m 572 1078 q 445 1108 499 1078 q 364 1193 392 1138 q 356 1221 356 1208 q 368 1249 356 1238 q 399 1260 381 1260 q 442 1238 424 1260 q 576 1171 486 1171 q 718 1238 665 1171 q 765 1260 739 1260 q 793 1250 782 1260 q 804 1225 804 1240 q 793 1193 804 1211 q 701 1108 758 1138 q 572 1078 644 1078 z "},"Ắ":{"ha":1019,"x_min":24,"x_max":957,"o":"m 953 82 q 957 57 957 69 q 935 10 957 29 q 888 -8 914 -8 q 852 3 868 -8 q 828 36 836 14 l 756 242 l 256 242 l 150 33 q 89 -6 131 -6 q 43 12 63 -6 q 24 56 24 29 q 32 89 24 71 l 478 939 q 513 975 490 963 q 558 988 535 988 q 606 974 585 988 q 636 935 626 960 l 953 82 m 714 356 l 550 819 l 314 356 l 714 356 m 621 1210 q 593 1199 608 1199 q 571 1208 579 1199 q 563 1229 563 1217 q 569 1251 563 1242 l 669 1388 q 718 1415 692 1415 q 754 1399 739 1415 q 769 1364 769 1383 q 751 1328 769 1344 l 621 1210 m 571 1056 q 442 1085 497 1056 q 361 1171 388 1115 q 354 1196 354 1185 q 365 1224 354 1214 q 392 1235 375 1235 q 428 1214 411 1235 q 576 1140 476 1140 q 728 1214 668 1140 q 767 1235 744 1235 q 792 1225 782 1235 q 801 1200 801 1215 q 792 1171 801 1186 q 699 1085 757 1115 q 571 1056 642 1056 z "},"Ặ":{"ha":1019,"x_min":24,"x_max":957,"o":"m 953 82 q 957 57 957 69 q 935 10 957 29 q 888 -8 914 -8 q 852 3 868 -8 q 828 36 836 14 l 756 242 l 256 242 l 150 33 q 89 -6 131 -6 q 43 12 63 -6 q 24 56 24 29 q 32 89 24 71 l 478 939 q 513 975 490 963 q 558 988 535 988 q 606 974 585 988 q 636 935 626 960 l 953 82 m 714 356 l 550 819 l 314 356 l 714 356 m 468 -267 q 410 -245 432 -267 q 388 -189 388 -224 q 410 -133 388 -154 q 468 -112 432 -112 q 526 -134 503 -112 q 549 -189 549 -156 q 526 -245 549 -224 q 468 -267 504 -267 m 572 1078 q 445 1108 499 1078 q 364 1193 392 1138 q 356 1221 356 1208 q 368 1249 356 1238 q 399 1260 381 1260 q 442 1238 424 1260 q 576 1171 486 1171 q 718 1238 665 1171 q 765 1260 739 1260 q 793 1250 782 1260 q 804 1225 804 1240 q 793 1193 804 1211 q 701 1108 758 1138 q 572 1078 644 1078 z "},"Ằ":{"ha":1019,"x_min":24,"x_max":957,"o":"m 953 82 q 957 57 957 69 q 935 10 957 29 q 888 -8 914 -8 q 852 3 868 -8 q 828 36 836 14 l 756 242 l 256 242 l 150 33 q 89 -6 131 -6 q 43 12 63 -6 q 24 56 24 29 q 32 89 24 71 l 478 939 q 513 975 490 963 q 558 988 535 988 q 606 974 585 988 q 636 935 626 960 l 953 82 m 714 356 l 550 819 l 314 356 l 714 356 m 425 1332 q 408 1368 408 1351 q 424 1401 408 1386 q 458 1415 439 1415 q 506 1386 488 1415 l 589 1253 q 596 1232 596 1242 q 586 1209 596 1218 q 561 1200 576 1200 q 532 1214 546 1200 l 425 1332 m 571 1056 q 442 1085 497 1056 q 361 1171 388 1115 q 354 1196 354 1185 q 365 1224 354 1214 q 392 1235 375 1235 q 428 1214 411 1235 q 576 1140 476 1140 q 728 1214 668 1140 q 767 1235 744 1235 q 792 1225 782 1235 q 801 1200 801 1215 q 792 1171 801 1186 q 699 1085 757 1115 q 571 1056 642 1056 z "},"Ẳ":{"ha":1019,"x_min":24,"x_max":957,"o":"m 953 82 q 957 57 957 69 q 935 10 957 29 q 888 -8 914 -8 q 852 3 868 -8 q 828 36 836 14 l 756 242 l 256 242 l 150 33 q 89 -6 131 -6 q 43 12 63 -6 q 24 56 24 29 q 32 89 24 71 l 478 939 q 513 975 490 963 q 558 988 535 988 q 606 974 585 988 q 636 935 626 960 l 953 82 m 714 356 l 550 819 l 314 356 l 714 356 m 619 1224 q 606 1206 617 1213 q 581 1200 594 1200 q 553 1208 564 1200 q 542 1232 542 1217 q 558 1271 542 1258 q 604 1296 575 1283 q 617 1302 607 1297 q 633 1311 628 1307 q 638 1321 638 1315 q 589 1340 638 1340 q 514 1332 567 1340 q 485 1340 496 1331 q 475 1363 475 1349 q 500 1394 475 1385 q 604 1411 547 1411 q 702 1389 667 1411 q 738 1332 738 1367 q 721 1289 738 1303 q 669 1260 704 1275 q 635 1243 646 1250 q 619 1224 624 1236 m 569 1056 q 441 1085 496 1056 q 360 1171 386 1115 q 353 1196 353 1185 q 363 1224 353 1214 q 390 1235 374 1235 q 426 1214 410 1235 q 575 1140 475 1140 q 728 1214 667 1140 q 767 1235 744 1235 q 790 1225 781 1235 q 800 1200 800 1215 q 790 1171 800 1186 q 698 1085 756 1115 q 569 1056 640 1056 z "},"Ẵ":{"ha":1019,"x_min":24,"x_max":957,"o":"m 953 82 q 957 57 957 69 q 935 10 957 29 q 888 -8 914 -8 q 852 3 868 -8 q 828 36 836 14 l 756 242 l 256 242 l 150 33 q 89 -6 131 -6 q 43 12 63 -6 q 24 56 24 29 q 32 89 24 71 l 478 939 q 513 975 490 963 q 558 988 535 988 q 606 974 585 988 q 636 935 626 960 l 953 82 m 714 356 l 550 819 l 314 356 l 714 356 m 683 1269 q 635 1277 660 1269 q 572 1300 610 1285 q 538 1314 565 1303 q 489 1325 510 1325 q 456 1317 468 1325 q 429 1293 443 1308 q 410 1276 417 1281 q 393 1271 403 1271 q 370 1281 378 1271 q 363 1306 363 1290 q 380 1351 363 1326 q 428 1393 397 1376 q 494 1410 458 1410 q 608 1379 536 1410 q 653 1363 631 1369 q 690 1356 675 1356 q 722 1363 710 1356 q 750 1386 735 1371 q 785 1408 767 1408 q 808 1399 800 1408 q 817 1374 817 1389 q 799 1328 817 1353 q 750 1287 781 1304 q 683 1269 719 1269 m 571 1056 q 442 1085 497 1056 q 361 1171 388 1115 q 354 1196 354 1185 q 365 1224 354 1213 q 392 1235 376 1235 q 428 1214 413 1235 q 576 1140 474 1140 q 729 1214 668 1140 q 768 1235 746 1235 q 792 1225 782 1235 q 801 1200 801 1215 q 792 1171 801 1186 q 699 1085 757 1115 q 571 1056 642 1056 z "},"Â":{"ha":1019,"x_min":24,"x_max":957,"o":"m 953 82 q 957 57 957 69 q 935 10 957 29 q 888 -8 914 -8 q 852 3 868 -8 q 828 36 836 14 l 756 242 l 256 242 l 150 33 q 89 -6 131 -6 q 43 12 63 -6 q 24 56 24 29 q 32 89 24 71 l 478 939 q 513 975 490 963 q 558 988 535 988 q 606 974 585 988 q 636 935 626 960 l 953 82 m 714 356 l 550 819 l 314 356 l 714 356 m 483 1079 q 438 1056 464 1056 q 406 1067 419 1056 q 393 1096 393 1079 q 407 1129 393 1114 l 524 1257 q 586 1283 549 1283 q 643 1257 622 1283 l 735 1131 q 746 1100 746 1115 q 732 1069 746 1082 q 699 1056 718 1056 q 653 1085 671 1056 l 582 1199 l 483 1079 z "},"Ấ":{"ha":1019,"x_min":24,"x_max":957,"o":"m 953 82 q 957 57 957 69 q 935 10 957 29 q 888 -8 914 -8 q 852 3 868 -8 q 828 36 836 14 l 756 242 l 256 242 l 150 33 q 89 -6 131 -6 q 43 12 63 -6 q 24 56 24 29 q 32 89 24 71 l 478 939 q 513 975 490 963 q 558 988 535 988 q 606 974 585 988 q 636 935 626 960 l 953 82 m 714 356 l 550 819 l 314 356 l 714 356 m 776 1211 q 749 1200 765 1200 q 726 1209 735 1200 q 717 1231 717 1218 q 725 1254 717 1242 l 822 1388 q 869 1414 842 1414 q 906 1399 890 1414 q 921 1365 921 1385 q 899 1322 921 1340 l 776 1211 m 479 1072 q 443 1054 463 1054 q 412 1067 425 1054 q 399 1099 399 1081 q 414 1132 399 1117 l 525 1247 q 586 1275 553 1275 q 642 1247 618 1275 l 733 1129 q 746 1099 746 1115 q 732 1067 746 1081 q 699 1054 718 1054 q 657 1078 675 1054 l 581 1189 l 479 1072 z "},"Ậ":{"ha":1019,"x_min":24,"x_max":957,"o":"m 953 82 q 957 57 957 69 q 935 10 957 29 q 888 -8 914 -8 q 852 3 868 -8 q 828 36 836 14 l 756 242 l 256 242 l 150 33 q 89 -6 131 -6 q 43 12 63 -6 q 24 56 24 29 q 32 89 24 71 l 478 939 q 513 975 490 963 q 558 988 535 988 q 606 974 585 988 q 636 935 626 960 l 953 82 m 714 356 l 550 819 l 314 356 l 714 356 m 468 -267 q 410 -245 432 -267 q 388 -189 388 -224 q 410 -133 388 -154 q 468 -112 432 -112 q 526 -134 503 -112 q 549 -189 549 -156 q 526 -245 549 -224 q 468 -267 504 -267 m 483 1079 q 438 1056 464 1056 q 406 1067 419 1056 q 393 1096 393 1079 q 407 1129 393 1114 l 524 1257 q 586 1283 549 1283 q 643 1257 622 1283 l 735 1131 q 746 1100 746 1115 q 732 1069 746 1082 q 699 1056 718 1056 q 653 1085 671 1056 l 582 1199 l 483 1079 z "},"Ầ":{"ha":1019,"x_min":24,"x_max":957,"o":"m 953 82 q 957 57 957 69 q 935 10 957 29 q 888 -8 914 -8 q 852 3 868 -8 q 828 36 836 14 l 756 242 l 256 242 l 150 33 q 89 -6 131 -6 q 43 12 63 -6 q 24 56 24 29 q 32 89 24 71 l 478 939 q 513 975 490 963 q 558 988 535 988 q 606 974 585 988 q 636 935 626 960 l 953 82 m 714 356 l 550 819 l 314 356 l 714 356 m 799 1225 q 787 1212 794 1217 q 771 1207 779 1207 q 749 1216 757 1207 q 743 1239 740 1225 l 731 1363 q 744 1396 732 1385 q 772 1407 756 1407 q 804 1394 790 1407 q 818 1363 818 1382 q 815 1347 818 1358 l 799 1225 m 479 1072 q 443 1054 463 1054 q 412 1067 425 1054 q 399 1099 399 1081 q 414 1132 399 1117 l 525 1247 q 586 1275 553 1275 q 642 1247 618 1275 l 733 1129 q 746 1099 746 1115 q 732 1067 746 1081 q 699 1054 718 1054 q 657 1078 675 1054 l 581 1189 l 479 1072 z "},"Ẩ":{"ha":1019,"x_min":24,"x_max":957,"o":"m 953 82 q 957 57 957 69 q 935 10 957 29 q 888 -8 914 -8 q 852 3 868 -8 q 828 36 836 14 l 756 242 l 256 242 l 150 33 q 89 -6 131 -6 q 43 12 63 -6 q 24 56 24 29 q 32 89 24 71 l 478 939 q 513 975 490 963 q 558 988 535 988 q 606 974 585 988 q 636 935 626 960 l 953 82 m 714 356 l 550 819 l 314 356 l 714 356 m 783 1225 q 769 1208 781 1214 q 743 1201 757 1201 q 715 1210 726 1201 q 704 1233 704 1218 q 721 1271 704 1257 q 767 1296 738 1285 q 793 1310 785 1304 q 801 1322 801 1315 q 751 1342 801 1342 q 678 1333 731 1342 q 649 1339 660 1331 q 638 1361 638 1347 q 664 1394 638 1385 q 767 1411 704 1411 q 866 1390 831 1411 q 901 1333 901 1368 q 883 1289 901 1304 q 831 1260 865 1274 q 797 1243 808 1250 q 783 1225 786 1236 m 479 1072 q 443 1054 463 1054 q 412 1067 425 1054 q 399 1099 399 1081 q 414 1132 399 1117 l 525 1247 q 586 1275 553 1275 q 642 1247 618 1275 l 733 1129 q 746 1099 746 1115 q 732 1067 746 1081 q 699 1054 718 1054 q 657 1078 675 1054 l 581 1189 l 479 1072 z "},"Ẫ":{"ha":1019,"x_min":24,"x_max":957,"o":"m 953 82 q 957 57 957 69 q 935 10 957 29 q 888 -8 914 -8 q 852 3 868 -8 q 828 36 836 14 l 756 242 l 256 242 l 150 33 q 89 -6 131 -6 q 43 12 63 -6 q 24 56 24 29 q 32 89 24 71 l 478 939 q 513 975 490 963 q 558 988 535 988 q 606 974 585 988 q 636 935 626 960 l 953 82 m 714 356 l 550 819 l 314 356 l 714 356 m 394 1288 q 364 1322 364 1288 q 381 1367 364 1343 q 429 1407 399 1390 q 496 1424 460 1424 q 547 1416 521 1424 q 610 1394 574 1408 q 654 1378 632 1385 q 692 1371 676 1371 q 724 1378 711 1371 q 751 1401 736 1386 q 786 1422 769 1422 q 810 1413 801 1422 q 818 1388 818 1403 q 800 1343 818 1367 q 751 1303 782 1319 q 685 1286 721 1286 q 574 1315 646 1286 q 539 1328 567 1318 q 490 1338 511 1338 q 457 1330 469 1338 q 431 1308 444 1322 q 412 1292 419 1297 q 394 1288 404 1288 m 479 1072 q 443 1054 463 1054 q 412 1067 425 1054 q 399 1099 399 1081 q 414 1132 399 1117 l 525 1247 q 586 1275 553 1275 q 642 1247 618 1275 l 733 1129 q 746 1099 746 1115 q 732 1067 746 1081 q 699 1054 718 1054 q 657 1078 675 1054 l 581 1189 l 479 1072 z "},"Ȁ":{"ha":1019,"x_min":24,"x_max":957,"o":"m 953 82 q 957 57 957 69 q 935 10 957 29 q 888 -8 914 -8 q 852 3 868 -8 q 828 36 836 14 l 756 242 l 256 242 l 150 33 q 89 -6 131 -6 q 43 12 63 -6 q 24 56 24 29 q 32 89 24 71 l 478 939 q 513 975 490 963 q 558 988 535 988 q 606 974 585 988 q 636 935 626 960 l 953 82 m 714 356 l 550 819 l 314 356 l 714 356 m 360 1208 q 351 1236 351 1224 q 366 1269 351 1256 q 400 1283 381 1283 q 426 1274 414 1283 q 444 1246 438 1265 l 499 1103 q 501 1089 501 1092 q 492 1066 501 1075 q 469 1057 482 1057 q 440 1075 453 1057 l 360 1208 m 533 1208 q 525 1236 525 1224 q 540 1269 525 1256 q 574 1283 554 1283 q 619 1246 606 1283 l 674 1103 q 676 1089 676 1094 q 667 1065 676 1075 q 644 1056 657 1056 q 614 1075 625 1056 l 533 1208 z "},"Ä":{"ha":1019,"x_min":24,"x_max":957,"o":"m 953 82 q 957 57 957 69 q 935 10 957 29 q 888 -8 914 -8 q 852 3 868 -8 q 828 36 836 14 l 756 242 l 256 242 l 150 33 q 89 -6 131 -6 q 43 12 63 -6 q 24 56 24 29 q 32 89 24 71 l 478 939 q 513 975 490 963 q 558 988 535 988 q 606 974 585 988 q 636 935 626 960 l 953 82 m 714 356 l 550 819 l 314 356 l 714 356 m 454 1094 q 397 1115 419 1094 q 375 1169 375 1136 q 397 1225 375 1204 q 454 1246 419 1246 q 510 1224 488 1246 q 533 1169 533 1203 q 511 1115 533 1136 q 454 1094 489 1094 m 699 1094 q 643 1115 665 1094 q 621 1169 621 1136 q 643 1224 621 1203 q 699 1246 665 1246 q 756 1225 733 1246 q 778 1169 778 1204 q 756 1115 778 1136 q 699 1094 733 1094 z "},"Ạ":{"ha":1019,"x_min":24,"x_max":957,"o":"m 953 82 q 957 57 957 69 q 935 10 957 29 q 888 -8 914 -8 q 852 3 868 -8 q 828 36 836 14 l 756 242 l 256 242 l 150 33 q 89 -6 131 -6 q 43 12 63 -6 q 24 56 24 29 q 32 89 24 71 l 478 939 q 513 975 490 963 q 558 988 535 988 q 606 974 585 988 q 636 935 626 960 l 953 82 m 714 356 l 550 819 l 314 356 l 714 356 m 468 -267 q 410 -245 432 -267 q 388 -189 388 -224 q 410 -133 388 -154 q 468 -112 432 -112 q 526 -134 503 -112 q 549 -189 549 -156 q 526 -245 549 -224 q 468 -267 504 -267 z "},"À":{"ha":1019,"x_min":24,"x_max":957,"o":"m 953 82 q 957 57 957 69 q 935 10 957 29 q 888 -8 914 -8 q 852 3 868 -8 q 828 36 836 14 l 756 242 l 256 242 l 150 33 q 89 -6 131 -6 q 43 12 63 -6 q 24 56 24 29 q 32 89 24 71 l 478 939 q 513 975 490 963 q 558 988 535 988 q 606 974 585 988 q 636 935 626 960 l 953 82 m 714 356 l 550 819 l 314 356 l 714 356 m 411 1199 q 396 1236 396 1215 q 413 1272 396 1257 q 450 1286 429 1286 q 499 1254 481 1286 l 582 1110 q 588 1089 588 1100 q 576 1065 588 1075 q 550 1056 565 1056 q 515 1072 528 1056 l 411 1199 z "},"Ả":{"ha":1019,"x_min":24,"x_max":957,"o":"m 953 82 q 957 57 957 69 q 935 10 957 29 q 888 -8 914 -8 q 852 3 868 -8 q 828 36 836 14 l 756 242 l 256 242 l 150 33 q 89 -6 131 -6 q 43 12 63 -6 q 24 56 24 29 q 32 89 24 71 l 478 939 q 513 975 490 963 q 558 988 535 988 q 606 974 585 988 q 636 935 626 960 l 953 82 m 714 356 l 550 819 l 314 356 l 714 356 m 613 1082 q 597 1063 608 1069 q 571 1056 585 1056 q 542 1065 554 1056 q 531 1089 531 1074 q 547 1128 531 1114 q 590 1154 563 1142 q 619 1171 610 1164 q 628 1188 628 1178 q 579 1210 628 1210 q 506 1199 547 1210 q 476 1204 488 1194 q 465 1228 465 1214 q 473 1249 465 1239 q 493 1264 481 1258 q 594 1281 533 1281 q 693 1258 657 1281 q 729 1199 729 1235 q 713 1153 729 1168 q 661 1122 696 1139 q 626 1102 638 1110 q 613 1082 615 1094 z "},"Ȃ":{"ha":1019,"x_min":24,"x_max":957,"o":"m 953 82 q 957 57 957 69 q 935 10 957 29 q 888 -8 914 -8 q 852 3 868 -8 q 828 36 836 14 l 756 242 l 256 242 l 150 33 q 89 -6 131 -6 q 43 12 63 -6 q 24 56 24 29 q 32 89 24 71 l 478 939 q 513 975 490 963 q 558 988 535 988 q 606 974 585 988 q 636 935 626 960 l 953 82 m 714 356 l 550 819 l 314 356 l 714 356 m 578 1261 q 706 1231 651 1261 q 788 1146 760 1201 q 794 1119 794 1133 q 782 1090 794 1101 q 751 1079 769 1079 q 708 1101 726 1079 q 575 1168 664 1168 q 433 1101 489 1168 q 386 1079 413 1079 q 358 1089 369 1079 q 347 1114 347 1099 q 358 1146 347 1128 q 450 1231 393 1201 q 578 1261 507 1261 z "},"Ā":{"ha":1019,"x_min":24,"x_max":957,"o":"m 953 82 q 957 57 957 69 q 935 10 957 29 q 888 -8 914 -8 q 852 3 868 -8 q 828 36 836 14 l 756 242 l 256 242 l 150 33 q 89 -6 131 -6 q 43 12 63 -6 q 24 56 24 29 q 32 89 24 71 l 478 939 q 513 975 490 963 q 558 988 535 988 q 606 974 585 988 q 636 935 626 960 l 953 82 m 714 356 l 550 819 l 314 356 l 714 356 m 404 1121 q 367 1133 381 1121 q 353 1168 353 1146 q 369 1205 353 1192 q 411 1218 385 1218 l 749 1218 q 786 1205 772 1218 q 800 1169 800 1192 q 784 1133 800 1146 q 742 1121 768 1121 l 404 1121 z "},"Ą":{"ha":1019,"x_min":22,"x_max":1001,"o":"m 958 -171 q 975 -167 967 -167 q 994 -176 988 -167 q 1001 -199 1001 -186 q 995 -223 1001 -211 q 976 -242 989 -235 q 871 -269 926 -269 q 755 -231 799 -269 q 711 -129 711 -192 q 741 -29 711 -72 q 826 38 771 14 l 754 242 l 256 242 l 150 33 q 89 -6 131 -6 q 42 12 63 -6 q 22 54 22 29 q 32 89 22 71 l 478 939 q 512 975 490 963 q 558 988 533 988 q 606 974 585 988 q 636 935 626 960 l 949 86 q 954 57 954 74 q 942 20 954 36 q 910 -1 929 4 q 842 -37 869 -8 q 814 -107 814 -65 q 835 -165 814 -144 q 893 -186 856 -186 q 958 -171 921 -186 m 714 356 l 549 819 l 314 356 l 714 356 z "},"Å":{"ha":1019,"x_min":22,"x_max":957,"o":"m 953 82 q 957 57 957 69 q 935 10 957 29 q 888 -8 914 -8 q 852 3 868 -8 q 828 36 836 14 l 756 242 l 256 242 l 150 33 q 124 3 140 14 q 89 -7 107 -7 q 42 10 63 -7 q 22 54 22 28 q 32 89 22 71 l 488 957 q 440 1008 457 976 q 422 1075 422 1039 q 464 1176 422 1135 q 567 1217 506 1217 q 668 1176 626 1217 q 710 1075 710 1135 q 688 1001 710 1035 q 632 950 667 967 l 953 82 m 567 1143 q 520 1123 539 1143 q 501 1075 501 1103 q 520 1027 501 1047 q 567 1007 539 1007 q 613 1026 594 1007 q 631 1075 631 1046 q 613 1124 631 1104 q 567 1143 594 1143 m 714 356 l 550 819 l 314 356 l 714 356 z "},"Ǻ":{"ha":1019,"x_min":22,"x_max":957,"o":"m 953 82 q 957 57 957 69 q 935 10 957 29 q 888 -8 914 -8 q 852 3 868 -8 q 828 36 836 14 l 756 242 l 256 242 l 150 33 q 124 3 140 14 q 89 -7 107 -7 q 42 10 63 -7 q 22 54 22 28 q 32 89 22 71 l 488 957 q 440 1008 457 976 q 422 1075 422 1039 q 464 1176 422 1135 q 567 1217 506 1217 q 649 1192 610 1217 l 797 1299 q 844 1315 819 1315 q 885 1298 868 1315 q 901 1258 901 1281 q 888 1222 901 1239 q 849 1196 875 1204 l 697 1135 q 710 1075 710 1108 q 688 1001 710 1035 q 632 950 667 967 l 953 82 m 567 1143 q 520 1123 539 1143 q 501 1075 501 1103 q 520 1027 501 1047 q 567 1007 539 1007 q 613 1026 594 1007 q 631 1075 631 1046 q 613 1124 631 1104 q 567 1143 594 1143 m 714 356 l 550 819 l 314 356 l 714 356 z "},"Ã":{"ha":1019,"x_min":24,"x_max":957,"o":"m 953 82 q 957 57 957 69 q 935 10 957 29 q 888 -8 914 -8 q 852 3 868 -8 q 828 36 836 14 l 756 242 l 256 242 l 150 33 q 89 -6 131 -6 q 43 12 63 -6 q 24 56 24 29 q 32 89 24 71 l 478 939 q 513 975 490 963 q 558 988 535 988 q 606 974 585 988 q 636 935 626 960 l 953 82 m 714 356 l 550 819 l 314 356 l 714 356 m 669 1089 q 622 1097 646 1089 q 563 1124 599 1106 q 518 1143 540 1135 q 479 1151 496 1151 q 443 1142 457 1151 q 414 1117 429 1133 q 396 1098 403 1103 q 379 1093 389 1093 q 357 1104 365 1093 q 349 1132 349 1115 q 365 1186 349 1158 q 413 1233 382 1214 q 483 1251 444 1251 q 531 1243 507 1251 q 590 1217 554 1235 q 635 1197 613 1206 q 674 1189 657 1189 q 711 1198 697 1189 q 738 1224 725 1207 q 756 1242 749 1238 q 772 1247 763 1247 q 796 1237 788 1247 q 804 1210 804 1226 q 788 1155 804 1183 q 740 1108 771 1126 q 669 1089 708 1089 z "},"Æ":{"ha":1381,"x_min":10,"x_max":1376,"o":"m 779 863 l 821 556 l 1251 556 q 1299 540 1282 556 q 1315 500 1315 525 q 1298 455 1315 471 q 1246 439 1281 439 l 838 439 l 882 117 l 1244 117 q 1292 101 1275 117 q 1308 60 1308 86 q 1290 15 1308 31 q 1238 0 1272 0 l 826 0 q 781 13 799 0 q 760 49 763 26 l 733 242 l 281 242 l 140 32 q 108 1 126 11 q 71 -10 90 -10 q 28 7 46 -10 q 10 49 10 24 q 28 99 10 72 l 608 938 q 644 968 622 957 q 693 979 667 979 l 1313 979 q 1360 964 1343 979 q 1376 924 1376 949 q 1358 878 1376 894 q 1307 863 1340 863 l 779 863 m 718 356 l 657 803 l 357 356 l 718 356 z "},"Ǽ":{"ha":1381,"x_min":10,"x_max":1376,"o":"m 779 863 l 821 556 l 1251 556 q 1299 540 1282 556 q 1315 500 1315 525 q 1298 455 1315 471 q 1246 439 1281 439 l 838 439 l 882 117 l 1244 117 q 1292 101 1275 117 q 1308 60 1308 86 q 1290 15 1308 31 q 1238 0 1272 0 l 826 0 q 781 13 799 0 q 760 49 763 26 l 733 242 l 281 242 l 140 32 q 108 1 126 11 q 71 -10 90 -10 q 28 7 46 -10 q 10 49 10 24 q 28 99 10 72 l 608 938 q 644 968 622 957 q 693 979 667 979 l 1313 979 q 1360 964 1343 979 q 1376 924 1376 949 q 1358 878 1376 894 q 1307 863 1340 863 l 779 863 m 718 356 l 657 803 l 357 356 l 718 356 m 806 1072 q 769 1056 788 1056 q 744 1065 754 1056 q 735 1089 735 1075 q 744 1115 735 1101 l 844 1256 q 894 1285 864 1285 q 931 1269 915 1285 q 947 1233 947 1254 q 926 1190 947 1210 l 806 1072 z "},"B":{"ha":942,"x_min":90,"x_max":878,"o":"m 700 500 q 822 422 781 479 q 864 282 864 365 q 774 74 864 147 q 522 0 683 0 l 161 0 q 109 20 128 0 q 93 74 90 40 l 160 910 q 181 961 161 943 q 233 979 201 979 l 560 979 q 797 915 715 979 q 878 738 878 851 q 833 592 878 653 q 700 500 788 531 m 297 864 l 272 556 l 526 556 q 736 722 736 556 q 543 864 736 864 l 297 864 m 514 115 q 728 283 728 115 q 531 440 728 440 l 264 440 l 238 115 l 514 115 z "},"C":{"ha":940,"x_min":92,"x_max":929,"o":"m 522 -11 q 294 44 392 -11 q 144 205 197 100 q 92 451 92 310 q 151 736 92 614 q 319 924 210 858 q 575 990 429 990 q 760 963 676 990 q 899 886 844 935 q 929 829 929 864 q 913 788 929 806 q 875 769 897 769 q 836 783 856 769 q 578 871 731 871 q 328 759 417 871 q 239 450 239 647 q 316 197 239 285 q 536 108 393 108 q 669 131 604 108 q 788 196 733 154 q 826 210 807 210 q 862 194 849 210 q 875 154 875 178 q 847 99 875 121 q 706 18 789 47 q 522 -11 622 -11 z "},"Ć":{"ha":940,"x_min":92,"x_max":929,"o":"m 522 -11 q 294 44 392 -11 q 144 205 197 100 q 92 451 92 310 q 151 736 92 614 q 319 924 210 858 q 575 990 429 990 q 760 963 676 990 q 899 886 844 935 q 929 829 929 864 q 913 788 929 806 q 875 769 897 769 q 836 783 856 769 q 578 871 731 871 q 328 759 417 871 q 239 450 239 647 q 316 197 239 285 q 536 108 393 108 q 669 131 604 108 q 788 196 733 154 q 826 210 807 210 q 862 194 849 210 q 875 154 875 178 q 847 99 875 121 q 706 18 789 47 q 522 -11 622 -11 m 651 1072 q 615 1056 633 1056 q 590 1065 600 1056 q 581 1089 581 1075 q 590 1115 581 1101 l 690 1256 q 740 1285 710 1285 q 777 1269 761 1285 q 793 1233 793 1254 q 772 1190 793 1210 l 651 1072 z "},"Č":{"ha":940,"x_min":92,"x_max":929,"o":"m 522 -11 q 294 44 392 -11 q 144 205 197 100 q 92 451 92 310 q 151 736 92 614 q 319 924 210 858 q 575 990 429 990 q 760 963 676 990 q 899 886 844 935 q 929 829 929 864 q 913 788 929 806 q 875 769 897 769 q 836 783 856 769 q 578 871 731 871 q 328 759 417 871 q 239 450 239 647 q 316 197 239 285 q 536 108 393 108 q 669 131 604 108 q 788 196 733 154 q 826 210 807 210 q 862 194 849 210 q 875 154 875 178 q 847 99 875 121 q 706 18 789 47 q 522 -11 622 -11 m 697 1258 q 743 1282 717 1282 q 776 1270 763 1282 q 789 1242 789 1258 q 774 1208 789 1224 l 658 1081 q 596 1054 633 1054 q 539 1081 557 1054 l 446 1206 q 435 1236 435 1221 q 449 1267 435 1254 q 483 1281 464 1281 q 529 1253 513 1281 l 600 1139 l 697 1258 z "},"Ç":{"ha":940,"x_min":92,"x_max":929,"o":"m 899 886 q 929 829 929 864 q 913 788 929 806 q 875 769 897 769 q 836 783 856 769 q 578 871 731 871 q 328 759 417 871 q 239 450 239 647 q 316 197 239 285 q 536 108 393 108 q 669 131 604 108 q 788 196 733 154 q 826 210 807 210 q 862 194 849 210 q 875 154 875 178 q 847 99 875 121 q 715 21 793 50 q 542 -11 636 -8 l 532 -58 q 556 -57 539 -57 q 633 -82 604 -57 q 661 -150 661 -107 q 615 -237 661 -204 q 492 -269 568 -269 q 390 -254 436 -269 q 372 -241 378 -250 q 365 -221 365 -232 q 378 -192 365 -204 q 410 -186 392 -181 q 489 -197 453 -197 q 565 -153 565 -197 q 553 -127 565 -136 q 519 -118 542 -118 q 485 -124 503 -118 q 460 -129 467 -129 q 440 -121 447 -129 q 435 -101 432 -112 l 454 -7 q 189 135 286 14 q 92 451 92 257 q 151 736 92 614 q 319 924 210 858 q 575 990 429 990 q 760 963 676 990 q 899 886 844 935 z "},"Ḉ":{"ha":940,"x_min":92,"x_max":929,"o":"m 651 1072 q 615 1056 633 1056 q 590 1065 600 1056 q 581 1089 581 1075 q 590 1115 581 1101 l 690 1256 q 740 1285 710 1285 q 777 1269 761 1285 q 793 1233 793 1254 q 772 1190 793 1210 l 651 1072 m 899 886 q 929 829 929 864 q 913 788 929 806 q 875 769 897 769 q 836 783 856 769 q 578 871 731 871 q 328 759 417 871 q 239 450 239 647 q 316 197 239 285 q 536 108 393 108 q 669 131 604 108 q 788 196 733 154 q 826 210 807 210 q 862 194 849 210 q 875 154 875 178 q 847 99 875 121 q 715 21 793 50 q 542 -11 636 -8 l 532 -58 q 556 -57 539 -57 q 633 -82 604 -57 q 661 -150 661 -107 q 615 -237 661 -204 q 492 -269 568 -269 q 390 -254 436 -269 q 372 -241 378 -250 q 365 -221 365 -232 q 378 -192 365 -204 q 410 -186 392 -181 q 489 -197 453 -197 q 565 -153 565 -197 q 553 -127 565 -136 q 519 -118 542 -118 q 485 -124 503 -118 q 460 -129 467 -129 q 440 -121 447 -129 q 435 -101 432 -112 l 454 -7 q 189 135 286 14 q 92 451 92 257 q 151 736 92 614 q 319 924 210 858 q 575 990 429 990 q 760 963 676 990 q 899 886 844 935 z "},"Ĉ":{"ha":940,"x_min":92,"x_max":929,"o":"m 522 -11 q 294 44 392 -11 q 144 205 197 100 q 92 451 92 310 q 151 736 92 614 q 319 924 210 858 q 575 990 429 990 q 760 963 676 990 q 899 886 844 935 q 929 829 929 864 q 913 788 929 806 q 875 769 897 769 q 836 783 856 769 q 578 871 731 871 q 328 759 417 871 q 239 450 239 647 q 316 197 239 285 q 536 108 393 108 q 669 131 604 108 q 788 196 733 154 q 826 210 807 210 q 862 194 849 210 q 875 154 875 178 q 847 99 875 121 q 706 18 789 47 q 522 -11 622 -11 m 514 1079 q 468 1056 494 1056 q 437 1067 450 1056 q 424 1096 424 1079 q 438 1129 424 1114 l 554 1257 q 617 1283 579 1283 q 674 1257 653 1283 l 765 1131 q 776 1100 776 1115 q 763 1069 776 1082 q 729 1056 749 1056 q 683 1085 701 1056 l 613 1199 l 514 1079 z "},"Ċ":{"ha":940,"x_min":92,"x_max":929,"o":"m 522 -11 q 294 44 392 -11 q 144 205 197 100 q 92 451 92 310 q 151 736 92 614 q 319 924 210 858 q 575 990 429 990 q 760 963 676 990 q 899 886 844 935 q 929 829 929 864 q 913 788 929 806 q 875 769 897 769 q 836 783 856 769 q 578 871 731 871 q 328 759 417 871 q 239 450 239 647 q 316 197 239 285 q 536 108 393 108 q 669 131 604 108 q 788 196 733 154 q 826 210 807 210 q 862 194 849 210 q 875 154 875 178 q 847 99 875 121 q 706 18 789 47 q 522 -11 622 -11 m 607 1089 q 543 1111 567 1089 q 519 1169 519 1133 q 543 1228 519 1207 q 607 1250 567 1250 q 670 1228 646 1250 q 694 1169 694 1207 q 671 1111 694 1133 q 607 1089 647 1089 z "},"D":{"ha":1036,"x_min":90,"x_max":968,"o":"m 161 0 q 109 20 128 0 q 93 74 90 40 l 160 910 q 181 961 161 943 q 233 979 201 979 l 503 979 q 846 860 724 979 q 968 528 968 740 q 908 244 968 363 q 734 63 849 126 q 458 0 619 0 l 161 0 m 449 119 q 728 224 635 119 q 822 529 822 328 q 739 776 822 693 q 489 860 656 860 l 299 860 l 240 119 l 449 119 z "},"Ǆ":{"ha":1842,"x_min":93,"x_max":1835,"o":"m 161 0 q 109 20 128 0 q 93 74 90 40 l 160 910 q 181 961 161 943 q 233 979 201 979 l 503 979 q 846 860 724 979 q 968 528 968 740 q 908 244 968 363 q 734 63 849 126 q 458 0 619 0 l 161 0 m 449 119 q 728 224 635 119 q 822 529 822 328 q 739 776 822 693 q 489 860 656 860 l 299 860 l 240 119 l 449 119 m 1776 979 q 1819 963 1804 979 q 1835 922 1835 947 q 1814 868 1835 896 l 1231 117 l 1721 117 q 1768 102 1751 117 q 1785 61 1785 88 q 1714 0 1785 0 l 1104 0 q 1062 16 1078 0 q 1046 57 1046 32 q 1067 111 1046 85 l 1650 863 l 1176 863 q 1130 877 1146 863 q 1114 917 1114 892 q 1183 979 1114 979 l 1776 979 m 1586 1258 q 1632 1282 1606 1282 q 1665 1270 1651 1282 q 1678 1242 1678 1258 q 1663 1208 1678 1224 l 1547 1081 q 1485 1054 1522 1054 q 1428 1081 1446 1054 l 1335 1206 q 1324 1236 1324 1221 q 1338 1267 1324 1254 q 1372 1281 1353 1281 q 1418 1253 1401 1281 l 1489 1139 l 1586 1258 z "},"Ð":{"ha":1061,"x_min":13,"x_max":993,"o":"m 528 979 q 871 860 749 979 q 993 528 993 740 q 933 244 993 363 q 759 63 874 126 q 483 0 644 0 l 185 0 q 133 20 151 0 q 118 74 115 40 l 147 440 l 76 440 q 29 455 46 440 q 13 494 13 469 q 31 538 13 522 q 82 553 50 553 l 156 553 l 183 910 q 206 961 186 943 q 258 979 226 979 l 528 979 m 474 119 q 753 224 660 119 q 847 529 847 328 q 763 776 847 692 q 514 860 679 860 l 324 860 l 300 553 l 508 553 q 556 538 540 553 q 572 497 572 524 q 555 455 572 469 q 504 440 538 440 l 290 440 l 265 119 l 474 119 z "},"Ď":{"ha":1036,"x_min":93,"x_max":968,"o":"m 161 0 q 109 20 128 0 q 93 74 90 40 l 160 910 q 181 961 161 943 q 233 979 201 979 l 503 979 q 846 860 724 979 q 968 528 968 740 q 908 244 968 363 q 734 63 849 126 q 458 0 619 0 l 161 0 m 449 119 q 728 224 635 119 q 822 529 822 328 q 739 776 822 693 q 489 860 656 860 l 299 860 l 240 119 l 449 119 m 674 1258 q 719 1282 693 1282 q 752 1270 739 1282 q 765 1242 765 1258 q 750 1208 765 1224 l 635 1081 q 572 1054 610 1054 q 515 1081 533 1054 l 422 1206 q 411 1236 411 1221 q 426 1267 411 1254 q 460 1281 440 1281 q 506 1253 489 1281 l 576 1139 l 674 1258 z "},"Đ":{"ha":1061,"x_min":13,"x_max":993,"o":"m 528 979 q 871 860 749 979 q 993 528 993 740 q 933 244 993 363 q 759 63 874 126 q 483 0 644 0 l 185 0 q 133 20 151 0 q 118 74 115 40 l 147 440 l 76 440 q 29 455 46 440 q 13 494 13 469 q 31 538 13 522 q 82 553 50 553 l 156 553 l 183 910 q 206 961 186 943 q 258 979 226 979 l 528 979 m 474 119 q 753 224 660 119 q 847 529 847 328 q 763 776 847 692 q 514 860 679 860 l 324 860 l 300 553 l 508 553 q 556 538 540 553 q 572 497 572 524 q 555 455 572 469 q 504 440 538 440 l 290 440 l 265 119 l 474 119 z "},"Ḍ":{"ha":1036,"x_min":93,"x_max":968,"o":"m 161 0 q 109 20 128 0 q 93 74 90 40 l 160 910 q 181 961 161 943 q 233 979 201 979 l 503 979 q 846 860 724 979 q 968 528 968 740 q 908 244 968 363 q 734 63 849 126 q 458 0 619 0 l 161 0 m 449 119 q 728 224 635 119 q 822 529 822 328 q 739 776 822 693 q 489 860 656 860 l 299 860 l 240 119 l 449 119 m 476 -267 q 418 -245 440 -267 q 396 -189 396 -224 q 418 -133 396 -154 q 476 -112 440 -112 q 534 -134 511 -112 q 557 -189 557 -156 q 535 -245 557 -224 q 476 -267 513 -267 z "},"Ḏ":{"ha":1036,"x_min":93,"x_max":968,"o":"m 161 0 q 109 20 128 0 q 93 74 90 40 l 160 910 q 181 961 161 943 q 233 979 201 979 l 503 979 q 846 860 724 979 q 968 528 968 740 q 908 244 968 363 q 734 63 849 126 q 458 0 619 0 l 161 0 m 449 119 q 728 224 635 119 q 822 529 822 328 q 739 776 822 693 q 489 860 656 860 l 299 860 l 240 119 l 449 119 m 306 -236 q 267 -224 281 -236 q 253 -192 253 -211 q 269 -156 253 -168 q 311 -143 285 -143 l 649 -143 q 686 -155 672 -143 q 700 -187 700 -167 q 684 -224 700 -211 q 642 -236 668 -236 l 306 -236 z "},"ǅ":{"ha":1739,"x_min":93,"x_max":1700,"o":"m 161 0 q 109 20 128 0 q 93 74 90 40 l 160 910 q 181 961 161 943 q 233 979 201 979 l 503 979 q 846 860 724 979 q 968 528 968 740 q 908 244 968 363 q 734 63 849 126 q 458 0 619 0 l 161 0 m 449 119 q 728 224 635 119 q 822 529 822 328 q 739 776 822 693 q 489 860 656 860 l 299 860 l 240 119 l 449 119 m 1644 678 q 1685 662 1671 678 q 1700 622 1700 646 q 1678 568 1700 592 l 1258 108 l 1617 108 q 1660 94 1644 108 q 1675 57 1675 81 q 1658 15 1675 29 q 1610 0 1642 0 l 1126 0 q 1085 15 1100 0 q 1071 54 1071 31 q 1093 106 1071 82 l 1514 569 l 1179 569 q 1136 583 1151 569 q 1121 621 1121 597 q 1185 678 1121 678 l 1644 678 m 1529 1024 q 1578 1054 1546 1054 q 1613 1041 1599 1054 q 1628 1008 1628 1028 q 1617 975 1628 990 l 1497 799 q 1466 769 1485 779 q 1428 760 1447 760 q 1392 769 1410 760 q 1365 799 1375 779 l 1272 981 q 1265 1007 1265 993 q 1281 1041 1265 1028 q 1318 1054 1297 1054 q 1367 1021 1351 1054 l 1436 861 l 1529 1024 z "},"E":{"ha":813,"x_min":90,"x_max":808,"o":"m 297 864 l 272 556 l 685 556 q 731 540 714 556 q 747 500 747 525 q 729 455 747 471 q 678 439 711 439 l 264 439 l 238 115 l 678 115 q 725 100 708 115 q 742 60 742 85 q 724 16 742 32 q 671 0 706 0 l 158 0 q 107 18 124 0 q 93 71 90 36 l 160 911 q 181 962 161 944 q 233 979 200 979 l 746 979 q 792 964 775 979 q 808 924 808 949 q 739 864 808 864 l 297 864 z "},"É":{"ha":813,"x_min":93,"x_max":808,"o":"m 297 864 l 272 556 l 685 556 q 731 540 714 556 q 747 500 747 525 q 729 455 747 471 q 678 439 711 439 l 264 439 l 238 115 l 678 115 q 725 100 708 115 q 742 60 742 85 q 724 16 742 32 q 671 0 706 0 l 158 0 q 107 18 124 0 q 93 71 90 36 l 160 911 q 181 962 161 944 q 233 979 200 979 l 746 979 q 792 964 775 979 q 808 924 808 949 q 739 864 808 864 l 297 864 m 564 1072 q 528 1056 546 1056 q 503 1065 513 1056 q 493 1089 493 1075 q 503 1115 493 1101 l 603 1256 q 653 1285 622 1285 q 690 1269 674 1285 q 706 1233 706 1254 q 685 1190 706 1210 l 564 1072 z "},"Ĕ":{"ha":813,"x_min":93,"x_max":808,"o":"m 297 864 l 272 556 l 685 556 q 731 540 714 556 q 747 500 747 525 q 729 455 747 471 q 678 439 711 439 l 264 439 l 238 115 l 678 115 q 725 100 708 115 q 742 60 742 85 q 724 16 742 32 q 671 0 706 0 l 158 0 q 107 18 124 0 q 93 71 90 36 l 160 911 q 181 962 161 944 q 233 979 200 979 l 746 979 q 792 964 775 979 q 808 924 808 949 q 739 864 808 864 l 297 864 m 515 1078 q 388 1108 442 1078 q 307 1193 335 1138 q 299 1221 299 1208 q 311 1249 299 1238 q 342 1260 324 1260 q 385 1238 367 1260 q 519 1171 429 1171 q 661 1238 608 1171 q 708 1260 682 1260 q 736 1250 725 1260 q 747 1225 747 1240 q 736 1193 747 1211 q 644 1108 701 1138 q 515 1078 588 1078 z "},"Ě":{"ha":813,"x_min":93,"x_max":808,"o":"m 297 864 l 272 556 l 685 556 q 731 540 714 556 q 747 500 747 525 q 729 455 747 471 q 678 439 711 439 l 264 439 l 238 115 l 678 115 q 725 100 708 115 q 742 60 742 85 q 724 16 742 32 q 671 0 706 0 l 158 0 q 107 18 124 0 q 93 71 90 36 l 160 911 q 181 962 161 944 q 233 979 200 979 l 746 979 q 792 964 775 979 q 808 924 808 949 q 739 864 808 864 l 297 864 m 610 1258 q 656 1282 629 1282 q 688 1270 675 1282 q 701 1242 701 1258 q 686 1208 701 1224 l 571 1081 q 508 1054 546 1054 q 451 1081 469 1054 l 358 1206 q 347 1236 347 1221 q 362 1267 347 1254 q 396 1281 376 1281 q 442 1253 425 1281 l 513 1139 l 610 1258 z "},"Ȩ":{"ha":813,"x_min":90,"x_max":808,"o":"m 297 864 l 272 556 l 685 556 q 731 540 714 556 q 747 500 747 525 q 729 455 747 471 q 678 439 711 439 l 264 439 l 238 115 l 678 115 q 725 100 708 115 q 742 60 742 85 q 724 16 742 32 q 671 0 706 0 l 458 0 l 446 -58 q 469 -57 453 -57 q 547 -82 518 -57 q 575 -150 575 -107 q 528 -237 575 -204 q 406 -269 482 -269 q 304 -254 350 -269 q 285 -241 292 -250 q 279 -221 279 -232 q 292 -192 279 -204 q 324 -186 306 -181 q 403 -197 367 -197 q 479 -153 479 -197 q 467 -127 479 -136 q 433 -118 456 -118 q 399 -124 417 -118 q 374 -129 381 -129 q 353 -121 361 -129 q 349 -101 346 -112 l 369 0 l 158 0 q 107 18 124 0 q 93 71 90 36 l 160 911 q 181 962 161 944 q 233 979 200 979 l 746 979 q 792 964 775 979 q 808 924 808 949 q 739 864 808 864 l 297 864 z "},"Ḝ":{"ha":813,"x_min":90,"x_max":808,"o":"m 515 1078 q 388 1108 442 1078 q 307 1193 335 1138 q 299 1221 299 1208 q 311 1249 299 1238 q 342 1260 324 1260 q 385 1238 367 1260 q 519 1171 429 1171 q 661 1238 608 1171 q 708 1260 682 1260 q 736 1250 725 1260 q 747 1225 747 1240 q 736 1193 747 1211 q 644 1108 701 1138 q 515 1078 588 1078 m 297 864 l 272 556 l 685 556 q 731 540 714 556 q 747 500 747 525 q 729 455 747 471 q 678 439 711 439 l 264 439 l 238 115 l 678 115 q 725 100 708 115 q 742 60 742 85 q 724 16 742 32 q 671 0 706 0 l 458 0 l 446 -58 q 469 -57 453 -57 q 547 -82 518 -57 q 575 -150 575 -107 q 528 -237 575 -204 q 406 -269 482 -269 q 304 -254 350 -269 q 285 -241 292 -250 q 279 -221 279 -232 q 292 -192 279 -204 q 324 -186 306 -181 q 403 -197 367 -197 q 479 -153 479 -197 q 467 -127 479 -136 q 433 -118 456 -118 q 399 -124 417 -118 q 374 -129 381 -129 q 353 -121 361 -129 q 349 -101 346 -112 l 369 0 l 158 0 q 107 18 124 0 q 93 71 90 36 l 160 911 q 181 962 161 944 q 233 979 200 979 l 746 979 q 792 964 775 979 q 808 924 808 949 q 739 864 808 864 l 297 864 z "},"Ê":{"ha":813,"x_min":93,"x_max":808,"o":"m 297 864 l 272 556 l 685 556 q 731 540 714 556 q 747 500 747 525 q 729 455 747 471 q 678 439 711 439 l 264 439 l 238 115 l 678 115 q 725 100 708 115 q 742 60 742 85 q 724 16 742 32 q 671 0 706 0 l 158 0 q 107 18 124 0 q 93 71 90 36 l 160 911 q 181 962 161 944 q 233 979 200 979 l 746 979 q 792 964 775 979 q 808 924 808 949 q 739 864 808 864 l 297 864 m 426 1079 q 381 1056 407 1056 q 349 1067 363 1056 q 336 1096 336 1079 q 350 1129 336 1114 l 467 1257 q 529 1283 492 1283 q 586 1257 565 1283 l 678 1131 q 689 1100 689 1115 q 675 1069 689 1082 q 642 1056 661 1056 q 596 1085 614 1056 l 525 1199 l 426 1079 z "},"Ế":{"ha":813,"x_min":93,"x_max":864,"o":"m 297 864 l 272 556 l 685 556 q 731 540 714 556 q 747 500 747 525 q 729 455 747 471 q 678 439 711 439 l 264 439 l 238 115 l 678 115 q 725 100 708 115 q 742 60 742 85 q 724 16 742 32 q 671 0 706 0 l 158 0 q 107 18 124 0 q 93 71 90 36 l 160 911 q 181 962 161 944 q 233 979 200 979 l 746 979 q 792 964 775 979 q 808 924 808 949 q 739 864 808 864 l 297 864 m 719 1211 q 692 1200 708 1200 q 669 1209 678 1200 q 660 1231 660 1218 q 668 1254 660 1242 l 765 1388 q 813 1414 785 1414 q 849 1399 833 1414 q 864 1365 864 1385 q 842 1322 864 1340 l 719 1211 m 422 1072 q 386 1054 406 1054 q 355 1067 368 1054 q 342 1099 342 1081 q 357 1132 342 1117 l 468 1247 q 529 1275 496 1275 q 585 1247 561 1275 l 676 1129 q 689 1099 689 1115 q 675 1067 689 1081 q 642 1054 661 1054 q 600 1078 618 1054 l 524 1189 l 422 1072 z "},"Ệ":{"ha":813,"x_min":93,"x_max":808,"o":"m 297 864 l 272 556 l 685 556 q 731 540 714 556 q 747 500 747 525 q 729 455 747 471 q 678 439 711 439 l 264 439 l 238 115 l 678 115 q 725 100 708 115 q 742 60 742 85 q 724 16 742 32 q 671 0 706 0 l 158 0 q 107 18 124 0 q 93 71 90 36 l 160 911 q 181 962 161 944 q 233 979 200 979 l 746 979 q 792 964 775 979 q 808 924 808 949 q 739 864 808 864 l 297 864 m 411 -267 q 353 -245 375 -267 q 331 -189 331 -224 q 353 -133 331 -154 q 411 -112 375 -112 q 469 -134 446 -112 q 492 -189 492 -156 q 469 -245 492 -224 q 411 -267 447 -267 m 426 1079 q 381 1056 407 1056 q 349 1067 363 1056 q 336 1096 336 1079 q 350 1129 336 1114 l 467 1257 q 529 1283 492 1283 q 586 1257 565 1283 l 678 1131 q 689 1100 689 1115 q 675 1069 689 1082 q 642 1056 661 1056 q 596 1085 614 1056 l 525 1199 l 426 1079 z "},"Ề":{"ha":813,"x_min":93,"x_max":808,"o":"m 297 864 l 272 556 l 685 556 q 731 540 714 556 q 747 500 747 525 q 729 455 747 471 q 678 439 711 439 l 264 439 l 238 115 l 678 115 q 725 100 708 115 q 742 60 742 85 q 724 16 742 32 q 671 0 706 0 l 158 0 q 107 18 124 0 q 93 71 90 36 l 160 911 q 181 962 161 944 q 233 979 200 979 l 746 979 q 792 964 775 979 q 808 924 808 949 q 739 864 808 864 l 297 864 m 742 1225 q 730 1212 738 1217 q 714 1207 722 1207 q 692 1216 700 1207 q 686 1239 683 1225 l 674 1363 q 687 1396 675 1385 q 715 1407 699 1407 q 747 1394 733 1407 q 761 1363 761 1382 q 758 1347 761 1358 l 742 1225 m 422 1072 q 386 1054 406 1054 q 355 1067 368 1054 q 342 1099 342 1081 q 357 1132 342 1117 l 468 1247 q 529 1275 496 1275 q 585 1247 561 1275 l 676 1129 q 689 1099 689 1115 q 675 1067 689 1081 q 642 1054 661 1054 q 600 1078 618 1054 l 524 1189 l 422 1072 z "},"Ể":{"ha":813,"x_min":93,"x_max":844,"o":"m 297 864 l 272 556 l 685 556 q 731 540 714 556 q 747 500 747 525 q 729 455 747 471 q 678 439 711 439 l 264 439 l 238 115 l 678 115 q 725 100 708 115 q 742 60 742 85 q 724 16 742 32 q 671 0 706 0 l 158 0 q 107 18 124 0 q 93 71 90 36 l 160 911 q 181 962 161 944 q 233 979 200 979 l 746 979 q 792 964 775 979 q 808 924 808 949 q 739 864 808 864 l 297 864 m 726 1225 q 712 1208 724 1214 q 686 1201 700 1201 q 658 1210 669 1201 q 647 1233 647 1218 q 664 1271 647 1257 q 710 1296 681 1285 q 736 1310 728 1304 q 744 1322 744 1315 q 694 1342 744 1342 q 621 1333 674 1342 q 592 1339 603 1331 q 581 1361 581 1347 q 607 1394 581 1385 q 710 1411 647 1411 q 809 1390 774 1411 q 844 1333 844 1368 q 826 1289 844 1304 q 774 1260 808 1274 q 740 1243 751 1250 q 726 1225 729 1236 m 422 1072 q 386 1054 406 1054 q 355 1067 368 1054 q 342 1099 342 1081 q 357 1132 342 1117 l 468 1247 q 529 1275 496 1275 q 585 1247 561 1275 l 676 1129 q 689 1099 689 1115 q 675 1067 689 1081 q 642 1054 661 1054 q 600 1078 618 1054 l 524 1189 l 422 1072 z "},"Ễ":{"ha":813,"x_min":93,"x_max":808,"o":"m 297 864 l 272 556 l 685 556 q 731 540 714 556 q 747 500 747 525 q 729 455 747 471 q 678 439 711 439 l 264 439 l 238 115 l 678 115 q 725 100 708 115 q 742 60 742 85 q 724 16 742 32 q 671 0 706 0 l 158 0 q 107 18 124 0 q 93 71 90 36 l 160 911 q 181 962 161 944 q 233 979 200 979 l 746 979 q 792 964 775 979 q 808 924 808 949 q 739 864 808 864 l 297 864 m 338 1288 q 307 1322 307 1288 q 324 1367 307 1343 q 372 1407 342 1390 q 439 1424 403 1424 q 490 1416 464 1424 q 553 1394 517 1408 q 597 1378 575 1385 q 635 1371 619 1371 q 667 1378 654 1371 q 694 1401 679 1386 q 729 1422 713 1422 q 753 1413 744 1422 q 761 1388 761 1403 q 743 1343 761 1367 q 694 1303 725 1319 q 628 1286 664 1286 q 517 1315 589 1286 q 482 1328 510 1318 q 433 1338 454 1338 q 400 1330 413 1338 q 374 1308 388 1322 q 355 1292 363 1297 q 338 1288 347 1288 m 422 1072 q 386 1054 406 1054 q 355 1067 368 1054 q 342 1099 342 1081 q 357 1132 342 1117 l 468 1247 q 529 1275 496 1275 q 585 1247 561 1275 l 676 1129 q 689 1099 689 1115 q 675 1067 689 1081 q 642 1054 661 1054 q 600 1078 618 1054 l 524 1189 l 422 1072 z "},"Ȅ":{"ha":813,"x_min":93,"x_max":808,"o":"m 297 864 l 272 556 l 685 556 q 731 540 714 556 q 747 500 747 525 q 729 455 747 471 q 678 439 711 439 l 264 439 l 238 115 l 678 115 q 725 100 708 115 q 742 60 742 85 q 724 16 742 32 q 671 0 706 0 l 158 0 q 107 18 124 0 q 93 71 90 36 l 160 911 q 181 962 161 944 q 233 979 200 979 l 746 979 q 792 964 775 979 q 808 924 808 949 q 739 864 808 864 l 297 864 m 303 1208 q 294 1236 294 1224 q 309 1269 294 1256 q 343 1283 324 1283 q 369 1274 357 1283 q 388 1246 381 1265 l 442 1103 q 444 1089 444 1092 q 435 1066 444 1075 q 413 1057 425 1057 q 383 1075 396 1057 l 303 1208 m 476 1208 q 468 1236 468 1224 q 483 1269 468 1256 q 517 1283 497 1283 q 563 1246 549 1283 l 617 1103 q 619 1089 619 1094 q 610 1065 619 1075 q 588 1056 600 1056 q 557 1075 568 1056 l 476 1208 z "},"Ë":{"ha":813,"x_min":93,"x_max":808,"o":"m 297 864 l 272 556 l 685 556 q 731 540 714 556 q 747 500 747 525 q 729 455 747 471 q 678 439 711 439 l 264 439 l 238 115 l 678 115 q 725 100 708 115 q 742 60 742 85 q 724 16 742 32 q 671 0 706 0 l 158 0 q 107 18 124 0 q 93 71 90 36 l 160 911 q 181 962 161 944 q 233 979 200 979 l 746 979 q 792 964 775 979 q 808 924 808 949 q 739 864 808 864 l 297 864 m 397 1094 q 340 1115 363 1094 q 318 1169 318 1136 q 340 1225 318 1204 q 397 1246 363 1246 q 453 1224 431 1246 q 476 1169 476 1203 q 454 1115 476 1136 q 397 1094 432 1094 m 642 1094 q 586 1115 608 1094 q 564 1169 564 1136 q 586 1224 564 1203 q 642 1246 608 1246 q 699 1225 676 1246 q 721 1169 721 1204 q 699 1115 721 1136 q 642 1094 676 1094 z "},"Ė":{"ha":813,"x_min":93,"x_max":808,"o":"m 297 864 l 272 556 l 685 556 q 731 540 714 556 q 747 500 747 525 q 729 455 747 471 q 678 439 711 439 l 264 439 l 238 115 l 678 115 q 725 100 708 115 q 742 60 742 85 q 724 16 742 32 q 671 0 706 0 l 158 0 q 107 18 124 0 q 93 71 90 36 l 160 911 q 181 962 161 944 q 233 979 200 979 l 746 979 q 792 964 775 979 q 808 924 808 949 q 739 864 808 864 l 297 864 m 519 1089 q 456 1111 479 1089 q 432 1169 432 1133 q 456 1228 432 1207 q 519 1250 479 1250 q 583 1228 558 1250 q 607 1169 607 1207 q 583 1111 607 1133 q 519 1089 560 1089 z "},"Ẹ":{"ha":813,"x_min":93,"x_max":808,"o":"m 297 864 l 272 556 l 685 556 q 731 540 714 556 q 747 500 747 525 q 729 455 747 471 q 678 439 711 439 l 264 439 l 238 115 l 678 115 q 725 100 708 115 q 742 60 742 85 q 724 16 742 32 q 671 0 706 0 l 158 0 q 107 18 124 0 q 93 71 90 36 l 160 911 q 181 962 161 944 q 233 979 200 979 l 746 979 q 792 964 775 979 q 808 924 808 949 q 739 864 808 864 l 297 864 m 411 -267 q 353 -245 375 -267 q 331 -189 331 -224 q 353 -133 331 -154 q 411 -112 375 -112 q 469 -134 446 -112 q 492 -189 492 -156 q 469 -245 492 -224 q 411 -267 447 -267 z "},"È":{"ha":813,"x_min":93,"x_max":808,"o":"m 297 864 l 272 556 l 685 556 q 731 540 714 556 q 747 500 747 525 q 729 455 747 471 q 678 439 711 439 l 264 439 l 238 115 l 678 115 q 725 100 708 115 q 742 60 742 85 q 724 16 742 32 q 671 0 706 0 l 158 0 q 107 18 124 0 q 93 71 90 36 l 160 911 q 181 962 161 944 q 233 979 200 979 l 746 979 q 792 964 775 979 q 808 924 808 949 q 739 864 808 864 l 297 864 m 354 1199 q 339 1236 339 1215 q 356 1272 339 1257 q 393 1286 372 1286 q 442 1254 424 1286 l 525 1110 q 531 1089 531 1100 q 519 1065 531 1075 q 493 1056 508 1056 q 458 1072 471 1056 l 354 1199 z "},"Ẻ":{"ha":813,"x_min":93,"x_max":808,"o":"m 297 864 l 272 556 l 685 556 q 731 540 714 556 q 747 500 747 525 q 729 455 747 471 q 678 439 711 439 l 264 439 l 238 115 l 678 115 q 725 100 708 115 q 742 60 742 85 q 724 16 742 32 q 671 0 706 0 l 158 0 q 107 18 124 0 q 93 71 90 36 l 160 911 q 181 962 161 944 q 233 979 200 979 l 746 979 q 792 964 775 979 q 808 924 808 949 q 739 864 808 864 l 297 864 m 556 1082 q 540 1063 551 1069 q 514 1056 528 1056 q 485 1065 497 1056 q 474 1089 474 1074 q 490 1128 474 1114 q 533 1154 506 1142 q 562 1171 553 1164 q 571 1188 571 1178 q 522 1210 571 1210 q 449 1199 490 1210 q 419 1204 431 1194 q 408 1228 408 1214 q 416 1249 408 1239 q 436 1264 424 1258 q 538 1281 476 1281 q 636 1258 600 1281 q 672 1199 672 1235 q 656 1153 672 1168 q 604 1122 639 1139 q 569 1102 581 1110 q 556 1082 558 1094 z "},"Ȇ":{"ha":813,"x_min":93,"x_max":808,"o":"m 297 864 l 272 556 l 685 556 q 731 540 714 556 q 747 500 747 525 q 729 455 747 471 q 678 439 711 439 l 264 439 l 238 115 l 678 115 q 725 100 708 115 q 742 60 742 85 q 724 16 742 32 q 671 0 706 0 l 158 0 q 107 18 124 0 q 93 71 90 36 l 160 911 q 181 962 161 944 q 233 979 200 979 l 746 979 q 792 964 775 979 q 808 924 808 949 q 739 864 808 864 l 297 864 m 521 1261 q 649 1231 594 1261 q 731 1146 703 1201 q 738 1119 738 1133 q 725 1090 738 1101 q 694 1079 713 1079 q 651 1101 669 1079 q 518 1168 607 1168 q 376 1101 432 1168 q 329 1079 356 1079 q 301 1089 313 1079 q 290 1114 290 1099 q 301 1146 290 1128 q 393 1231 336 1201 q 521 1261 450 1261 z "},"Ē":{"ha":813,"x_min":93,"x_max":808,"o":"m 297 864 l 272 556 l 685 556 q 731 540 714 556 q 747 500 747 525 q 729 455 747 471 q 678 439 711 439 l 264 439 l 238 115 l 678 115 q 725 100 708 115 q 742 60 742 85 q 724 16 742 32 q 671 0 706 0 l 158 0 q 107 18 124 0 q 93 71 90 36 l 160 911 q 181 962 161 944 q 233 979 200 979 l 746 979 q 792 964 775 979 q 808 924 808 949 q 739 864 808 864 l 297 864 m 347 1121 q 310 1133 324 1121 q 296 1168 296 1146 q 312 1205 296 1192 q 354 1218 328 1218 l 692 1218 q 729 1205 715 1218 q 743 1169 743 1192 q 727 1133 743 1146 q 685 1121 711 1121 l 347 1121 z "},"Ḗ":{"ha":813,"x_min":93,"x_max":808,"o":"m 297 864 l 272 556 l 685 556 q 731 540 714 556 q 747 500 747 525 q 729 455 747 471 q 678 439 711 439 l 264 439 l 238 115 l 678 115 q 725 100 708 115 q 742 60 742 85 q 724 16 742 32 q 671 0 706 0 l 158 0 q 107 18 124 0 q 93 71 90 36 l 160 911 q 181 962 161 944 q 233 979 200 979 l 746 979 q 792 964 775 979 q 808 924 808 949 q 739 864 808 864 l 297 864 m 347 1121 q 310 1133 324 1121 q 296 1168 296 1146 q 312 1205 296 1192 q 354 1218 328 1218 l 692 1218 q 729 1205 715 1218 q 743 1169 743 1192 q 727 1133 743 1146 q 685 1121 711 1121 l 347 1121 m 582 1294 q 546 1278 564 1278 q 521 1288 531 1278 q 511 1311 511 1297 q 521 1338 511 1324 l 621 1478 q 671 1507 640 1507 q 708 1492 692 1507 q 724 1456 724 1476 q 703 1413 724 1432 l 582 1294 z "},"Ḕ":{"ha":813,"x_min":93,"x_max":808,"o":"m 297 864 l 272 556 l 685 556 q 731 540 714 556 q 747 500 747 525 q 729 455 747 471 q 678 439 711 439 l 264 439 l 238 115 l 678 115 q 725 100 708 115 q 742 60 742 85 q 724 16 742 32 q 671 0 706 0 l 158 0 q 107 18 124 0 q 93 71 90 36 l 160 911 q 181 962 161 944 q 233 979 200 979 l 746 979 q 792 964 775 979 q 808 924 808 949 q 739 864 808 864 l 297 864 m 347 1121 q 310 1133 324 1121 q 296 1168 296 1146 q 312 1205 296 1192 q 354 1218 328 1218 l 692 1218 q 729 1205 715 1218 q 743 1169 743 1192 q 727 1133 743 1146 q 685 1121 711 1121 l 347 1121 m 372 1421 q 357 1458 357 1438 q 374 1494 357 1479 q 411 1508 390 1508 q 460 1476 442 1508 l 543 1332 q 549 1311 549 1322 q 538 1288 549 1297 q 511 1278 526 1278 q 476 1294 489 1278 l 372 1421 z "},"Ę":{"ha":813,"x_min":90,"x_max":808,"o":"m 297 864 l 272 556 l 685 556 q 731 540 714 556 q 747 500 747 525 q 729 455 747 471 q 678 439 711 439 l 264 439 l 238 115 l 678 115 q 725 100 708 115 q 742 60 742 85 q 685 0 742 11 q 603 -34 632 -4 q 574 -107 574 -64 q 594 -165 574 -144 q 651 -186 615 -186 q 718 -171 682 -186 q 735 -167 726 -167 q 755 -176 747 -167 q 763 -199 763 -185 q 756 -223 763 -211 q 736 -242 749 -235 q 631 -269 689 -269 q 515 -231 558 -269 q 471 -129 471 -192 q 532 0 471 -50 l 158 0 q 107 18 124 0 q 93 71 90 36 l 160 911 q 181 962 161 944 q 233 979 200 979 l 746 979 q 792 964 775 979 q 808 924 808 949 q 739 864 808 864 l 297 864 z "},"Ẽ":{"ha":813,"x_min":93,"x_max":808,"o":"m 297 864 l 272 556 l 685 556 q 731 540 714 556 q 747 500 747 525 q 729 455 747 471 q 678 439 711 439 l 264 439 l 238 115 l 678 115 q 725 100 708 115 q 742 60 742 85 q 724 16 742 32 q 671 0 706 0 l 158 0 q 107 18 124 0 q 93 71 90 36 l 160 911 q 181 962 161 944 q 233 979 200 979 l 746 979 q 792 964 775 979 q 808 924 808 949 q 739 864 808 864 l 297 864 m 613 1089 q 565 1097 589 1089 q 506 1124 542 1106 q 461 1143 483 1135 q 422 1151 439 1151 q 386 1142 400 1151 q 357 1117 372 1133 q 339 1098 346 1103 q 322 1093 332 1093 q 300 1104 308 1093 q 292 1132 292 1115 q 308 1186 292 1158 q 356 1233 325 1214 q 426 1251 388 1251 q 474 1243 450 1251 q 533 1217 497 1235 q 578 1197 556 1206 q 617 1189 600 1189 q 654 1198 640 1189 q 681 1224 668 1207 q 699 1242 692 1238 q 715 1247 706 1247 q 739 1237 731 1247 q 747 1210 747 1226 q 731 1155 747 1183 q 683 1108 714 1126 q 613 1089 651 1089 z "},"F":{"ha":779,"x_min":90,"x_max":794,"o":"m 299 863 l 274 556 l 671 556 q 717 541 701 556 q 733 501 733 526 q 664 439 733 439 l 265 439 l 235 63 q 212 12 232 31 q 160 -7 192 -7 q 109 13 128 -7 q 92 65 90 32 l 160 911 q 181 962 161 944 q 233 979 200 979 l 732 979 q 778 964 763 979 q 794 922 794 949 q 725 863 794 863 l 299 863 z "},"G":{"ha":1011,"x_min":90,"x_max":942,"o":"m 590 872 q 331 759 424 872 q 238 446 238 646 q 318 193 238 282 q 558 104 399 104 q 763 139 661 104 l 785 411 l 608 411 q 563 425 579 411 q 547 464 547 439 q 565 504 547 489 q 611 519 582 519 l 857 519 q 903 501 886 519 q 917 456 919 483 l 893 135 q 874 67 889 88 q 821 35 860 46 q 688 1 764 14 q 544 -11 613 -11 q 209 110 328 -11 q 90 443 90 231 q 151 733 90 610 q 325 924 213 857 q 589 990 438 990 q 772 963 690 990 q 908 890 854 936 q 942 829 942 867 q 926 787 942 804 q 886 769 910 769 q 849 782 867 769 q 730 850 790 828 q 590 872 669 872 z "},"Ğ":{"ha":1011,"x_min":90,"x_max":942,"o":"m 590 872 q 331 759 424 872 q 238 446 238 646 q 318 193 238 282 q 558 104 399 104 q 763 139 661 104 l 785 411 l 608 411 q 563 425 579 411 q 547 464 547 439 q 565 504 547 489 q 611 519 582 519 l 857 519 q 903 501 886 519 q 917 456 919 483 l 893 135 q 874 67 889 88 q 821 35 860 46 q 688 1 764 14 q 544 -11 613 -11 q 209 110 328 -11 q 90 443 90 231 q 151 733 90 610 q 325 924 213 857 q 589 990 438 990 q 772 963 690 990 q 908 890 854 936 q 942 829 942 867 q 926 787 942 804 q 886 769 910 769 q 849 782 867 769 q 730 850 790 828 q 590 872 669 872 m 613 1078 q 485 1108 539 1078 q 404 1193 432 1138 q 396 1221 396 1208 q 408 1249 396 1238 q 439 1260 421 1260 q 482 1238 464 1260 q 617 1171 526 1171 q 758 1238 706 1171 q 806 1260 779 1260 q 833 1250 822 1260 q 844 1225 844 1240 q 833 1193 844 1211 q 742 1108 799 1138 q 613 1078 685 1078 z "},"Ǧ":{"ha":1011,"x_min":90,"x_max":942,"o":"m 590 872 q 331 759 424 872 q 238 446 238 646 q 318 193 238 282 q 558 104 399 104 q 763 139 661 104 l 785 411 l 608 411 q 563 425 579 411 q 547 464 547 439 q 565 504 547 489 q 611 519 582 519 l 857 519 q 903 501 886 519 q 917 456 919 483 l 893 135 q 874 67 889 88 q 821 35 860 46 q 688 1 764 14 q 544 -11 613 -11 q 209 110 328 -11 q 90 443 90 231 q 151 733 90 610 q 325 924 213 857 q 589 990 438 990 q 772 963 690 990 q 908 890 854 936 q 942 829 942 867 q 926 787 942 804 q 886 769 910 769 q 849 782 867 769 q 730 850 790 828 q 590 872 669 872 m 707 1258 q 753 1282 726 1282 q 785 1270 772 1282 q 799 1242 799 1258 q 783 1208 799 1224 l 668 1081 q 606 1054 643 1054 q 549 1081 567 1054 l 456 1206 q 444 1236 444 1221 q 459 1267 444 1254 q 493 1281 474 1281 q 539 1253 522 1281 l 610 1139 l 707 1258 z "},"Ĝ":{"ha":1011,"x_min":90,"x_max":942,"o":"m 590 872 q 331 759 424 872 q 238 446 238 646 q 318 193 238 282 q 558 104 399 104 q 763 139 661 104 l 785 411 l 608 411 q 563 425 579 411 q 547 464 547 439 q 565 504 547 489 q 611 519 582 519 l 857 519 q 903 501 886 519 q 917 456 919 483 l 893 135 q 874 67 889 88 q 821 35 860 46 q 688 1 764 14 q 544 -11 613 -11 q 209 110 328 -11 q 90 443 90 231 q 151 733 90 610 q 325 924 213 857 q 589 990 438 990 q 772 963 690 990 q 908 890 854 936 q 942 829 942 867 q 926 787 942 804 q 886 769 910 769 q 849 782 867 769 q 730 850 790 828 q 590 872 669 872 m 524 1079 q 478 1056 504 1056 q 447 1067 460 1056 q 433 1096 433 1079 q 447 1129 433 1114 l 564 1257 q 626 1283 589 1283 q 683 1257 663 1283 l 775 1131 q 786 1100 786 1115 q 772 1069 786 1082 q 739 1056 758 1056 q 693 1085 711 1056 l 622 1199 l 524 1079 z "},"Ģ":{"ha":1011,"x_min":90,"x_max":942,"o":"m 590 872 q 331 759 424 872 q 238 446 238 646 q 318 193 238 282 q 558 104 399 104 q 763 139 661 104 l 785 411 l 608 411 q 563 425 579 411 q 547 464 547 439 q 565 504 547 489 q 611 519 582 519 l 857 519 q 903 501 886 519 q 917 456 919 483 l 893 135 q 874 67 889 88 q 821 35 860 46 q 688 1 764 14 q 544 -11 613 -11 q 209 110 328 -11 q 90 443 90 231 q 151 733 90 610 q 325 924 213 857 q 589 990 438 990 q 772 963 690 990 q 908 890 854 936 q 942 829 942 867 q 926 787 942 804 q 886 769 910 769 q 849 782 867 769 q 730 850 790 828 q 590 872 669 872 m 521 -90 q 584 -114 561 -90 q 607 -179 607 -137 q 589 -267 607 -224 q 538 -343 571 -310 q 497 -362 519 -362 q 472 -355 482 -362 q 463 -333 463 -347 q 474 -308 463 -321 q 515 -232 507 -271 l 514 -232 q 462 -215 482 -232 q 442 -167 442 -199 q 465 -112 442 -133 q 521 -90 488 -90 z "},"Ġ":{"ha":1011,"x_min":90,"x_max":942,"o":"m 590 872 q 331 759 424 872 q 238 446 238 646 q 318 193 238 282 q 558 104 399 104 q 763 139 661 104 l 785 411 l 608 411 q 563 425 579 411 q 547 464 547 439 q 565 504 547 489 q 611 519 582 519 l 857 519 q 903 501 886 519 q 917 456 919 483 l 893 135 q 874 67 889 88 q 821 35 860 46 q 688 1 764 14 q 544 -11 613 -11 q 209 110 328 -11 q 90 443 90 231 q 151 733 90 610 q 325 924 213 857 q 589 990 438 990 q 772 963 690 990 q 908 890 854 936 q 942 829 942 867 q 926 787 942 804 q 886 769 910 769 q 849 782 867 769 q 730 850 790 828 q 590 872 669 872 m 617 1089 q 553 1111 576 1089 q 529 1169 529 1133 q 553 1228 529 1207 q 617 1250 576 1250 q 680 1228 656 1250 q 704 1169 704 1207 q 681 1111 704 1133 q 617 1089 657 1089 z "},"Ḡ":{"ha":1011,"x_min":90,"x_max":942,"o":"m 590 872 q 331 759 424 872 q 238 446 238 646 q 318 193 238 282 q 558 104 399 104 q 763 139 661 104 l 785 411 l 608 411 q 563 425 579 411 q 547 464 547 439 q 565 504 547 489 q 611 519 582 519 l 857 519 q 903 501 886 519 q 917 456 919 483 l 893 135 q 874 67 889 88 q 821 35 860 46 q 688 1 764 14 q 544 -11 613 -11 q 209 110 328 -11 q 90 443 90 231 q 151 733 90 610 q 325 924 213 857 q 589 990 438 990 q 772 963 690 990 q 908 890 854 936 q 942 829 942 867 q 926 787 942 804 q 886 769 910 769 q 849 782 867 769 q 730 850 790 828 q 590 872 669 872 m 444 1121 q 407 1133 421 1121 q 393 1168 393 1146 q 409 1205 393 1192 q 451 1218 425 1218 l 789 1218 q 826 1205 813 1218 q 840 1169 840 1192 q 824 1133 840 1146 q 782 1121 808 1121 l 444 1121 z "},"H":{"ha":1058,"x_min":90,"x_max":990,"o":"m 922 986 q 972 967 954 986 q 989 914 990 947 l 922 63 q 899 12 919 31 q 847 -7 879 -7 q 797 13 815 -7 q 781 65 778 32 l 810 439 l 264 439 l 235 63 q 212 12 232 31 q 160 -7 192 -7 q 109 13 128 -7 q 93 65 90 32 l 160 917 q 182 967 161 949 q 235 986 203 986 q 285 967 267 986 q 301 914 303 947 l 274 556 l 819 556 l 847 917 q 869 967 849 949 q 922 986 890 986 z "},"Ħ":{"ha":1108,"x_min":35,"x_max":1143,"o":"m 1082 826 q 1126 812 1110 826 q 1143 774 1143 797 q 1125 732 1143 747 q 1076 717 1107 717 l 1000 717 l 947 63 q 925 12 946 31 q 874 -7 904 -7 q 823 13 842 -7 q 806 65 804 32 l 836 439 l 290 439 l 260 63 q 238 12 258 31 q 186 -7 217 -7 q 135 13 154 -7 q 118 65 117 32 l 169 717 l 94 717 q 51 731 67 717 q 35 769 35 746 q 52 811 35 796 q 100 826 69 826 l 179 826 l 186 917 q 208 967 188 949 q 260 986 229 986 q 310 967 292 986 q 328 914 329 947 l 321 826 l 867 826 l 874 917 q 896 967 875 949 q 947 986 917 986 q 998 967 979 986 q 1015 914 1017 947 l 1008 826 l 1082 826 m 857 717 l 313 717 l 299 556 l 844 556 l 857 717 z "},"Ḫ":{"ha":1058,"x_min":93,"x_max":989,"o":"m 922 986 q 972 967 954 986 q 989 914 990 947 l 922 63 q 899 12 919 31 q 847 -7 879 -7 q 797 13 815 -7 q 781 65 778 32 l 810 439 l 264 439 l 235 63 q 212 12 232 31 q 160 -7 192 -7 q 109 13 128 -7 q 93 65 90 32 l 160 917 q 182 967 161 949 q 235 986 203 986 q 285 967 267 986 q 301 914 303 947 l 274 556 l 819 556 l 847 917 q 869 967 849 949 q 922 986 890 986 m 482 -300 q 351 -262 407 -300 q 268 -154 296 -224 q 264 -133 264 -144 q 278 -101 264 -114 q 311 -87 293 -87 q 353 -115 339 -87 q 408 -181 372 -158 q 489 -203 443 -203 q 633 -115 582 -203 q 679 -87 651 -87 q 708 -99 696 -87 q 719 -129 719 -111 q 714 -154 719 -142 q 620 -261 682 -222 q 482 -300 558 -300 z "},"Ĥ":{"ha":1058,"x_min":93,"x_max":989,"o":"m 922 986 q 972 967 954 986 q 989 914 990 947 l 922 63 q 899 12 919 31 q 847 -7 879 -7 q 797 13 815 -7 q 781 65 778 32 l 810 439 l 264 439 l 235 63 q 212 12 232 31 q 160 -7 192 -7 q 109 13 128 -7 q 93 65 90 32 l 160 917 q 182 967 161 949 q 235 986 203 986 q 285 967 267 986 q 301 914 303 947 l 274 556 l 819 556 l 847 917 q 869 967 849 949 q 922 986 890 986 m 503 1079 q 457 1056 483 1056 q 426 1067 439 1056 q 413 1096 413 1079 q 426 1129 413 1114 l 543 1257 q 606 1283 568 1283 q 663 1257 642 1283 l 754 1131 q 765 1100 765 1115 q 751 1069 765 1082 q 718 1056 738 1056 q 672 1085 690 1056 l 601 1199 l 503 1079 z "},"Ḥ":{"ha":1058,"x_min":93,"x_max":989,"o":"m 922 986 q 972 967 954 986 q 989 914 990 947 l 922 63 q 899 12 919 31 q 847 -7 879 -7 q 797 13 815 -7 q 781 65 778 32 l 810 439 l 264 439 l 235 63 q 212 12 232 31 q 160 -7 192 -7 q 109 13 128 -7 q 93 65 90 32 l 160 917 q 182 967 161 949 q 235 986 203 986 q 285 967 267 986 q 301 914 303 947 l 274 556 l 819 556 l 847 917 q 869 967 849 949 q 922 986 890 986 m 488 -267 q 429 -245 451 -267 q 407 -189 407 -224 q 429 -133 407 -154 q 488 -112 451 -112 q 545 -134 522 -112 q 568 -189 568 -156 q 546 -245 568 -224 q 488 -267 524 -267 z "},"I":{"ha":371,"x_min":90,"x_max":306,"o":"m 160 -7 q 109 13 128 -7 q 93 65 90 32 l 160 917 q 182 967 161 949 q 235 986 203 986 q 287 967 268 986 q 303 914 306 947 l 236 63 q 213 12 235 31 q 160 -7 192 -7 z "},"Í":{"ha":371,"x_min":93,"x_max":439,"o":"m 160 -7 q 109 13 128 -7 q 93 65 90 32 l 160 917 q 182 967 161 949 q 235 986 203 986 q 287 967 268 986 q 303 914 306 947 l 236 63 q 213 12 235 31 q 160 -7 192 -7 m 297 1072 q 261 1056 279 1056 q 236 1065 246 1056 q 226 1089 226 1075 q 236 1115 226 1101 l 336 1256 q 386 1285 356 1285 q 423 1269 407 1285 q 439 1233 439 1254 q 418 1190 439 1210 l 297 1072 z "},"Ĭ":{"ha":371,"x_min":32,"x_max":481,"o":"m 160 -7 q 109 13 128 -7 q 93 65 90 32 l 160 917 q 182 967 161 949 q 235 986 203 986 q 287 967 268 986 q 303 914 306 947 l 236 63 q 213 12 235 31 q 160 -7 192 -7 m 249 1078 q 122 1108 175 1078 q 40 1193 68 1138 q 32 1221 32 1208 q 44 1249 32 1238 q 75 1260 57 1260 q 118 1238 100 1260 q 253 1171 163 1171 q 394 1238 342 1171 q 442 1260 415 1260 q 469 1250 458 1260 q 481 1225 481 1240 q 469 1193 481 1211 q 378 1108 435 1138 q 249 1078 321 1078 z "},"Î":{"ha":371,"x_min":69,"x_max":422,"o":"m 160 -7 q 109 13 128 -7 q 93 65 90 32 l 160 917 q 182 967 161 949 q 235 986 203 986 q 287 967 268 986 q 303 914 306 947 l 236 63 q 213 12 235 31 q 160 -7 192 -7 m 160 1079 q 114 1056 140 1056 q 83 1067 96 1056 q 69 1096 69 1079 q 83 1129 69 1114 l 200 1257 q 263 1283 225 1283 q 319 1257 299 1283 l 411 1131 q 422 1100 422 1115 q 408 1069 422 1082 q 375 1056 394 1056 q 329 1085 347 1056 l 258 1199 l 160 1079 z "},"Ȉ":{"ha":371,"x_min":28,"x_max":353,"o":"m 160 -7 q 109 13 128 -7 q 93 65 90 32 l 160 917 q 182 967 161 949 q 235 986 203 986 q 287 967 268 986 q 303 914 306 947 l 236 63 q 213 12 235 31 q 160 -7 192 -7 m 36 1208 q 28 1236 28 1224 q 42 1269 28 1256 q 76 1283 57 1283 q 102 1274 90 1283 q 121 1246 114 1265 l 175 1103 q 178 1089 178 1092 q 168 1066 178 1075 q 146 1057 158 1057 q 117 1075 129 1057 l 36 1208 m 210 1208 q 201 1236 201 1224 q 216 1269 201 1256 q 250 1283 231 1283 q 296 1246 282 1283 l 350 1103 q 353 1089 353 1094 q 343 1065 353 1075 q 321 1056 333 1056 q 290 1075 301 1056 l 210 1208 z "},"Ï":{"ha":371,"x_min":51,"x_max":454,"o":"m 160 -7 q 109 13 128 -7 q 93 65 90 32 l 160 917 q 182 967 161 949 q 235 986 203 986 q 287 967 268 986 q 303 914 306 947 l 236 63 q 213 12 235 31 q 160 -7 192 -7 m 131 1094 q 74 1115 96 1094 q 51 1169 51 1136 q 74 1225 51 1204 q 131 1246 96 1246 q 187 1224 164 1246 q 210 1169 210 1203 q 188 1115 210 1136 q 131 1094 165 1094 m 375 1094 q 319 1115 342 1094 q 297 1169 297 1136 q 319 1224 297 1203 q 375 1246 342 1246 q 432 1225 410 1246 q 454 1169 454 1204 q 432 1115 454 1136 q 375 1094 410 1094 z "},"Ḯ":{"ha":371,"x_min":51,"x_max":457,"o":"m 160 -7 q 109 13 128 -7 q 93 65 90 32 l 160 917 q 182 967 161 949 q 235 986 203 986 q 287 967 268 986 q 303 914 306 947 l 236 63 q 213 12 235 31 q 160 -7 192 -7 m 131 1094 q 74 1115 96 1094 q 51 1169 51 1136 q 74 1225 51 1204 q 131 1246 96 1246 q 187 1224 164 1246 q 210 1169 210 1203 q 188 1115 210 1136 q 131 1094 165 1094 m 375 1094 q 319 1115 342 1094 q 297 1169 297 1136 q 319 1224 297 1203 q 375 1246 342 1246 q 432 1225 410 1246 q 454 1169 454 1204 q 432 1115 454 1136 q 375 1094 410 1094 m 315 1294 q 279 1278 297 1278 q 254 1288 264 1278 q 244 1311 244 1297 q 254 1338 244 1324 l 354 1478 q 404 1507 374 1507 q 441 1492 425 1507 q 457 1456 457 1476 q 436 1413 457 1432 l 315 1294 z "},"İ":{"ha":371,"x_min":93,"x_max":340,"o":"m 160 -7 q 109 13 128 -7 q 93 65 90 32 l 160 917 q 182 967 161 949 q 235 986 203 986 q 287 967 268 986 q 303 914 306 947 l 236 63 q 213 12 235 31 q 160 -7 192 -7 m 253 1089 q 189 1111 213 1089 q 165 1169 165 1133 q 189 1228 165 1207 q 253 1250 213 1250 q 316 1228 292 1250 q 340 1169 340 1207 q 317 1111 340 1133 q 253 1089 293 1089 z "},"Ị":{"ha":371,"x_min":64,"x_max":303,"o":"m 160 -7 q 109 13 128 -7 q 93 65 90 32 l 160 917 q 182 967 161 949 q 235 986 203 986 q 287 967 268 986 q 303 914 306 947 l 236 63 q 213 12 235 31 q 160 -7 192 -7 m 144 -267 q 86 -245 108 -267 q 64 -189 64 -224 q 86 -133 64 -154 q 144 -112 108 -112 q 202 -134 179 -112 q 225 -189 225 -156 q 203 -245 225 -224 q 144 -267 181 -267 z "},"Ì":{"ha":371,"x_min":72,"x_max":303,"o":"m 160 -7 q 109 13 128 -7 q 93 65 90 32 l 160 917 q 182 967 161 949 q 235 986 203 986 q 287 967 268 986 q 303 914 306 947 l 236 63 q 213 12 235 31 q 160 -7 192 -7 m 88 1199 q 72 1236 72 1215 q 89 1272 72 1257 q 126 1286 106 1286 q 175 1254 157 1286 l 258 1110 q 264 1089 264 1100 q 253 1065 264 1075 q 226 1056 242 1056 q 192 1072 204 1056 l 88 1199 z "},"Ỉ":{"ha":371,"x_min":93,"x_max":406,"o":"m 160 -7 q 109 13 128 -7 q 93 65 90 32 l 160 917 q 182 967 161 949 q 235 986 203 986 q 287 967 268 986 q 303 914 306 947 l 236 63 q 213 12 235 31 q 160 -7 192 -7 m 289 1082 q 273 1063 285 1069 q 247 1056 261 1056 q 219 1065 231 1056 q 207 1089 207 1074 q 223 1128 207 1114 q 267 1154 239 1142 q 295 1171 286 1164 q 304 1188 304 1178 q 256 1210 304 1210 q 182 1199 224 1210 q 153 1204 164 1194 q 142 1228 142 1214 q 149 1249 142 1239 q 169 1264 157 1258 q 271 1281 210 1281 q 369 1258 333 1281 q 406 1199 406 1235 q 389 1153 406 1168 q 338 1122 372 1139 q 303 1102 314 1110 q 289 1082 292 1094 z "},"Ȋ":{"ha":371,"x_min":24,"x_max":471,"o":"m 160 -7 q 109 13 128 -7 q 93 65 90 32 l 160 917 q 182 967 161 949 q 235 986 203 986 q 287 967 268 986 q 303 914 306 947 l 236 63 q 213 12 235 31 q 160 -7 192 -7 m 254 1261 q 382 1231 328 1261 q 464 1146 436 1201 q 471 1119 471 1133 q 458 1090 471 1101 q 428 1079 446 1079 q 385 1101 403 1079 q 251 1168 340 1168 q 110 1101 165 1168 q 63 1079 89 1079 q 35 1089 46 1079 q 24 1114 24 1099 q 35 1146 24 1128 q 126 1231 69 1201 q 254 1261 183 1261 z "},"Ī":{"ha":371,"x_min":29,"x_max":476,"o":"m 160 -7 q 109 13 128 -7 q 93 65 90 32 l 160 917 q 182 967 161 949 q 235 986 203 986 q 287 967 268 986 q 303 914 306 947 l 236 63 q 213 12 235 31 q 160 -7 192 -7 m 81 1121 q 43 1133 57 1121 q 29 1168 29 1146 q 45 1205 29 1192 q 88 1218 61 1218 l 425 1218 q 463 1205 449 1218 q 476 1169 476 1192 q 460 1133 476 1146 q 418 1121 444 1121 l 81 1121 z "},"Į":{"ha":371,"x_min":-14,"x_max":306,"o":"m 188 0 q 115 -38 140 -11 q 89 -107 89 -65 q 110 -165 89 -144 q 169 -186 132 -186 q 236 -171 200 -186 q 253 -167 244 -167 q 272 -176 265 -167 q 279 -197 279 -185 q 273 -222 279 -210 q 254 -242 267 -233 q 146 -269 208 -269 q 29 -231 72 -269 q -14 -128 -14 -192 q 15 -28 -14 -69 q 97 33 43 13 q 93 67 92 50 l 160 917 q 182 967 161 949 q 235 986 203 986 q 287 967 268 986 q 303 914 306 947 l 236 63 q 221 22 235 39 q 188 0 207 6 z "},"Ĩ":{"ha":371,"x_min":25,"x_max":481,"o":"m 160 -7 q 109 13 128 -7 q 93 65 90 32 l 160 917 q 182 967 161 949 q 235 986 203 986 q 287 967 268 986 q 303 914 306 947 l 236 63 q 213 12 235 31 q 160 -7 192 -7 m 346 1089 q 299 1097 322 1089 q 239 1124 275 1106 q 194 1143 217 1135 q 156 1151 172 1151 q 119 1142 133 1151 q 90 1117 106 1133 q 72 1098 79 1103 q 56 1093 65 1093 q 33 1104 42 1093 q 25 1132 25 1115 q 42 1186 25 1158 q 90 1233 58 1214 q 160 1251 121 1251 q 207 1243 183 1251 q 267 1217 231 1235 q 311 1197 289 1206 q 350 1189 333 1189 q 388 1198 374 1189 q 414 1224 401 1207 q 432 1242 425 1238 q 449 1247 439 1247 q 472 1237 464 1247 q 481 1210 481 1226 q 464 1155 481 1183 q 416 1108 447 1126 q 346 1089 385 1089 z "},"J":{"ha":474,"x_min":-39,"x_max":407,"o":"m 38 -7 q -20 6 -1 -10 q -39 51 -39 22 q 22 110 -39 106 l 67 113 q 210 268 197 121 l 261 915 q 285 967 263 947 q 339 986 307 986 q 389 967 371 986 q 406 915 407 947 l 354 268 q 276 71 344 140 q 83 -4 207 1 l 38 -7 z "},"Ĵ":{"ha":474,"x_min":-39,"x_max":524,"o":"m 38 -7 q -20 6 -1 -10 q -39 51 -39 22 q 22 110 -39 106 l 67 113 q 210 268 197 121 l 261 915 q 285 967 263 947 q 339 986 307 986 q 389 967 371 986 q 406 915 407 947 l 354 268 q 276 71 344 140 q 83 -4 207 1 l 38 -7 m 261 1079 q 215 1056 242 1056 q 184 1067 197 1056 q 171 1096 171 1079 q 185 1129 171 1114 l 301 1257 q 364 1283 326 1283 q 421 1257 400 1283 l 513 1131 q 524 1100 524 1115 q 510 1069 524 1082 q 476 1056 496 1056 q 431 1085 449 1056 l 360 1199 l 261 1079 z "},"K":{"ha":892,"x_min":90,"x_max":868,"o":"m 763 967 q 808 986 783 986 q 850 968 832 986 q 868 925 868 950 q 843 874 868 897 l 410 501 l 813 97 q 828 60 828 82 q 808 14 828 35 q 761 -7 788 -7 q 714 17 736 -7 l 268 463 l 236 63 q 213 12 235 31 q 160 -7 192 -7 q 109 13 128 -7 q 93 65 90 33 l 160 917 q 183 967 163 947 q 235 986 204 986 q 286 965 267 986 q 303 914 306 944 l 274 535 l 763 967 z "},"Ķ":{"ha":892,"x_min":93,"x_max":868,"o":"m 763 967 q 808 986 783 986 q 850 968 832 986 q 868 925 868 950 q 843 874 868 897 l 410 501 l 813 97 q 828 60 828 82 q 808 14 828 35 q 761 -7 788 -7 q 714 17 736 -7 l 268 463 l 236 63 q 213 12 235 31 q 160 -7 192 -7 q 109 13 128 -7 q 93 65 90 33 l 160 917 q 183 967 163 947 q 235 986 204 986 q 286 965 267 986 q 303 914 306 944 l 274 535 l 763 967 m 410 -90 q 473 -114 450 -90 q 496 -179 496 -137 q 478 -267 496 -224 q 426 -343 460 -310 q 386 -362 408 -362 q 361 -355 371 -362 q 351 -333 351 -347 q 363 -308 351 -321 q 404 -232 396 -271 l 403 -232 q 351 -215 371 -232 q 331 -167 331 -199 q 353 -112 331 -133 q 410 -90 376 -90 z "},"L":{"ha":760,"x_min":90,"x_max":724,"o":"m 158 0 q 107 18 124 0 q 93 71 90 36 l 160 917 q 183 967 161 949 q 236 986 204 986 q 288 967 269 986 q 303 914 306 947 l 240 119 l 661 119 q 708 105 692 119 q 724 64 724 90 q 654 0 724 0 l 158 0 z "},"Ǉ":{"ha":1233,"x_min":90,"x_max":1167,"o":"m 158 0 q 107 18 124 0 q 93 71 90 36 l 160 917 q 183 967 161 949 q 236 986 204 986 q 288 967 269 986 q 303 914 306 947 l 240 119 l 619 119 q 666 105 650 119 q 682 64 682 90 q 613 0 682 0 l 158 0 m 796 -7 q 740 5 760 -10 q 721 47 721 19 q 781 110 721 106 l 826 113 q 926 155 890 115 q 969 268 963 194 l 1021 915 q 1044 967 1022 947 q 1099 986 1067 986 q 1149 967 1131 986 q 1165 915 1167 947 l 1114 268 q 1035 71 1104 140 q 843 -4 967 1 l 796 -7 z "},"Ĺ":{"ha":760,"x_min":93,"x_max":724,"o":"m 158 0 q 107 18 124 0 q 93 71 90 36 l 160 917 q 183 967 161 949 q 236 986 204 986 q 288 967 269 986 q 303 914 306 947 l 240 119 l 661 119 q 708 105 692 119 q 724 64 724 90 q 654 0 724 0 l 158 0 m 296 1072 q 260 1056 278 1056 q 235 1065 244 1056 q 225 1089 225 1075 q 235 1115 225 1101 l 335 1256 q 385 1285 354 1285 q 422 1269 406 1285 q 438 1233 438 1254 q 417 1190 438 1210 l 296 1072 z "},"Ľ":{"ha":760,"x_min":93,"x_max":724,"o":"m 158 0 q 107 18 124 0 q 93 71 90 36 l 160 917 q 183 967 161 949 q 236 986 204 986 q 288 967 269 986 q 303 914 306 947 l 240 119 l 661 119 q 708 105 692 119 q 724 64 724 90 q 654 0 724 0 l 158 0 m 479 731 q 465 708 475 715 q 442 700 454 700 q 417 710 428 700 q 407 735 406 719 l 422 939 q 439 976 424 964 q 475 989 454 989 q 509 976 494 989 q 524 942 524 964 q 522 928 524 933 l 479 731 z "},"Ļ":{"ha":760,"x_min":93,"x_max":724,"o":"m 158 0 q 107 18 124 0 q 93 71 90 36 l 160 917 q 183 967 161 949 q 236 986 204 986 q 288 967 269 986 q 303 914 306 947 l 240 119 l 661 119 q 708 105 692 119 q 724 64 724 90 q 654 0 724 0 l 158 0 m 392 -90 q 455 -114 432 -90 q 478 -179 478 -137 q 460 -267 478 -224 q 408 -343 442 -310 q 368 -362 390 -362 q 343 -355 353 -362 q 333 -333 333 -347 q 344 -308 333 -321 q 386 -232 378 -271 l 385 -232 q 333 -215 353 -232 q 313 -167 313 -199 q 335 -112 313 -133 q 392 -90 358 -90 z "},"Ŀ":{"ha":760,"x_min":93,"x_max":724,"o":"m 158 0 q 107 18 124 0 q 93 71 90 36 l 160 917 q 183 967 161 949 q 236 986 204 986 q 288 967 269 986 q 303 914 306 947 l 240 119 l 661 119 q 708 105 692 119 q 724 64 724 90 q 654 0 724 0 l 158 0 m 515 410 q 451 432 475 410 q 428 490 428 454 q 451 549 428 528 q 515 571 475 571 q 578 549 554 571 q 603 490 603 528 q 579 432 603 454 q 515 410 556 410 z "},"Ḷ":{"ha":760,"x_min":93,"x_max":724,"o":"m 158 0 q 107 18 124 0 q 93 71 90 36 l 160 917 q 183 967 161 949 q 236 986 204 986 q 288 967 269 986 q 303 914 306 947 l 240 119 l 661 119 q 708 105 692 119 q 724 64 724 90 q 654 0 724 0 l 158 0 m 389 -267 q 331 -245 353 -267 q 308 -189 308 -224 q 331 -133 308 -154 q 389 -112 353 -112 q 447 -134 424 -112 q 469 -189 469 -156 q 447 -245 469 -224 q 389 -267 425 -267 z "},"ǈ":{"ha":1096,"x_min":93,"x_max":1061,"o":"m 158 0 q 107 18 124 0 q 93 71 90 36 l 160 917 q 183 967 161 949 q 236 986 204 986 q 288 967 269 986 q 303 914 306 947 l 240 119 l 661 119 q 708 105 692 119 q 724 64 724 90 q 654 0 724 0 l 158 0 m 672 -254 q 617 -242 638 -256 q 597 -204 597 -229 q 612 -165 597 -181 q 656 -149 626 -150 l 696 -146 q 792 -106 760 -142 q 831 -1 825 -71 l 881 625 q 904 674 883 657 q 954 692 925 692 q 1004 674 985 692 q 1021 625 1024 657 l 972 11 q 897 -178 963 -114 q 703 -251 831 -243 l 672 -254 m 974 828 q 910 850 933 828 q 886 908 886 872 q 910 966 886 944 q 974 988 933 988 q 1037 966 1013 988 q 1061 908 1061 944 q 1038 850 1061 872 q 974 828 1014 828 z "},"Ḻ":{"ha":760,"x_min":93,"x_max":724,"o":"m 158 0 q 107 18 124 0 q 93 71 90 36 l 160 917 q 183 967 161 949 q 236 986 204 986 q 288 967 269 986 q 303 914 306 947 l 240 119 l 661 119 q 708 105 692 119 q 724 64 724 90 q 654 0 724 0 l 158 0 m 218 -236 q 179 -224 193 -236 q 165 -192 165 -211 q 181 -156 165 -168 q 224 -143 197 -143 l 561 -143 q 599 -155 585 -143 q 613 -187 613 -167 q 597 -224 613 -211 q 554 -236 581 -236 l 218 -236 z "},"Ł":{"ha":785,"x_min":6,"x_max":749,"o":"m 686 119 q 733 104 717 119 q 749 64 749 89 q 679 0 749 0 l 183 0 q 132 18 149 0 q 118 71 115 36 l 143 390 l 86 358 q 56 350 69 350 q 20 367 35 350 q 6 404 6 383 q 38 454 6 436 l 153 518 l 185 917 q 208 967 188 949 q 261 986 229 986 q 313 967 294 986 q 328 914 331 947 l 303 600 l 500 708 q 528 715 513 715 q 564 699 549 715 q 579 663 579 683 q 547 614 579 632 l 293 474 l 265 119 l 686 119 z "},"M":{"ha":1168,"x_min":92,"x_max":1101,"o":"m 1038 988 q 1085 969 1068 988 q 1099 921 1101 950 l 1029 57 q 1009 10 1028 28 q 963 -7 990 -7 q 916 11 933 -7 q 900 60 899 29 l 951 704 l 640 190 q 571 146 614 146 q 506 193 528 146 l 272 700 l 222 57 q 202 10 221 28 q 154 -7 183 -7 q 108 11 125 -7 q 93 60 92 29 l 161 915 q 184 967 164 947 q 235 986 204 986 q 301 936 279 986 l 582 304 l 965 940 q 1038 988 992 988 z "},"Ṃ":{"ha":1168,"x_min":93,"x_max":1099,"o":"m 1038 988 q 1085 969 1068 988 q 1099 921 1101 950 l 1029 57 q 1009 10 1028 28 q 963 -7 990 -7 q 916 11 933 -7 q 900 60 899 29 l 951 704 l 640 190 q 571 146 614 146 q 506 193 528 146 l 272 700 l 222 57 q 202 10 221 28 q 154 -7 183 -7 q 108 11 125 -7 q 93 60 92 29 l 161 915 q 184 967 164 947 q 235 986 204 986 q 301 936 279 986 l 582 304 l 965 940 q 1038 988 992 988 m 542 -267 q 483 -245 506 -267 q 461 -189 461 -224 q 483 -133 461 -154 q 542 -112 506 -112 q 599 -134 576 -112 q 622 -189 622 -156 q 600 -245 622 -224 q 542 -267 578 -267 z "},"N":{"ha":1032,"x_min":90,"x_max":965,"o":"m 900 986 q 947 966 929 986 q 964 915 965 946 l 896 63 q 875 12 893 31 q 826 -7 857 -7 q 767 22 788 -7 l 281 739 l 226 61 q 204 12 224 31 q 156 -7 185 -7 q 108 13 125 -7 q 92 65 90 33 l 160 915 q 181 967 161 947 q 232 986 201 986 q 289 957 269 986 l 775 243 l 828 918 q 850 968 831 950 q 900 986 869 986 z "},"Ǌ":{"ha":1506,"x_min":92,"x_max":1438,"o":"m 900 986 q 947 966 929 986 q 964 915 965 946 l 896 63 q 875 12 893 31 q 826 -7 857 -7 q 767 22 788 -7 l 281 739 l 226 61 q 204 12 224 31 q 156 -7 185 -7 q 108 13 125 -7 q 92 65 90 33 l 160 915 q 181 967 161 947 q 232 986 201 986 q 289 957 269 986 l 775 243 l 828 918 q 850 968 831 950 q 900 986 869 986 m 1069 -7 q 1012 6 1031 -10 q 993 51 993 22 q 1054 110 993 106 l 1099 113 q 1242 268 1229 121 l 1293 915 q 1317 967 1294 947 q 1371 986 1339 986 q 1421 967 1403 986 q 1438 915 1439 947 l 1386 268 q 1308 71 1376 140 q 1115 -4 1239 1 l 1069 -7 z "},"Ń":{"ha":1032,"x_min":92,"x_max":964,"o":"m 900 986 q 947 966 929 986 q 964 915 965 946 l 896 63 q 875 12 893 31 q 826 -7 857 -7 q 767 22 788 -7 l 281 739 l 226 61 q 204 12 224 31 q 156 -7 185 -7 q 108 13 125 -7 q 92 65 90 33 l 160 915 q 181 967 161 947 q 232 986 201 986 q 289 957 269 986 l 775 243 l 828 918 q 850 968 831 950 q 900 986 869 986 m 626 1072 q 590 1056 608 1056 q 565 1065 575 1056 q 556 1089 556 1075 q 565 1115 556 1101 l 665 1256 q 715 1285 685 1285 q 752 1269 736 1285 q 768 1233 768 1254 q 747 1190 768 1210 l 626 1072 z "},"Ň":{"ha":1032,"x_min":92,"x_max":964,"o":"m 900 986 q 947 966 929 986 q 964 915 965 946 l 896 63 q 875 12 893 31 q 826 -7 857 -7 q 767 22 788 -7 l 281 739 l 226 61 q 204 12 224 31 q 156 -7 185 -7 q 108 13 125 -7 q 92 65 90 33 l 160 915 q 181 967 161 947 q 232 986 201 986 q 289 957 269 986 l 775 243 l 828 918 q 850 968 831 950 q 900 986 869 986 m 672 1258 q 718 1282 692 1282 q 751 1270 738 1282 q 764 1242 764 1258 q 749 1208 764 1224 l 633 1081 q 571 1054 608 1054 q 514 1081 532 1054 l 421 1206 q 410 1236 410 1221 q 424 1267 410 1254 q 458 1281 439 1281 q 504 1253 488 1281 l 575 1139 l 672 1258 z "},"Ņ":{"ha":1032,"x_min":92,"x_max":964,"o":"m 900 986 q 947 966 929 986 q 964 915 965 946 l 896 63 q 875 12 893 31 q 826 -7 857 -7 q 767 22 788 -7 l 281 739 l 226 61 q 204 12 224 31 q 156 -7 185 -7 q 108 13 125 -7 q 92 65 90 33 l 160 915 q 181 967 161 947 q 232 986 201 986 q 289 957 269 986 l 775 243 l 828 918 q 850 968 831 950 q 900 986 869 986 m 478 -90 q 541 -114 518 -90 q 564 -179 564 -137 q 546 -267 564 -224 q 494 -343 528 -310 q 454 -362 476 -362 q 429 -355 439 -362 q 419 -333 419 -347 q 431 -308 419 -321 q 472 -232 464 -271 l 471 -232 q 419 -215 439 -232 q 399 -167 399 -199 q 422 -112 399 -133 q 478 -90 444 -90 z "},"Ṅ":{"ha":1032,"x_min":92,"x_max":964,"o":"m 900 986 q 947 966 929 986 q 964 915 965 946 l 896 63 q 875 12 893 31 q 826 -7 857 -7 q 767 22 788 -7 l 281 739 l 226 61 q 204 12 224 31 q 156 -7 185 -7 q 108 13 125 -7 q 92 65 90 33 l 160 915 q 181 967 161 947 q 232 986 201 986 q 289 957 269 986 l 775 243 l 828 918 q 850 968 831 950 q 900 986 869 986 m 582 1089 q 518 1111 542 1089 q 494 1169 494 1133 q 518 1228 494 1207 q 582 1250 542 1250 q 645 1228 621 1250 q 669 1169 669 1207 q 646 1111 669 1133 q 582 1089 622 1089 z "},"Ṇ":{"ha":1032,"x_min":92,"x_max":964,"o":"m 900 986 q 947 966 929 986 q 964 915 965 946 l 896 63 q 875 12 893 31 q 826 -7 857 -7 q 767 22 788 -7 l 281 739 l 226 61 q 204 12 224 31 q 156 -7 185 -7 q 108 13 125 -7 q 92 65 90 33 l 160 915 q 181 967 161 947 q 232 986 201 986 q 289 957 269 986 l 775 243 l 828 918 q 850 968 831 950 q 900 986 869 986 m 475 -267 q 417 -245 439 -267 q 394 -189 394 -224 q 417 -133 394 -154 q 475 -112 439 -112 q 533 -134 510 -112 q 556 -189 556 -156 q 533 -245 556 -224 q 475 -267 511 -267 z "},"Ŋ":{"ha":1032,"x_min":90,"x_max":965,"o":"m 900 986 q 947 966 929 986 q 964 915 965 946 l 893 19 q 622 -254 872 -237 l 575 -257 q 518 -243 538 -258 q 499 -199 499 -228 q 515 -160 500 -174 q 560 -144 531 -146 l 611 -142 q 713 -98 674 -139 q 757 14 751 -57 l 758 35 l 281 739 l 226 61 q 204 12 224 31 q 156 -7 185 -7 q 108 13 125 -7 q 92 65 90 33 l 160 915 q 181 967 161 947 q 232 986 201 986 q 289 957 268 986 l 775 243 l 828 918 q 850 968 831 950 q 900 986 869 986 z "},"ǋ":{"ha":1368,"x_min":92,"x_max":1333,"o":"m 900 986 q 947 966 929 986 q 964 915 965 946 l 896 63 q 875 12 893 31 q 826 -7 857 -7 q 767 22 788 -7 l 281 739 l 226 61 q 204 12 224 31 q 156 -7 185 -7 q 108 13 125 -7 q 92 65 90 33 l 160 915 q 181 967 161 947 q 232 986 201 986 q 289 957 269 986 l 775 243 l 828 918 q 850 968 831 950 q 900 986 869 986 m 944 -254 q 890 -242 910 -256 q 869 -204 869 -229 q 884 -165 869 -181 q 928 -149 899 -150 l 968 -146 q 1065 -106 1032 -142 q 1103 -1 1097 -71 l 1153 625 q 1176 674 1156 657 q 1226 692 1197 692 q 1276 674 1257 692 q 1293 625 1296 657 l 1244 11 q 1169 -178 1235 -114 q 975 -251 1103 -243 l 944 -254 m 1246 828 q 1182 850 1206 828 q 1158 908 1158 872 q 1182 966 1158 944 q 1246 988 1206 988 q 1309 966 1285 988 q 1333 908 1333 944 q 1310 850 1333 872 q 1246 828 1286 828 z "},"Ṉ":{"ha":1032,"x_min":92,"x_max":964,"o":"m 900 986 q 947 966 929 986 q 964 915 965 946 l 896 63 q 875 12 893 31 q 826 -7 857 -7 q 767 22 788 -7 l 281 739 l 226 61 q 204 12 224 31 q 156 -7 185 -7 q 108 13 125 -7 q 92 65 90 33 l 160 915 q 181 967 161 947 q 232 986 201 986 q 289 957 269 986 l 775 243 l 828 918 q 850 968 831 950 q 900 986 869 986 m 304 -236 q 265 -224 279 -236 q 251 -192 251 -211 q 267 -156 251 -168 q 310 -143 283 -143 l 647 -143 q 685 -155 671 -143 q 699 -187 699 -167 q 683 -224 699 -211 q 640 -236 667 -236 l 304 -236 z "},"Ñ":{"ha":1032,"x_min":92,"x_max":964,"o":"m 900 986 q 947 966 929 986 q 964 915 965 946 l 896 63 q 875 12 893 31 q 826 -7 857 -7 q 767 22 788 -7 l 281 739 l 226 61 q 204 12 224 31 q 156 -7 185 -7 q 108 13 125 -7 q 92 65 90 33 l 160 915 q 181 967 161 947 q 232 986 201 986 q 289 957 269 986 l 775 243 l 828 918 q 850 968 831 950 q 900 986 869 986 m 675 1089 q 628 1097 651 1089 q 568 1124 604 1106 q 524 1143 546 1135 q 485 1151 501 1151 q 449 1142 463 1151 q 419 1117 435 1133 q 401 1098 408 1103 q 385 1093 394 1093 q 363 1104 371 1093 q 354 1132 354 1115 q 371 1186 354 1158 q 419 1233 388 1214 q 489 1251 450 1251 q 536 1243 513 1251 q 596 1217 560 1235 q 640 1197 618 1206 q 679 1189 663 1189 q 717 1198 703 1189 q 743 1224 731 1207 q 761 1242 754 1238 q 778 1247 768 1247 q 801 1237 793 1247 q 810 1210 810 1226 q 793 1155 810 1183 q 745 1108 776 1126 q 675 1089 714 1089 z "},"O":{"ha":1071,"x_min":92,"x_max":1003,"o":"m 538 -12 q 299 43 400 -12 q 145 203 199 99 q 92 451 92 308 q 149 736 92 614 q 312 925 207 858 q 556 992 417 992 q 794 936 693 992 q 949 776 894 881 q 1003 528 1003 671 q 945 243 1003 365 q 783 54 888 121 q 538 -12 678 -12 m 538 107 q 708 157 636 107 q 818 302 779 207 q 857 528 857 397 q 779 783 857 694 q 557 872 701 872 q 323 760 408 872 q 238 450 238 647 q 315 196 238 285 q 538 107 393 107 z "},"Ó":{"ha":1071,"x_min":92,"x_max":1003,"o":"m 538 -12 q 299 43 400 -12 q 145 203 199 99 q 92 451 92 308 q 149 736 92 614 q 312 925 207 858 q 556 992 417 992 q 794 936 693 992 q 949 776 894 881 q 1003 528 1003 671 q 945 243 1003 365 q 783 54 888 121 q 538 -12 678 -12 m 538 107 q 708 157 636 107 q 818 302 779 207 q 857 528 857 397 q 779 783 857 694 q 557 872 701 872 q 323 760 408 872 q 238 450 238 647 q 315 196 238 285 q 538 107 393 107 m 646 1072 q 610 1056 628 1056 q 585 1065 594 1056 q 575 1089 575 1075 q 585 1115 575 1101 l 685 1256 q 735 1285 704 1285 q 772 1269 756 1285 q 788 1233 788 1254 q 767 1190 788 1210 l 646 1072 z "},"Ŏ":{"ha":1071,"x_min":92,"x_max":1003,"o":"m 538 -12 q 299 43 400 -12 q 145 203 199 99 q 92 451 92 308 q 149 736 92 614 q 312 925 207 858 q 556 992 417 992 q 794 936 693 992 q 949 776 894 881 q 1003 528 1003 671 q 945 243 1003 365 q 783 54 888 121 q 538 -12 678 -12 m 538 107 q 708 157 636 107 q 818 302 779 207 q 857 528 857 397 q 779 783 857 694 q 557 872 701 872 q 323 760 408 872 q 238 450 238 647 q 315 196 238 285 q 538 107 393 107 m 597 1078 q 470 1108 524 1078 q 389 1193 417 1138 q 381 1221 381 1208 q 393 1249 381 1238 q 424 1260 406 1260 q 467 1238 449 1260 q 601 1171 511 1171 q 743 1238 690 1171 q 790 1260 764 1260 q 818 1250 807 1260 q 829 1225 829 1240 q 818 1193 829 1211 q 726 1108 783 1138 q 597 1078 669 1078 z "},"Ô":{"ha":1071,"x_min":92,"x_max":1003,"o":"m 538 -12 q 299 43 400 -12 q 145 203 199 99 q 92 451 92 308 q 149 736 92 614 q 312 925 207 858 q 556 992 417 992 q 794 936 693 992 q 949 776 894 881 q 1003 528 1003 671 q 945 243 1003 365 q 783 54 888 121 q 538 -12 678 -12 m 538 107 q 708 157 636 107 q 818 302 779 207 q 857 528 857 397 q 779 783 857 694 q 557 872 701 872 q 323 760 408 872 q 238 450 238 647 q 315 196 238 285 q 538 107 393 107 m 508 1079 q 463 1056 489 1056 q 431 1067 444 1056 q 418 1096 418 1079 q 432 1129 418 1114 l 549 1257 q 611 1283 574 1283 q 668 1257 647 1283 l 760 1131 q 771 1100 771 1115 q 757 1069 771 1082 q 724 1056 743 1056 q 678 1085 696 1056 l 607 1199 l 508 1079 z "},"Ố":{"ha":1071,"x_min":92,"x_max":1003,"o":"m 538 -12 q 299 43 400 -12 q 145 203 199 99 q 92 451 92 308 q 149 736 92 614 q 312 925 207 858 q 556 992 417 992 q 794 936 693 992 q 949 776 894 881 q 1003 528 1003 671 q 945 243 1003 365 q 783 54 888 121 q 538 -12 678 -12 m 538 107 q 708 157 636 107 q 818 302 779 207 q 857 528 857 397 q 779 783 857 694 q 557 872 701 872 q 323 760 408 872 q 238 450 238 647 q 315 196 238 285 q 538 107 393 107 m 801 1211 q 774 1200 790 1200 q 751 1209 760 1200 q 742 1231 742 1218 q 750 1254 742 1242 l 847 1388 q 894 1414 867 1414 q 931 1399 915 1414 q 946 1365 946 1385 q 924 1322 946 1340 l 801 1211 m 504 1072 q 468 1054 488 1054 q 437 1067 450 1054 q 424 1099 424 1081 q 439 1132 424 1117 l 550 1247 q 611 1275 578 1275 q 667 1247 643 1275 l 758 1129 q 771 1099 771 1115 q 757 1067 771 1081 q 724 1054 743 1054 q 682 1078 700 1054 l 606 1189 l 504 1072 z "},"Ộ":{"ha":1071,"x_min":92,"x_max":1003,"o":"m 538 -12 q 299 43 400 -12 q 145 203 199 99 q 92 451 92 308 q 149 736 92 614 q 312 925 207 858 q 556 992 417 992 q 794 936 693 992 q 949 776 894 881 q 1003 528 1003 671 q 945 243 1003 365 q 783 54 888 121 q 538 -12 678 -12 m 538 107 q 708 157 636 107 q 818 302 779 207 q 857 528 857 397 q 779 783 857 694 q 557 872 701 872 q 323 760 408 872 q 238 450 238 647 q 315 196 238 285 q 538 107 393 107 m 493 -267 q 435 -245 457 -267 q 413 -189 413 -224 q 435 -133 413 -154 q 493 -112 457 -112 q 551 -134 528 -112 q 574 -189 574 -156 q 551 -245 574 -224 q 493 -267 529 -267 m 508 1079 q 463 1056 489 1056 q 431 1067 444 1056 q 418 1096 418 1079 q 432 1129 418 1114 l 549 1257 q 611 1283 574 1283 q 668 1257 647 1283 l 760 1131 q 771 1100 771 1115 q 757 1069 771 1082 q 724 1056 743 1056 q 678 1085 696 1056 l 607 1199 l 508 1079 z "},"Ồ":{"ha":1071,"x_min":92,"x_max":1003,"o":"m 538 -12 q 299 43 400 -12 q 145 203 199 99 q 92 451 92 308 q 149 736 92 614 q 312 925 207 858 q 556 992 417 992 q 794 936 693 992 q 949 776 894 881 q 1003 528 1003 671 q 945 243 1003 365 q 783 54 888 121 q 538 -12 678 -12 m 538 107 q 708 157 636 107 q 818 302 779 207 q 857 528 857 397 q 779 783 857 694 q 557 872 701 872 q 323 760 408 872 q 238 450 238 647 q 315 196 238 285 q 538 107 393 107 m 824 1225 q 812 1212 819 1217 q 796 1207 804 1207 q 774 1216 782 1207 q 768 1239 765 1225 l 756 1363 q 769 1396 757 1385 q 797 1407 781 1407 q 829 1394 815 1407 q 843 1363 843 1382 q 840 1347 843 1358 l 824 1225 m 504 1072 q 468 1054 488 1054 q 437 1067 450 1054 q 424 1099 424 1081 q 439 1132 424 1117 l 550 1247 q 611 1275 578 1275 q 667 1247 643 1275 l 758 1129 q 771 1099 771 1115 q 757 1067 771 1081 q 724 1054 743 1054 q 682 1078 700 1054 l 606 1189 l 504 1072 z "},"Ổ":{"ha":1071,"x_min":92,"x_max":1003,"o":"m 538 -12 q 299 43 400 -12 q 145 203 199 99 q 92 451 92 308 q 149 736 92 614 q 312 925 207 858 q 556 992 417 992 q 794 936 693 992 q 949 776 894 881 q 1003 528 1003 671 q 945 243 1003 365 q 783 54 888 121 q 538 -12 678 -12 m 538 107 q 708 157 636 107 q 818 302 779 207 q 857 528 857 397 q 779 783 857 694 q 557 872 701 872 q 323 760 408 872 q 238 450 238 647 q 315 196 238 285 q 538 107 393 107 m 808 1225 q 794 1208 806 1214 q 768 1201 782 1201 q 740 1210 751 1201 q 729 1233 729 1218 q 746 1271 729 1257 q 792 1296 763 1285 q 818 1310 810 1304 q 826 1322 826 1315 q 776 1342 826 1342 q 703 1333 756 1342 q 674 1339 685 1331 q 663 1361 663 1347 q 689 1394 663 1385 q 792 1411 729 1411 q 891 1390 856 1411 q 926 1333 926 1368 q 908 1289 926 1304 q 856 1260 890 1274 q 822 1243 833 1250 q 808 1225 811 1236 m 504 1072 q 468 1054 488 1054 q 437 1067 450 1054 q 424 1099 424 1081 q 439 1132 424 1117 l 550 1247 q 611 1275 578 1275 q 667 1247 643 1275 l 758 1129 q 771 1099 771 1115 q 757 1067 771 1081 q 724 1054 743 1054 q 682 1078 700 1054 l 606 1189 l 504 1072 z "},"Ỗ":{"ha":1071,"x_min":92,"x_max":1003,"o":"m 538 -12 q 299 43 400 -12 q 145 203 199 99 q 92 451 92 308 q 149 736 92 614 q 312 925 207 858 q 556 992 417 992 q 794 936 693 992 q 949 776 894 881 q 1003 528 1003 671 q 945 243 1003 365 q 783 54 888 121 q 538 -12 678 -12 m 538 107 q 708 157 636 107 q 818 302 779 207 q 857 528 857 397 q 779 783 857 694 q 557 872 701 872 q 323 760 408 872 q 238 450 238 647 q 315 196 238 285 q 538 107 393 107 m 419 1288 q 389 1322 389 1288 q 406 1367 389 1343 q 454 1407 424 1390 q 521 1424 485 1424 q 572 1416 546 1424 q 635 1394 599 1408 q 679 1378 657 1385 q 717 1371 701 1371 q 749 1378 736 1371 q 776 1401 761 1386 q 811 1422 794 1422 q 835 1413 826 1422 q 843 1388 843 1403 q 825 1343 843 1367 q 776 1303 807 1319 q 710 1286 746 1286 q 599 1315 671 1286 q 564 1328 592 1318 q 515 1338 536 1338 q 482 1330 494 1338 q 456 1308 469 1322 q 437 1292 444 1297 q 419 1288 429 1288 m 504 1072 q 468 1054 488 1054 q 437 1067 450 1054 q 424 1099 424 1081 q 439 1132 424 1117 l 550 1247 q 611 1275 578 1275 q 667 1247 643 1275 l 758 1129 q 771 1099 771 1115 q 757 1067 771 1081 q 724 1054 743 1054 q 682 1078 700 1054 l 606 1189 l 504 1072 z "},"Ȍ":{"ha":1071,"x_min":92,"x_max":1003,"o":"m 538 -12 q 299 43 400 -12 q 145 203 199 99 q 92 451 92 308 q 149 736 92 614 q 312 925 207 858 q 556 992 417 992 q 794 936 693 992 q 949 776 894 881 q 1003 528 1003 671 q 945 243 1003 365 q 783 54 888 121 q 538 -12 678 -12 m 538 107 q 708 157 636 107 q 818 302 779 207 q 857 528 857 397 q 779 783 857 694 q 557 872 701 872 q 323 760 408 872 q 238 450 238 647 q 315 196 238 285 q 538 107 393 107 m 385 1208 q 376 1236 376 1224 q 391 1269 376 1256 q 425 1283 406 1283 q 451 1274 439 1283 q 469 1246 463 1265 l 524 1103 q 526 1089 526 1092 q 517 1066 526 1075 q 494 1057 507 1057 q 465 1075 478 1057 l 385 1208 m 558 1208 q 550 1236 550 1224 q 565 1269 550 1256 q 599 1283 579 1283 q 644 1246 631 1283 l 699 1103 q 701 1089 701 1094 q 692 1065 701 1075 q 669 1056 682 1056 q 639 1075 650 1056 l 558 1208 z "},"Ö":{"ha":1071,"x_min":92,"x_max":1003,"o":"m 538 -12 q 299 43 400 -12 q 145 203 199 99 q 92 451 92 308 q 149 736 92 614 q 312 925 207 858 q 556 992 417 992 q 794 936 693 992 q 949 776 894 881 q 1003 528 1003 671 q 945 243 1003 365 q 783 54 888 121 q 538 -12 678 -12 m 538 107 q 708 157 636 107 q 818 302 779 207 q 857 528 857 397 q 779 783 857 694 q 557 872 701 872 q 323 760 408 872 q 238 450 238 647 q 315 196 238 285 q 538 107 393 107 m 479 1094 q 422 1115 444 1094 q 400 1169 400 1136 q 422 1225 400 1204 q 479 1246 444 1246 q 535 1224 513 1246 q 558 1169 558 1203 q 536 1115 558 1136 q 479 1094 514 1094 m 724 1094 q 668 1115 690 1094 q 646 1169 646 1136 q 668 1224 646 1203 q 724 1246 690 1246 q 781 1225 758 1246 q 803 1169 803 1204 q 781 1115 803 1136 q 724 1094 758 1094 z "},"Ȫ":{"ha":1071,"x_min":92,"x_max":1003,"o":"m 538 -12 q 299 43 400 -12 q 145 203 199 99 q 92 451 92 308 q 149 736 92 614 q 312 925 207 858 q 556 992 417 992 q 794 936 693 992 q 949 776 894 881 q 1003 528 1003 671 q 945 243 1003 365 q 783 54 888 121 q 538 -12 678 -12 m 538 107 q 708 157 636 107 q 818 302 779 207 q 857 528 857 397 q 779 783 857 694 q 557 872 701 872 q 323 760 408 872 q 238 450 238 647 q 315 196 238 285 q 538 107 393 107 m 479 1094 q 422 1115 444 1094 q 400 1169 400 1136 q 422 1225 400 1204 q 479 1246 444 1246 q 535 1224 513 1246 q 558 1169 558 1203 q 536 1115 558 1136 q 479 1094 514 1094 m 724 1094 q 668 1115 690 1094 q 646 1169 646 1136 q 668 1224 646 1203 q 724 1246 690 1246 q 781 1225 758 1246 q 803 1169 803 1204 q 781 1115 803 1136 q 724 1094 758 1094 m 447 1343 q 410 1356 424 1343 q 396 1390 396 1368 q 412 1427 396 1414 q 454 1440 428 1440 l 792 1440 q 829 1427 815 1440 q 843 1392 843 1414 q 827 1356 843 1368 q 785 1343 811 1343 l 447 1343 z "},"Ȱ":{"ha":1071,"x_min":92,"x_max":1003,"o":"m 538 -12 q 299 43 400 -12 q 145 203 199 99 q 92 451 92 308 q 149 736 92 614 q 312 925 207 858 q 556 992 417 992 q 794 936 693 992 q 949 776 894 881 q 1003 528 1003 671 q 945 243 1003 365 q 783 54 888 121 q 538 -12 678 -12 m 538 107 q 708 157 636 107 q 818 302 779 207 q 857 528 857 397 q 779 783 857 694 q 557 872 701 872 q 323 760 408 872 q 238 450 238 647 q 315 196 238 285 q 538 107 393 107 m 601 1089 q 538 1111 561 1089 q 514 1169 514 1133 q 538 1228 514 1207 q 601 1250 561 1250 q 665 1228 640 1250 q 689 1169 689 1207 q 665 1111 689 1133 q 601 1089 642 1089 m 447 1343 q 410 1356 424 1343 q 396 1390 396 1368 q 412 1427 396 1414 q 454 1440 428 1440 l 792 1440 q 829 1427 815 1440 q 843 1392 843 1414 q 827 1356 843 1368 q 785 1343 811 1343 l 447 1343 z "},"Ọ":{"ha":1071,"x_min":92,"x_max":1003,"o":"m 538 -12 q 299 43 400 -12 q 145 203 199 99 q 92 451 92 308 q 149 736 92 614 q 312 925 207 858 q 556 992 417 992 q 794 936 693 992 q 949 776 894 881 q 1003 528 1003 671 q 945 243 1003 365 q 783 54 888 121 q 538 -12 678 -12 m 538 107 q 708 157 636 107 q 818 302 779 207 q 857 528 857 397 q 779 783 857 694 q 557 872 701 872 q 323 760 408 872 q 238 450 238 647 q 315 196 238 285 q 538 107 393 107 m 493 -267 q 435 -245 457 -267 q 413 -189 413 -224 q 435 -133 413 -154 q 493 -112 457 -112 q 551 -134 528 -112 q 574 -189 574 -156 q 551 -245 574 -224 q 493 -267 529 -267 z "},"Ò":{"ha":1071,"x_min":92,"x_max":1003,"o":"m 538 -12 q 299 43 400 -12 q 145 203 199 99 q 92 451 92 308 q 149 736 92 614 q 312 925 207 858 q 556 992 417 992 q 794 936 693 992 q 949 776 894 881 q 1003 528 1003 671 q 945 243 1003 365 q 783 54 888 121 q 538 -12 678 -12 m 538 107 q 708 157 636 107 q 818 302 779 207 q 857 528 857 397 q 779 783 857 694 q 557 872 701 872 q 323 760 408 872 q 238 450 238 647 q 315 196 238 285 q 538 107 393 107 m 436 1199 q 421 1236 421 1215 q 438 1272 421 1257 q 475 1286 454 1286 q 524 1254 506 1286 l 607 1110 q 613 1089 613 1100 q 601 1065 613 1075 q 575 1056 590 1056 q 540 1072 553 1056 l 436 1199 z "},"Ỏ":{"ha":1071,"x_min":92,"x_max":1003,"o":"m 538 -12 q 299 43 400 -12 q 145 203 199 99 q 92 451 92 308 q 149 736 92 614 q 312 925 207 858 q 556 992 417 992 q 794 936 693 992 q 949 776 894 881 q 1003 528 1003 671 q 945 243 1003 365 q 783 54 888 121 q 538 -12 678 -12 m 538 107 q 708 157 636 107 q 818 302 779 207 q 857 528 857 397 q 779 783 857 694 q 557 872 701 872 q 323 760 408 872 q 238 450 238 647 q 315 196 238 285 q 538 107 393 107 m 638 1082 q 622 1063 633 1069 q 596 1056 610 1056 q 567 1065 579 1056 q 556 1089 556 1074 q 572 1128 556 1114 q 615 1154 588 1142 q 644 1171 635 1164 q 653 1188 653 1178 q 604 1210 653 1210 q 531 1199 572 1210 q 501 1204 513 1194 q 490 1228 490 1214 q 498 1249 490 1239 q 518 1264 506 1258 q 619 1281 558 1281 q 718 1258 682 1281 q 754 1199 754 1235 q 738 1153 754 1168 q 686 1122 721 1139 q 651 1102 663 1110 q 638 1082 640 1094 z "},"Ơ":{"ha":1071,"x_min":92,"x_max":1051,"o":"m 847 901 q 961 750 919 844 q 1003 528 1003 656 q 945 243 1003 365 q 783 54 888 121 q 538 -12 678 -12 q 299 43 400 -12 q 145 203 199 99 q 92 451 92 308 q 149 736 92 614 q 315 925 207 858 q 569 992 424 992 q 672 986 606 992 q 774 979 725 979 q 885 1010 853 979 q 928 1122 918 1042 q 949 1167 932 1151 q 994 1183 965 1183 q 1051 1121 1051 1183 q 997 970 1051 1031 q 847 901 943 910 m 538 107 q 708 157 636 107 q 818 302 779 207 q 857 528 857 397 q 779 783 857 694 q 557 872 701 872 q 323 760 408 872 q 238 450 238 647 q 315 196 238 285 q 538 107 393 107 z "},"Ớ":{"ha":1071,"x_min":92,"x_max":1051,"o":"m 847 901 q 961 750 919 844 q 1003 528 1003 656 q 945 243 1003 365 q 783 54 888 121 q 538 -12 678 -12 q 299 43 400 -12 q 145 203 199 99 q 92 451 92 308 q 149 736 92 614 q 315 925 207 858 q 569 992 424 992 q 672 986 606 992 q 774 979 725 979 q 885 1010 853 979 q 928 1122 918 1042 q 949 1167 932 1151 q 994 1183 965 1183 q 1051 1121 1051 1183 q 997 970 1051 1031 q 847 901 943 910 m 538 107 q 708 157 636 107 q 818 302 779 207 q 857 528 857 397 q 779 783 857 694 q 557 872 701 872 q 323 760 408 872 q 238 450 238 647 q 315 196 238 285 q 538 107 393 107 m 646 1072 q 610 1056 628 1056 q 585 1065 594 1056 q 575 1089 575 1075 q 585 1115 575 1101 l 685 1256 q 735 1285 704 1285 q 772 1269 756 1285 q 788 1233 788 1254 q 767 1190 788 1210 l 646 1072 z "},"Ợ":{"ha":1071,"x_min":92,"x_max":1051,"o":"m 847 901 q 961 750 919 844 q 1003 528 1003 656 q 945 243 1003 365 q 783 54 888 121 q 538 -12 678 -12 q 299 43 400 -12 q 145 203 199 99 q 92 451 92 308 q 149 736 92 614 q 315 925 207 858 q 569 992 424 992 q 672 986 606 992 q 774 979 725 979 q 885 1010 853 979 q 928 1122 918 1042 q 949 1167 932 1151 q 994 1183 965 1183 q 1051 1121 1051 1183 q 997 970 1051 1031 q 847 901 943 910 m 538 107 q 708 157 636 107 q 818 302 779 207 q 857 528 857 397 q 779 783 857 694 q 557 872 701 872 q 323 760 408 872 q 238 450 238 647 q 315 196 238 285 q 538 107 393 107 m 494 -267 q 436 -245 458 -267 q 414 -189 414 -224 q 436 -133 414 -154 q 494 -112 458 -112 q 552 -134 529 -112 q 575 -189 575 -156 q 553 -245 575 -224 q 494 -267 531 -267 z "},"Ờ":{"ha":1071,"x_min":92,"x_max":1051,"o":"m 847 901 q 961 750 919 844 q 1003 528 1003 656 q 945 243 1003 365 q 783 54 888 121 q 538 -12 678 -12 q 299 43 400 -12 q 145 203 199 99 q 92 451 92 308 q 149 736 92 614 q 315 925 207 858 q 569 992 424 992 q 672 986 606 992 q 774 979 725 979 q 885 1010 853 979 q 928 1122 918 1042 q 949 1167 932 1151 q 994 1183 965 1183 q 1051 1121 1051 1183 q 997 970 1051 1031 q 847 901 943 910 m 538 107 q 708 157 636 107 q 818 302 779 207 q 857 528 857 397 q 779 783 857 694 q 557 872 701 872 q 323 760 408 872 q 238 450 238 647 q 315 196 238 285 q 538 107 393 107 m 436 1199 q 421 1236 421 1215 q 438 1272 421 1257 q 475 1286 454 1286 q 524 1254 506 1286 l 607 1110 q 613 1089 613 1100 q 601 1065 613 1075 q 575 1056 590 1056 q 540 1072 553 1056 l 436 1199 z "},"Ở":{"ha":1071,"x_min":92,"x_max":1051,"o":"m 847 901 q 961 750 919 844 q 1003 528 1003 656 q 945 243 1003 365 q 783 54 888 121 q 538 -12 678 -12 q 299 43 400 -12 q 145 203 199 99 q 92 451 92 308 q 149 736 92 614 q 315 925 207 858 q 569 992 424 992 q 672 986 606 992 q 774 979 725 979 q 885 1010 853 979 q 928 1122 918 1042 q 949 1167 932 1151 q 994 1183 965 1183 q 1051 1121 1051 1183 q 997 970 1051 1031 q 847 901 943 910 m 538 107 q 708 157 636 107 q 818 302 779 207 q 857 528 857 397 q 779 783 857 694 q 557 872 701 872 q 323 760 408 872 q 238 450 238 647 q 315 196 238 285 q 538 107 393 107 m 638 1082 q 622 1063 633 1069 q 596 1056 610 1056 q 567 1065 579 1056 q 556 1089 556 1074 q 572 1128 556 1114 q 615 1154 588 1142 q 644 1171 635 1164 q 653 1188 653 1178 q 604 1210 653 1210 q 531 1199 572 1210 q 501 1204 513 1194 q 490 1228 490 1214 q 498 1249 490 1239 q 518 1264 506 1258 q 619 1281 558 1281 q 718 1258 682 1281 q 754 1199 754 1235 q 738 1153 754 1168 q 686 1122 721 1139 q 651 1102 663 1110 q 638 1082 640 1094 z "},"Ỡ":{"ha":1071,"x_min":92,"x_max":1051,"o":"m 847 901 q 961 750 919 844 q 1003 528 1003 656 q 945 243 1003 365 q 783 54 888 121 q 538 -12 678 -12 q 299 43 400 -12 q 145 203 199 99 q 92 451 92 308 q 149 736 92 614 q 315 925 207 858 q 569 992 424 992 q 672 986 606 992 q 774 979 725 979 q 885 1010 853 979 q 928 1122 918 1042 q 949 1167 932 1151 q 994 1183 965 1183 q 1051 1121 1051 1183 q 997 970 1051 1031 q 847 901 943 910 m 538 107 q 708 157 636 107 q 818 302 779 207 q 857 528 857 397 q 779 783 857 694 q 557 872 701 872 q 323 760 408 872 q 238 450 238 647 q 315 196 238 285 q 538 107 393 107 m 694 1089 q 647 1097 671 1089 q 588 1124 624 1106 q 543 1143 565 1135 q 504 1151 521 1151 q 468 1142 482 1151 q 439 1117 454 1133 q 421 1098 428 1103 q 404 1093 414 1093 q 382 1104 390 1093 q 374 1132 374 1115 q 390 1186 374 1158 q 438 1233 407 1214 q 508 1251 469 1251 q 556 1243 532 1251 q 615 1217 579 1235 q 660 1197 638 1206 q 699 1189 682 1189 q 736 1198 722 1189 q 763 1224 750 1207 q 781 1242 774 1238 q 797 1247 788 1247 q 821 1237 813 1247 q 829 1210 829 1226 q 813 1155 829 1183 q 765 1108 796 1126 q 694 1089 733 1089 z "},"Ő":{"ha":1071,"x_min":92,"x_max":1003,"o":"m 538 -12 q 299 43 400 -12 q 145 203 199 99 q 92 451 92 308 q 149 736 92 614 q 312 925 207 858 q 556 992 417 992 q 794 936 693 992 q 949 776 894 881 q 1003 528 1003 671 q 945 243 1003 365 q 783 54 888 121 q 538 -12 678 -12 m 538 107 q 708 157 636 107 q 818 302 779 207 q 857 528 857 397 q 779 783 857 694 q 557 872 701 872 q 323 760 408 872 q 238 450 238 647 q 315 196 238 285 q 538 107 393 107 m 544 1074 q 514 1057 532 1057 q 496 1064 503 1057 q 489 1082 489 1071 q 493 1100 489 1090 l 567 1249 q 615 1283 583 1283 q 647 1270 633 1283 q 660 1239 660 1257 q 646 1204 660 1222 l 544 1074 m 718 1074 q 688 1057 706 1057 q 669 1064 676 1057 q 663 1083 663 1071 q 667 1100 663 1092 l 742 1249 q 789 1283 760 1283 q 820 1270 807 1283 q 833 1239 833 1257 q 819 1204 833 1222 l 718 1074 z "},"Ȏ":{"ha":1071,"x_min":92,"x_max":1003,"o":"m 538 -12 q 299 43 400 -12 q 145 203 199 99 q 92 451 92 308 q 149 736 92 614 q 312 925 207 858 q 556 992 417 992 q 794 936 693 992 q 949 776 894 881 q 1003 528 1003 671 q 945 243 1003 365 q 783 54 888 121 q 538 -12 678 -12 m 538 107 q 708 157 636 107 q 818 302 779 207 q 857 528 857 397 q 779 783 857 694 q 557 872 701 872 q 323 760 408 872 q 238 450 238 647 q 315 196 238 285 q 538 107 393 107 m 603 1261 q 731 1231 676 1261 q 813 1146 785 1201 q 819 1119 819 1133 q 807 1090 819 1101 q 776 1079 794 1079 q 733 1101 751 1079 q 600 1168 689 1168 q 458 1101 514 1168 q 411 1079 438 1079 q 383 1089 394 1079 q 372 1114 372 1099 q 383 1146 372 1128 q 475 1231 418 1201 q 603 1261 532 1261 z "},"Ō":{"ha":1071,"x_min":92,"x_max":1003,"o":"m 538 -12 q 299 43 400 -12 q 145 203 199 99 q 92 451 92 308 q 149 736 92 614 q 312 925 207 858 q 556 992 417 992 q 794 936 693 992 q 949 776 894 881 q 1003 528 1003 671 q 945 243 1003 365 q 783 54 888 121 q 538 -12 678 -12 m 538 107 q 708 157 636 107 q 818 302 779 207 q 857 528 857 397 q 779 783 857 694 q 557 872 701 872 q 323 760 408 872 q 238 450 238 647 q 315 196 238 285 q 538 107 393 107 m 429 1121 q 392 1133 406 1121 q 378 1168 378 1146 q 394 1205 378 1192 q 436 1218 410 1218 l 774 1218 q 811 1205 797 1218 q 825 1169 825 1192 q 809 1133 825 1146 q 767 1121 793 1121 l 429 1121 z "},"Ṓ":{"ha":1071,"x_min":92,"x_max":1003,"o":"m 538 -12 q 299 43 400 -12 q 145 203 199 99 q 92 451 92 308 q 149 736 92 614 q 312 925 207 858 q 556 992 417 992 q 794 936 693 992 q 949 776 894 881 q 1003 528 1003 671 q 945 243 1003 365 q 783 54 888 121 q 538 -12 678 -12 m 538 107 q 708 157 636 107 q 818 302 779 207 q 857 528 857 397 q 779 783 857 694 q 557 872 701 872 q 323 760 408 872 q 238 450 238 647 q 315 196 238 285 q 538 107 393 107 m 429 1121 q 392 1133 406 1121 q 378 1168 378 1146 q 394 1205 378 1192 q 436 1218 410 1218 l 774 1218 q 811 1205 797 1218 q 825 1169 825 1192 q 809 1133 825 1146 q 767 1121 793 1121 l 429 1121 m 664 1294 q 628 1278 646 1278 q 603 1288 613 1278 q 593 1311 593 1297 q 603 1338 593 1324 l 703 1478 q 753 1507 722 1507 q 790 1492 774 1507 q 806 1456 806 1476 q 785 1413 806 1432 l 664 1294 z "},"Ṑ":{"ha":1071,"x_min":92,"x_max":1003,"o":"m 538 -12 q 299 43 400 -12 q 145 203 199 99 q 92 451 92 308 q 149 736 92 614 q 312 925 207 858 q 556 992 417 992 q 794 936 693 992 q 949 776 894 881 q 1003 528 1003 671 q 945 243 1003 365 q 783 54 888 121 q 538 -12 678 -12 m 538 107 q 708 157 636 107 q 818 302 779 207 q 857 528 857 397 q 779 783 857 694 q 557 872 701 872 q 323 760 408 872 q 238 450 238 647 q 315 196 238 285 q 538 107 393 107 m 429 1121 q 392 1133 406 1121 q 378 1168 378 1146 q 394 1205 378 1192 q 436 1218 410 1218 l 774 1218 q 811 1205 797 1218 q 825 1169 825 1192 q 809 1133 825 1146 q 767 1121 793 1121 l 429 1121 m 454 1421 q 439 1458 439 1438 q 456 1494 439 1479 q 493 1508 472 1508 q 542 1476 524 1508 l 625 1332 q 631 1311 631 1322 q 619 1288 631 1297 q 593 1278 608 1278 q 558 1294 571 1278 l 454 1421 z "},"Ǫ":{"ha":1071,"x_min":92,"x_max":1003,"o":"m 651 0 q 542 -107 542 -25 q 563 -165 542 -144 q 622 -186 585 -186 q 686 -171 644 -186 q 703 -168 692 -168 q 723 -177 715 -168 q 731 -199 731 -186 q 724 -223 731 -211 q 704 -242 717 -235 q 601 -269 657 -269 q 483 -231 528 -269 q 439 -128 439 -192 q 490 -10 439 -57 q 278 55 368 -3 q 140 214 189 113 q 92 451 92 315 q 149 736 92 614 q 312 925 207 858 q 556 992 417 992 q 795 936 694 992 q 949 776 896 881 q 1003 528 1003 671 q 958 271 1003 382 q 833 92 913 160 q 651 0 754 24 m 538 107 q 708 157 636 107 q 818 302 779 207 q 857 528 857 397 q 779 783 857 694 q 557 872 701 872 q 323 760 408 872 q 238 450 238 647 q 315 196 238 285 q 538 107 393 107 z "},"Ø":{"ha":1071,"x_min":92,"x_max":1003,"o":"m 872 879 q 969 729 936 818 q 1003 528 1003 640 q 945 243 1003 365 q 783 54 888 121 q 538 -12 678 -12 q 313 36 410 -12 l 265 -35 q 215 -64 246 -64 q 178 -49 194 -64 q 163 -12 163 -33 q 174 24 163 7 l 224 99 q 126 249 160 160 q 92 451 92 338 q 149 736 92 614 q 312 925 207 858 q 556 992 417 992 q 783 942 688 992 l 831 1014 q 881 1043 850 1043 q 917 1028 901 1043 q 933 992 933 1013 q 922 956 933 972 l 872 879 m 238 450 q 300 214 238 304 l 713 836 q 557 872 647 872 q 323 760 408 872 q 238 450 238 647 m 538 107 q 708 157 636 107 q 818 302 779 207 q 857 528 857 397 q 794 764 857 676 l 382 142 q 538 107 449 107 z "},"Ǿ":{"ha":1071,"x_min":92,"x_max":1003,"o":"m 872 879 q 969 729 936 818 q 1003 528 1003 640 q 945 243 1003 365 q 783 54 888 121 q 538 -12 678 -12 q 313 36 410 -12 l 265 -35 q 215 -64 246 -64 q 178 -49 194 -64 q 163 -12 163 -33 q 174 24 163 7 l 224 99 q 126 249 160 160 q 92 451 92 338 q 149 736 92 614 q 312 925 207 858 q 556 992 417 992 q 783 942 688 992 l 831 1014 q 881 1043 850 1043 q 917 1028 901 1043 q 933 992 933 1013 q 922 956 933 972 l 872 879 m 238 450 q 300 214 238 304 l 713 836 q 557 872 647 872 q 323 760 408 872 q 238 450 238 647 m 538 107 q 708 157 636 107 q 818 302 779 207 q 857 528 857 397 q 794 764 857 676 l 382 142 q 538 107 449 107 m 646 1072 q 610 1056 628 1056 q 585 1065 594 1056 q 575 1089 575 1075 q 585 1115 575 1101 l 685 1256 q 735 1285 704 1285 q 772 1269 756 1285 q 788 1233 788 1254 q 767 1190 788 1210 l 646 1072 z "},"Õ":{"ha":1071,"x_min":92,"x_max":1003,"o":"m 538 -12 q 299 43 400 -12 q 145 203 199 99 q 92 451 92 308 q 149 736 92 614 q 312 925 207 858 q 556 992 417 992 q 794 936 693 992 q 949 776 894 881 q 1003 528 1003 671 q 945 243 1003 365 q 783 54 888 121 q 538 -12 678 -12 m 538 107 q 708 157 636 107 q 818 302 779 207 q 857 528 857 397 q 779 783 857 694 q 557 872 701 872 q 323 760 408 872 q 238 450 238 647 q 315 196 238 285 q 538 107 393 107 m 694 1089 q 647 1097 671 1089 q 588 1124 624 1106 q 543 1143 565 1135 q 504 1151 521 1151 q 468 1142 482 1151 q 439 1117 454 1133 q 421 1098 428 1103 q 404 1093 414 1093 q 382 1104 390 1093 q 374 1132 374 1115 q 390 1186 374 1158 q 438 1233 407 1214 q 508 1251 469 1251 q 556 1243 532 1251 q 615 1217 579 1235 q 660 1197 638 1206 q 699 1189 682 1189 q 736 1198 722 1189 q 763 1224 750 1207 q 781 1242 774 1238 q 797 1247 788 1247 q 821 1237 813 1247 q 829 1210 829 1226 q 813 1155 829 1183 q 765 1108 796 1126 q 694 1089 733 1089 z "},"Ṍ":{"ha":1071,"x_min":92,"x_max":1003,"o":"m 538 -12 q 299 43 400 -12 q 145 203 199 99 q 92 451 92 308 q 149 736 92 614 q 312 925 207 858 q 556 992 417 992 q 794 936 693 992 q 949 776 894 881 q 1003 528 1003 671 q 945 243 1003 365 q 783 54 888 121 q 538 -12 678 -12 m 538 107 q 708 157 636 107 q 818 302 779 207 q 857 528 857 397 q 779 783 857 694 q 557 872 701 872 q 323 760 408 872 q 238 450 238 647 q 315 196 238 285 q 538 107 393 107 m 694 1089 q 647 1097 671 1089 q 588 1124 624 1106 q 543 1143 565 1135 q 504 1151 521 1151 q 468 1142 482 1151 q 439 1117 454 1133 q 421 1098 428 1103 q 404 1093 414 1093 q 382 1104 390 1093 q 374 1132 374 1115 q 390 1186 374 1158 q 438 1233 407 1214 q 508 1251 469 1251 q 556 1243 532 1251 q 615 1217 579 1235 q 660 1197 638 1206 q 699 1189 682 1189 q 736 1198 722 1189 q 763 1224 750 1207 q 781 1242 774 1238 q 797 1247 788 1247 q 821 1237 813 1247 q 829 1210 829 1226 q 813 1155 829 1183 q 765 1108 796 1126 q 694 1089 733 1089 m 664 1294 q 628 1278 646 1278 q 603 1288 613 1278 q 593 1311 593 1297 q 603 1338 593 1324 l 703 1478 q 753 1507 722 1507 q 790 1492 774 1507 q 806 1456 806 1476 q 785 1413 806 1432 l 664 1294 z "},"Ṏ":{"ha":1071,"x_min":92,"x_max":1003,"o":"m 538 -12 q 299 43 400 -12 q 145 203 199 99 q 92 451 92 308 q 149 736 92 614 q 312 925 207 858 q 556 992 417 992 q 794 936 693 992 q 949 776 894 881 q 1003 528 1003 671 q 945 243 1003 365 q 783 54 888 121 q 538 -12 678 -12 m 538 107 q 708 157 636 107 q 818 302 779 207 q 857 528 857 397 q 779 783 857 694 q 557 872 701 872 q 323 760 408 872 q 238 450 238 647 q 315 196 238 285 q 538 107 393 107 m 694 1089 q 647 1097 671 1089 q 588 1124 624 1106 q 543 1143 565 1135 q 504 1151 521 1151 q 468 1142 482 1151 q 439 1117 454 1133 q 421 1098 428 1103 q 404 1093 414 1093 q 382 1104 390 1093 q 374 1132 374 1115 q 390 1186 374 1158 q 438 1233 407 1214 q 508 1251 469 1251 q 556 1243 532 1251 q 615 1217 579 1235 q 660 1197 638 1206 q 699 1189 682 1189 q 736 1198 722 1189 q 763 1224 750 1207 q 781 1242 774 1238 q 797 1247 788 1247 q 821 1237 813 1247 q 829 1210 829 1226 q 813 1155 829 1183 q 765 1108 796 1126 q 694 1089 733 1089 m 497 1317 q 440 1338 463 1317 q 418 1392 418 1358 q 440 1447 418 1426 q 497 1468 463 1468 q 553 1447 531 1468 q 576 1392 576 1425 q 554 1338 576 1358 q 497 1317 532 1317 m 742 1317 q 686 1338 708 1317 q 664 1392 664 1358 q 686 1447 664 1425 q 742 1468 708 1468 q 799 1447 776 1468 q 821 1392 821 1426 q 799 1338 821 1358 q 742 1317 776 1317 z "},"Ȭ":{"ha":1071,"x_min":92,"x_max":1003,"o":"m 538 -12 q 299 43 400 -12 q 145 203 199 99 q 92 451 92 308 q 149 736 92 614 q 312 925 207 858 q 556 992 417 992 q 794 936 693 992 q 949 776 894 881 q 1003 528 1003 671 q 945 243 1003 365 q 783 54 888 121 q 538 -12 678 -12 m 538 107 q 708 157 636 107 q 818 302 779 207 q 857 528 857 397 q 779 783 857 694 q 557 872 701 872 q 323 760 408 872 q 238 450 238 647 q 315 196 238 285 q 538 107 393 107 m 694 1089 q 647 1097 671 1089 q 588 1124 624 1106 q 543 1143 565 1135 q 504 1151 521 1151 q 468 1142 482 1151 q 439 1117 454 1133 q 421 1098 428 1103 q 404 1093 414 1093 q 382 1104 390 1093 q 374 1132 374 1115 q 390 1186 374 1158 q 438 1233 407 1214 q 508 1251 469 1251 q 556 1243 532 1251 q 615 1217 579 1235 q 660 1197 638 1206 q 699 1189 682 1189 q 736 1198 722 1189 q 763 1224 750 1207 q 781 1242 774 1238 q 797 1247 788 1247 q 821 1237 813 1247 q 829 1210 829 1226 q 813 1155 829 1183 q 765 1108 796 1126 q 694 1089 733 1089 m 447 1343 q 410 1356 424 1343 q 396 1390 396 1368 q 412 1427 396 1414 q 454 1440 428 1440 l 792 1440 q 829 1427 815 1440 q 843 1392 843 1414 q 827 1356 843 1368 q 785 1343 811 1343 l 447 1343 z "},"Œ":{"ha":1451,"x_min":92,"x_max":1449,"o":"m 935 864 l 910 556 l 1324 556 q 1371 540 1354 556 q 1388 500 1388 525 q 1369 456 1388 472 q 1318 439 1351 439 l 901 439 l 875 115 l 1317 115 q 1364 100 1347 115 q 1381 60 1381 85 q 1363 16 1381 32 q 1311 0 1344 0 l 556 0 q 213 119 335 0 q 92 451 92 239 q 151 735 92 617 q 326 916 211 853 q 601 979 440 979 l 1385 979 q 1432 964 1415 979 q 1449 924 1449 949 q 1431 879 1449 894 q 1378 864 1413 864 l 935 864 m 794 864 l 611 864 q 331 758 425 864 q 238 450 238 651 q 322 201 238 286 q 569 115 406 115 l 735 115 l 794 864 z "},"P":{"ha":906,"x_min":90,"x_max":876,"o":"m 560 979 q 794 906 711 979 q 876 704 876 832 q 784 472 876 551 q 526 392 692 392 l 261 392 l 236 63 q 213 12 233 31 q 160 -7 192 -7 q 109 13 128 -7 q 92 65 90 32 l 160 911 q 181 962 161 944 q 233 979 200 979 l 560 979 m 517 507 q 739 697 739 507 q 544 864 739 864 l 299 864 l 271 507 l 517 507 z "},"Þ":{"ha":906,"x_min":90,"x_max":861,"o":"m 561 769 q 783 703 704 769 q 861 514 861 638 q 776 302 861 378 q 533 226 692 226 l 247 226 l 235 63 q 212 12 232 31 q 160 -7 192 -7 q 109 13 128 -7 q 93 65 90 32 l 160 917 q 182 967 161 949 q 235 986 203 986 q 285 967 267 986 q 301 914 303 947 l 290 769 l 561 769 m 524 340 q 724 507 724 340 q 680 619 724 583 q 547 654 636 654 l 281 654 l 257 340 l 524 340 z "},"Q":{"ha":1071,"x_min":92,"x_max":1003,"o":"m 1003 528 q 927 207 1003 340 q 711 19 851 74 q 756 -12 736 10 q 797 -69 776 -33 l 844 -158 q 854 -194 854 -176 q 833 -240 854 -222 q 783 -257 811 -257 q 719 -218 739 -257 l 647 -83 q 511 -11 608 -14 q 290 49 385 -8 q 143 208 194 106 q 92 451 92 311 q 149 736 92 614 q 312 925 207 858 q 556 992 417 992 q 795 936 694 992 q 949 776 896 881 q 1003 528 1003 671 m 538 107 q 772 219 686 107 q 857 528 857 331 q 779 783 857 694 q 557 872 701 872 q 323 760 408 872 q 238 450 238 647 q 315 196 238 285 q 538 107 393 107 z "},"R":{"ha":958,"x_min":90,"x_max":894,"o":"m 847 85 q 856 54 856 68 q 833 8 856 26 q 783 -10 811 -10 q 747 1 764 -10 q 719 32 729 11 l 574 314 q 512 384 547 364 q 418 404 476 404 l 261 404 l 235 63 q 213 12 233 31 q 160 -7 192 -7 q 108 13 126 -7 q 93 67 90 32 l 160 910 q 181 961 161 943 q 233 979 201 979 l 581 979 q 813 910 731 979 q 894 713 894 840 q 827 510 894 585 q 625 418 760 435 q 680 383 657 407 q 726 314 703 358 l 847 85 m 540 519 q 703 565 649 519 q 757 704 757 611 q 710 825 757 786 q 567 864 663 864 l 297 864 l 271 519 l 540 519 z "},"Ŕ":{"ha":958,"x_min":93,"x_max":894,"o":"m 847 85 q 856 54 856 68 q 833 8 856 26 q 783 -10 811 -10 q 747 1 764 -10 q 719 32 729 11 l 574 314 q 512 384 547 364 q 418 404 476 404 l 261 404 l 235 63 q 213 12 233 31 q 160 -7 192 -7 q 108 13 126 -7 q 93 67 90 32 l 160 910 q 181 961 161 943 q 233 979 201 979 l 581 979 q 813 910 731 979 q 894 713 894 840 q 827 510 894 585 q 625 418 760 435 q 680 383 657 407 q 726 314 703 358 l 847 85 m 540 519 q 703 565 649 519 q 757 704 757 611 q 710 825 757 786 q 567 864 663 864 l 297 864 l 271 519 l 540 519 m 589 1072 q 553 1056 571 1056 q 528 1065 538 1056 q 518 1089 518 1075 q 528 1115 518 1101 l 628 1256 q 678 1285 647 1285 q 715 1269 699 1285 q 731 1233 731 1254 q 710 1190 731 1210 l 589 1072 z "},"Ř":{"ha":958,"x_min":93,"x_max":894,"o":"m 847 85 q 856 54 856 68 q 833 8 856 26 q 783 -10 811 -10 q 747 1 764 -10 q 719 32 729 11 l 574 314 q 512 384 547 364 q 418 404 476 404 l 261 404 l 235 63 q 213 12 233 31 q 160 -7 192 -7 q 108 13 126 -7 q 93 67 90 32 l 160 910 q 181 961 161 943 q 233 979 201 979 l 581 979 q 813 910 731 979 q 894 713 894 840 q 827 510 894 585 q 625 418 760 435 q 680 383 657 407 q 726 314 703 358 l 847 85 m 540 519 q 703 565 649 519 q 757 704 757 611 q 710 825 757 786 q 567 864 663 864 l 297 864 l 271 519 l 540 519 m 635 1258 q 681 1282 654 1282 q 713 1270 700 1282 q 726 1242 726 1258 q 711 1208 726 1224 l 596 1081 q 533 1054 571 1054 q 476 1081 494 1054 l 383 1206 q 372 1236 372 1221 q 387 1267 372 1254 q 421 1281 401 1281 q 467 1253 450 1281 l 538 1139 l 635 1258 z "},"Ŗ":{"ha":958,"x_min":93,"x_max":894,"o":"m 847 85 q 856 54 856 68 q 833 8 856 26 q 783 -10 811 -10 q 747 1 764 -10 q 719 32 729 11 l 574 314 q 512 384 547 364 q 418 404 476 404 l 261 404 l 235 63 q 213 12 233 31 q 160 -7 192 -7 q 108 13 126 -7 q 93 67 90 32 l 160 910 q 181 961 161 943 q 233 979 201 979 l 581 979 q 813 910 731 979 q 894 713 894 840 q 827 510 894 585 q 625 418 760 435 q 680 383 657 407 q 726 314 703 358 l 847 85 m 540 519 q 703 565 649 519 q 757 704 757 611 q 710 825 757 786 q 567 864 663 864 l 297 864 l 271 519 l 540 519 m 439 -90 q 502 -114 479 -90 q 525 -179 525 -137 q 507 -267 525 -224 q 456 -343 489 -310 q 415 -362 438 -362 q 390 -355 400 -362 q 381 -333 381 -347 q 392 -308 381 -321 q 433 -232 425 -271 l 432 -232 q 380 -215 400 -232 q 360 -167 360 -199 q 383 -112 360 -133 q 439 -90 406 -90 z "},"Ȑ":{"ha":958,"x_min":93,"x_max":894,"o":"m 847 85 q 856 54 856 68 q 833 8 856 26 q 783 -10 811 -10 q 747 1 764 -10 q 719 32 729 11 l 574 314 q 512 384 547 364 q 418 404 476 404 l 261 404 l 235 63 q 213 12 233 31 q 160 -7 192 -7 q 108 13 126 -7 q 93 67 90 32 l 160 910 q 181 961 161 943 q 233 979 201 979 l 581 979 q 813 910 731 979 q 894 713 894 840 q 827 510 894 585 q 625 418 760 435 q 680 383 657 407 q 726 314 703 358 l 847 85 m 540 519 q 703 565 649 519 q 757 704 757 611 q 710 825 757 786 q 567 864 663 864 l 297 864 l 271 519 l 540 519 m 328 1208 q 319 1236 319 1224 q 334 1269 319 1256 q 368 1283 349 1283 q 394 1274 382 1283 q 413 1246 406 1265 l 467 1103 q 469 1089 469 1092 q 460 1066 469 1075 q 438 1057 450 1057 q 408 1075 421 1057 l 328 1208 m 501 1208 q 493 1236 493 1224 q 508 1269 493 1256 q 542 1283 522 1283 q 588 1246 574 1283 l 642 1103 q 644 1089 644 1094 q 635 1065 644 1075 q 613 1056 625 1056 q 582 1075 593 1056 l 501 1208 z "},"Ṛ":{"ha":958,"x_min":93,"x_max":894,"o":"m 847 85 q 856 54 856 68 q 833 8 856 26 q 783 -10 811 -10 q 747 1 764 -10 q 719 32 729 11 l 574 314 q 512 384 547 364 q 418 404 476 404 l 261 404 l 235 63 q 213 12 233 31 q 160 -7 192 -7 q 108 13 126 -7 q 93 67 90 32 l 160 910 q 181 961 161 943 q 233 979 201 979 l 581 979 q 813 910 731 979 q 894 713 894 840 q 827 510 894 585 q 625 418 760 435 q 680 383 657 407 q 726 314 703 358 l 847 85 m 540 519 q 703 565 649 519 q 757 704 757 611 q 710 825 757 786 q 567 864 663 864 l 297 864 l 271 519 l 540 519 m 436 -267 q 378 -245 400 -267 q 356 -189 356 -224 q 378 -133 356 -154 q 436 -112 400 -112 q 494 -134 471 -112 q 517 -189 517 -156 q 494 -245 517 -224 q 436 -267 472 -267 z "},"Ȓ":{"ha":958,"x_min":93,"x_max":894,"o":"m 847 85 q 856 54 856 68 q 833 8 856 26 q 783 -10 811 -10 q 747 1 764 -10 q 719 32 729 11 l 574 314 q 512 384 547 364 q 418 404 476 404 l 261 404 l 235 63 q 213 12 233 31 q 160 -7 192 -7 q 108 13 126 -7 q 93 67 90 32 l 160 910 q 181 961 161 943 q 233 979 201 979 l 581 979 q 813 910 731 979 q 894 713 894 840 q 827 510 894 585 q 625 418 760 435 q 680 383 657 407 q 726 314 703 358 l 847 85 m 540 519 q 703 565 649 519 q 757 704 757 611 q 710 825 757 786 q 567 864 663 864 l 297 864 l 271 519 l 540 519 m 546 1261 q 674 1231 619 1261 q 756 1146 728 1201 q 763 1119 763 1133 q 750 1090 763 1101 q 719 1079 738 1079 q 676 1101 694 1079 q 543 1168 632 1168 q 401 1101 457 1168 q 354 1079 381 1079 q 326 1089 338 1079 q 315 1114 315 1099 q 326 1146 315 1128 q 418 1231 361 1201 q 546 1261 475 1261 z "},"Ṟ":{"ha":958,"x_min":93,"x_max":894,"o":"m 847 85 q 856 54 856 68 q 833 8 856 26 q 783 -10 811 -10 q 747 1 764 -10 q 719 32 729 11 l 574 314 q 512 384 547 364 q 418 404 476 404 l 261 404 l 235 63 q 213 12 233 31 q 160 -7 192 -7 q 108 13 126 -7 q 93 67 90 32 l 160 910 q 181 961 161 943 q 233 979 201 979 l 581 979 q 813 910 731 979 q 894 713 894 840 q 827 510 894 585 q 625 418 760 435 q 680 383 657 407 q 726 314 703 358 l 847 85 m 540 519 q 703 565 649 519 q 757 704 757 611 q 710 825 757 786 q 567 864 663 864 l 297 864 l 271 519 l 540 519 m 265 -236 q 226 -224 240 -236 q 213 -192 213 -211 q 228 -156 213 -168 q 271 -143 244 -143 l 608 -143 q 646 -155 632 -143 q 660 -187 660 -167 q 644 -224 660 -211 q 601 -236 628 -236 l 265 -236 z "},"S":{"ha":871,"x_min":42,"x_max":843,"o":"m 425 -11 q 76 89 203 -11 q 42 151 42 114 q 56 193 42 176 q 93 210 71 210 q 131 197 113 210 q 429 106 253 106 q 599 145 540 106 q 658 257 658 185 q 628 332 658 303 q 554 378 599 361 q 431 419 510 396 q 263 478 328 450 q 153 562 199 507 q 108 706 108 617 q 155 856 108 792 q 286 956 201 921 q 485 990 371 990 q 674 961 586 990 q 819 882 763 932 q 843 832 843 863 q 827 789 843 807 q 788 771 811 771 q 743 788 768 771 q 626 850 694 826 q 482 874 558 874 q 313 832 372 874 q 253 715 253 790 q 285 633 253 665 q 364 581 317 600 q 493 539 411 563 q 654 483 593 510 q 759 404 715 456 q 803 269 803 353 q 702 64 803 139 q 425 -11 601 -11 z "},"Ś":{"ha":871,"x_min":42,"x_max":843,"o":"m 425 -11 q 76 89 203 -11 q 42 151 42 114 q 56 193 42 176 q 93 210 71 210 q 131 197 113 210 q 429 106 253 106 q 599 145 540 106 q 658 257 658 185 q 628 332 658 303 q 554 378 599 361 q 431 419 510 396 q 263 478 328 450 q 153 562 199 507 q 108 706 108 617 q 155 856 108 792 q 286 956 201 921 q 485 990 371 990 q 674 961 586 990 q 819 882 763 932 q 843 832 843 863 q 827 789 843 807 q 788 771 811 771 q 743 788 768 771 q 626 850 694 826 q 482 874 558 874 q 313 832 372 874 q 253 715 253 790 q 285 633 253 665 q 364 581 317 600 q 493 539 411 563 q 654 483 593 510 q 759 404 715 456 q 803 269 803 353 q 702 64 803 139 q 425 -11 601 -11 m 549 1072 q 513 1056 531 1056 q 488 1065 497 1056 q 478 1089 478 1075 q 488 1115 478 1101 l 588 1256 q 638 1285 607 1285 q 674 1269 658 1285 q 690 1233 690 1254 q 669 1190 690 1210 l 549 1072 z "},"Ṥ":{"ha":871,"x_min":42,"x_max":843,"o":"m 425 -11 q 76 89 203 -11 q 42 151 42 114 q 56 193 42 176 q 93 210 71 210 q 131 197 113 210 q 429 106 253 106 q 599 145 540 106 q 658 257 658 185 q 628 332 658 303 q 554 378 599 361 q 431 419 510 396 q 263 478 328 450 q 153 562 199 507 q 108 706 108 617 q 155 856 108 792 q 286 956 201 921 q 485 990 371 990 q 674 961 586 990 q 819 882 763 932 q 843 832 843 863 q 827 789 843 807 q 788 771 811 771 q 743 788 768 771 q 626 850 694 826 q 482 874 558 874 q 313 832 372 874 q 253 715 253 790 q 285 633 253 665 q 364 581 317 600 q 493 539 411 563 q 654 483 593 510 q 759 404 715 456 q 803 269 803 353 q 702 64 803 139 q 425 -11 601 -11 m 565 1072 q 529 1056 547 1056 q 504 1065 514 1056 q 494 1089 494 1075 q 504 1115 494 1101 l 604 1256 q 654 1285 624 1285 q 691 1269 675 1285 q 707 1233 707 1254 q 686 1190 707 1210 l 565 1072 m 343 1119 q 279 1142 303 1119 q 256 1200 256 1164 q 279 1259 256 1238 q 343 1281 303 1281 q 406 1259 382 1281 q 431 1200 431 1238 q 407 1142 431 1164 q 343 1119 383 1119 z "},"Š":{"ha":871,"x_min":42,"x_max":843,"o":"m 425 -11 q 76 89 203 -11 q 42 151 42 114 q 56 193 42 176 q 93 210 71 210 q 131 197 113 210 q 429 106 253 106 q 599 145 540 106 q 658 257 658 185 q 628 332 658 303 q 554 378 599 361 q 431 419 510 396 q 263 478 328 450 q 153 562 199 507 q 108 706 108 617 q 155 856 108 792 q 286 956 201 921 q 485 990 371 990 q 674 961 586 990 q 819 882 763 932 q 843 832 843 863 q 827 789 843 807 q 788 771 811 771 q 743 788 768 771 q 626 850 694 826 q 482 874 558 874 q 313 832 372 874 q 253 715 253 790 q 285 633 253 665 q 364 581 317 600 q 493 539 411 563 q 654 483 593 510 q 759 404 715 456 q 803 269 803 353 q 702 64 803 139 q 425 -11 601 -11 m 594 1258 q 640 1282 614 1282 q 673 1270 660 1282 q 686 1242 686 1258 q 671 1208 686 1224 l 556 1081 q 493 1054 531 1054 q 436 1081 454 1054 l 343 1206 q 332 1236 332 1221 q 347 1267 332 1254 q 381 1281 361 1281 q 426 1253 410 1281 l 497 1139 l 594 1258 z "},"Ṧ":{"ha":871,"x_min":42,"x_max":843,"o":"m 425 -11 q 76 89 203 -11 q 42 151 42 114 q 56 193 42 176 q 93 210 71 210 q 131 197 113 210 q 429 106 253 106 q 599 145 540 106 q 658 257 658 185 q 628 332 658 303 q 554 378 599 361 q 431 419 510 396 q 263 478 328 450 q 153 562 199 507 q 108 706 108 617 q 155 856 108 792 q 286 956 201 921 q 485 990 371 990 q 674 961 586 990 q 819 882 763 932 q 843 832 843 863 q 827 789 843 807 q 788 771 811 771 q 743 788 768 771 q 626 850 694 826 q 482 874 558 874 q 313 832 372 874 q 253 715 253 790 q 285 633 253 665 q 364 581 317 600 q 493 539 411 563 q 654 483 593 510 q 759 404 715 456 q 803 269 803 353 q 702 64 803 139 q 425 -11 601 -11 m 594 1258 q 640 1282 614 1282 q 673 1270 660 1282 q 686 1242 686 1258 q 671 1208 686 1224 l 556 1081 q 493 1054 531 1054 q 436 1081 454 1054 l 343 1206 q 332 1236 332 1221 q 347 1267 332 1254 q 381 1281 361 1281 q 426 1253 410 1281 l 497 1139 l 594 1258 m 522 1311 q 458 1333 482 1311 q 435 1392 435 1356 q 458 1451 435 1429 q 522 1472 482 1472 q 585 1451 561 1472 q 610 1392 610 1429 q 586 1333 610 1356 q 522 1311 563 1311 z "},"Ş":{"ha":871,"x_min":42,"x_max":843,"o":"m 482 874 q 313 832 372 874 q 253 715 253 790 q 285 633 253 665 q 364 581 317 600 q 493 539 411 563 q 654 483 593 510 q 759 404 715 456 q 803 269 803 353 q 706 67 803 142 q 440 -11 610 -8 l 431 -58 q 454 -57 438 -57 q 531 -82 503 -57 q 560 -150 560 -107 q 513 -237 560 -204 q 390 -269 467 -269 q 289 -254 335 -269 q 270 -241 276 -250 q 264 -221 264 -232 q 277 -192 264 -204 q 308 -186 290 -181 q 388 -197 351 -197 q 464 -153 464 -197 q 452 -127 464 -136 q 418 -118 440 -118 q 383 -124 401 -118 q 358 -129 365 -129 q 338 -121 346 -129 q 333 -101 331 -112 l 353 -8 q 76 89 182 6 q 42 151 42 114 q 56 193 42 176 q 93 210 71 210 q 131 197 113 210 q 429 106 253 106 q 599 145 540 106 q 658 257 658 185 q 628 332 658 303 q 554 378 599 361 q 431 419 510 396 q 263 478 328 450 q 153 562 199 507 q 108 706 108 617 q 155 856 108 792 q 286 956 201 921 q 485 990 371 990 q 674 961 586 990 q 819 882 763 932 q 843 832 843 863 q 827 789 843 807 q 788 771 811 771 q 743 788 768 771 q 626 850 694 826 q 482 874 558 874 z "},"Ŝ":{"ha":871,"x_min":42,"x_max":843,"o":"m 425 -11 q 76 89 203 -11 q 42 151 42 114 q 56 193 42 176 q 93 210 71 210 q 131 197 113 210 q 429 106 253 106 q 599 145 540 106 q 658 257 658 185 q 628 332 658 303 q 554 378 599 361 q 431 419 510 396 q 263 478 328 450 q 153 562 199 507 q 108 706 108 617 q 155 856 108 792 q 286 956 201 921 q 485 990 371 990 q 674 961 586 990 q 819 882 763 932 q 843 832 843 863 q 827 789 843 807 q 788 771 811 771 q 743 788 768 771 q 626 850 694 826 q 482 874 558 874 q 313 832 372 874 q 253 715 253 790 q 285 633 253 665 q 364 581 317 600 q 493 539 411 563 q 654 483 593 510 q 759 404 715 456 q 803 269 803 353 q 702 64 803 139 q 425 -11 601 -11 m 411 1079 q 365 1056 392 1056 q 334 1067 347 1056 q 321 1096 321 1079 q 335 1129 321 1114 l 451 1257 q 514 1283 476 1283 q 571 1257 550 1283 l 663 1131 q 674 1100 674 1115 q 660 1069 674 1082 q 626 1056 646 1056 q 581 1085 599 1056 l 510 1199 l 411 1079 z "},"Ș":{"ha":871,"x_min":42,"x_max":843,"o":"m 425 -11 q 76 89 203 -11 q 42 151 42 114 q 56 193 42 176 q 93 210 71 210 q 131 197 113 210 q 429 106 253 106 q 599 145 540 106 q 658 257 658 185 q 628 332 658 303 q 554 378 599 361 q 431 419 510 396 q 263 478 328 450 q 153 562 199 507 q 108 706 108 617 q 155 856 108 792 q 286 956 201 921 q 485 990 371 990 q 674 961 586 990 q 819 882 763 932 q 843 832 843 863 q 827 789 843 807 q 788 771 811 771 q 743 788 768 771 q 626 850 694 826 q 482 874 558 874 q 313 832 372 874 q 253 715 253 790 q 285 633 253 665 q 364 581 317 600 q 493 539 411 563 q 654 483 593 510 q 759 404 715 456 q 803 269 803 353 q 702 64 803 139 q 425 -11 601 -11 m 399 -90 q 462 -114 439 -90 q 485 -179 485 -137 q 467 -267 485 -224 q 415 -343 449 -310 q 375 -362 397 -362 q 350 -355 360 -362 q 340 -333 340 -347 q 351 -308 340 -321 q 393 -232 385 -271 l 392 -232 q 340 -215 360 -232 q 319 -167 319 -199 q 342 -112 319 -133 q 399 -90 365 -90 z "},"Ṡ":{"ha":871,"x_min":42,"x_max":843,"o":"m 425 -11 q 76 89 203 -11 q 42 151 42 114 q 56 193 42 176 q 93 210 71 210 q 131 197 113 210 q 429 106 253 106 q 599 145 540 106 q 658 257 658 185 q 628 332 658 303 q 554 378 599 361 q 431 419 510 396 q 263 478 328 450 q 153 562 199 507 q 108 706 108 617 q 155 856 108 792 q 286 956 201 921 q 485 990 371 990 q 674 961 586 990 q 819 882 763 932 q 843 832 843 863 q 827 789 843 807 q 788 771 811 771 q 743 788 768 771 q 626 850 694 826 q 482 874 558 874 q 313 832 372 874 q 253 715 253 790 q 285 633 253 665 q 364 581 317 600 q 493 539 411 563 q 654 483 593 510 q 759 404 715 456 q 803 269 803 353 q 702 64 803 139 q 425 -11 601 -11 m 504 1089 q 440 1111 464 1089 q 417 1169 417 1133 q 440 1228 417 1207 q 504 1250 464 1250 q 567 1228 543 1250 q 592 1169 592 1207 q 568 1111 592 1133 q 504 1089 544 1089 z "},"Ṣ":{"ha":871,"x_min":42,"x_max":843,"o":"m 425 -11 q 76 89 203 -11 q 42 151 42 114 q 56 193 42 176 q 93 210 71 210 q 131 197 113 210 q 429 106 253 106 q 599 145 540 106 q 658 257 658 185 q 628 332 658 303 q 554 378 599 361 q 431 419 510 396 q 263 478 328 450 q 153 562 199 507 q 108 706 108 617 q 155 856 108 792 q 286 956 201 921 q 485 990 371 990 q 674 961 586 990 q 819 882 763 932 q 843 832 843 863 q 827 789 843 807 q 788 771 811 771 q 743 788 768 771 q 626 850 694 826 q 482 874 558 874 q 313 832 372 874 q 253 715 253 790 q 285 633 253 665 q 364 581 317 600 q 493 539 411 563 q 654 483 593 510 q 759 404 715 456 q 803 269 803 353 q 702 64 803 139 q 425 -11 601 -11 m 396 -267 q 338 -245 360 -267 q 315 -189 315 -224 q 338 -133 315 -154 q 396 -112 360 -112 q 453 -134 431 -112 q 476 -189 476 -156 q 454 -245 476 -224 q 396 -267 432 -267 z "},"Ṩ":{"ha":871,"x_min":42,"x_max":843,"o":"m 425 -11 q 76 89 203 -11 q 42 151 42 114 q 56 193 42 176 q 93 210 71 210 q 131 197 113 210 q 429 106 253 106 q 599 145 540 106 q 658 257 658 185 q 628 332 658 303 q 554 378 599 361 q 431 419 510 396 q 263 478 328 450 q 153 562 199 507 q 108 706 108 617 q 155 856 108 792 q 286 956 201 921 q 485 990 371 990 q 674 961 586 990 q 819 882 763 932 q 843 832 843 863 q 827 789 843 807 q 788 771 811 771 q 743 788 768 771 q 626 850 694 826 q 482 874 558 874 q 313 832 372 874 q 253 715 253 790 q 285 633 253 665 q 364 581 317 600 q 493 539 411 563 q 654 483 593 510 q 759 404 715 456 q 803 269 803 353 q 702 64 803 139 q 425 -11 601 -11 m 396 -267 q 338 -245 360 -267 q 315 -189 315 -224 q 338 -133 315 -154 q 396 -112 360 -112 q 453 -134 431 -112 q 476 -189 476 -156 q 454 -245 476 -224 q 396 -267 432 -267 m 504 1089 q 440 1111 464 1089 q 417 1169 417 1133 q 440 1228 417 1207 q 504 1250 464 1250 q 567 1228 543 1250 q 592 1169 592 1207 q 568 1111 592 1133 q 504 1089 544 1089 z "},"ẞ":{"ha":965,"x_min":89,"x_max":888,"o":"m 701 510 q 839 432 790 490 q 888 283 888 374 q 847 132 888 199 q 733 28 806 65 q 565 -10 660 -10 q 437 9 496 -10 q 335 64 378 28 q 308 114 308 85 q 324 153 308 136 q 364 171 340 171 q 403 160 385 171 q 560 104 481 104 q 699 152 649 104 q 749 286 749 200 q 697 401 749 364 q 540 439 646 439 l 426 439 q 383 456 399 439 q 367 494 367 472 q 384 536 367 518 q 431 554 401 554 l 521 554 q 665 599 614 554 q 715 726 715 644 q 665 832 715 793 q 531 871 615 871 q 348 813 408 871 q 278 633 288 756 l 233 64 q 209 11 231 31 q 156 -8 188 -8 q 106 11 124 -8 q 92 64 89 31 l 136 638 q 252 899 150 810 q 536 989 354 989 q 768 921 682 989 q 854 739 854 853 q 815 597 854 657 q 701 510 775 536 z "},"Ə":{"ha":1040,"x_min":90,"x_max":972,"o":"m 538 990 q 769 933 671 990 q 919 772 867 876 q 972 528 972 667 q 915 243 972 365 q 753 55 858 121 q 506 -11 647 -11 q 277 44 371 -11 q 137 198 183 100 q 90 419 90 296 q 93 490 90 446 q 113 538 94 521 q 160 554 132 554 l 828 554 q 741 790 821 708 q 518 872 661 872 q 254 786 372 872 q 206 768 226 768 q 174 782 185 768 q 163 818 163 796 q 170 851 163 835 q 193 881 178 868 q 345 963 257 935 q 538 990 433 990 m 507 106 q 721 194 639 107 q 822 438 803 282 l 235 438 q 297 193 226 281 q 507 106 368 106 z "},"T":{"ha":840,"x_min":50,"x_max":883,"o":"m 394 -7 q 344 13 363 -7 q 326 65 325 33 l 390 860 l 114 860 q 67 874 83 860 q 50 915 50 889 q 119 979 50 979 l 819 979 q 867 964 850 979 q 883 922 883 949 q 814 860 883 860 l 533 860 l 471 63 q 447 13 468 32 q 394 -7 426 -7 z "},"Ŧ":{"ha":840,"x_min":50,"x_max":883,"o":"m 819 979 q 867 964 850 979 q 883 922 883 949 q 814 860 883 860 l 533 860 l 510 553 l 653 553 q 697 538 681 553 q 713 497 713 522 q 695 456 713 471 q 646 440 678 440 l 500 440 l 471 63 q 447 13 468 32 q 394 -7 426 -7 q 344 13 363 -7 q 326 65 325 33 l 357 440 l 213 440 q 167 455 183 440 q 151 494 151 469 q 169 538 151 522 q 218 553 188 553 l 365 553 l 390 860 l 114 860 q 67 874 83 860 q 50 915 50 889 q 119 979 50 979 l 819 979 z "},"Ť":{"ha":840,"x_min":50,"x_max":883,"o":"m 394 -7 q 344 13 363 -7 q 326 65 325 33 l 390 860 l 114 860 q 67 874 83 860 q 50 915 50 889 q 119 979 50 979 l 819 979 q 867 964 850 979 q 883 922 883 949 q 814 860 883 860 l 533 860 l 471 63 q 447 13 468 32 q 394 -7 426 -7 m 576 1258 q 622 1282 596 1282 q 655 1270 642 1282 q 668 1242 668 1258 q 653 1208 668 1224 l 538 1081 q 475 1054 513 1054 q 418 1081 436 1054 l 325 1206 q 314 1236 314 1221 q 328 1267 314 1254 q 363 1281 343 1281 q 408 1253 392 1281 l 479 1139 l 576 1258 z "},"Ţ":{"ha":840,"x_min":50,"x_max":883,"o":"m 819 979 q 867 964 850 979 q 883 922 883 949 q 814 860 883 860 l 533 860 l 471 63 q 457 23 469 40 q 425 -1 444 6 l 413 -58 q 436 -57 419 -57 q 513 -82 485 -57 q 542 -150 542 -107 q 495 -237 542 -204 q 372 -269 449 -269 q 271 -254 317 -269 q 252 -241 258 -250 q 246 -221 246 -232 q 259 -192 246 -204 q 290 -186 272 -181 q 369 -197 333 -197 q 446 -153 446 -197 q 434 -127 446 -136 q 400 -118 422 -118 q 365 -124 383 -118 q 340 -129 347 -129 q 320 -121 328 -129 q 315 -101 313 -112 l 340 18 q 326 65 325 39 l 390 860 l 114 860 q 67 874 83 860 q 50 915 50 889 q 119 979 50 979 l 819 979 z "},"Ț":{"ha":840,"x_min":50,"x_max":883,"o":"m 394 -7 q 344 13 363 -7 q 326 65 325 33 l 390 860 l 114 860 q 67 874 83 860 q 50 915 50 889 q 119 979 50 979 l 819 979 q 867 964 850 979 q 883 922 883 949 q 814 860 883 860 l 533 860 l 471 63 q 447 13 468 32 q 394 -7 426 -7 m 381 -90 q 444 -114 421 -90 q 467 -179 467 -137 q 449 -267 467 -224 q 397 -343 431 -310 q 357 -362 379 -362 q 332 -355 342 -362 q 322 -333 322 -347 q 333 -308 322 -321 q 375 -232 367 -271 l 374 -232 q 322 -215 342 -232 q 301 -167 301 -199 q 324 -112 301 -133 q 381 -90 347 -90 z "},"Ṭ":{"ha":840,"x_min":50,"x_max":883,"o":"m 394 -7 q 344 13 363 -7 q 326 65 325 33 l 390 860 l 114 860 q 67 874 83 860 q 50 915 50 889 q 119 979 50 979 l 819 979 q 867 964 850 979 q 883 922 883 949 q 814 860 883 860 l 533 860 l 471 63 q 447 13 468 32 q 394 -7 426 -7 m 378 -267 q 319 -245 342 -267 q 297 -189 297 -224 q 319 -133 297 -154 q 378 -112 342 -112 q 435 -134 413 -112 q 458 -189 458 -156 q 436 -245 458 -224 q 378 -267 414 -267 z "},"Ṯ":{"ha":840,"x_min":50,"x_max":883,"o":"m 394 -7 q 344 13 363 -7 q 326 65 325 33 l 390 860 l 114 860 q 67 874 83 860 q 50 915 50 889 q 119 979 50 979 l 819 979 q 867 964 850 979 q 883 922 883 949 q 814 860 883 860 l 533 860 l 471 63 q 447 13 468 32 q 394 -7 426 -7 m 207 -236 q 168 -224 182 -236 q 154 -192 154 -211 q 170 -156 154 -168 q 213 -143 186 -143 l 550 -143 q 588 -155 574 -143 q 601 -187 601 -167 q 585 -224 601 -211 q 543 -236 569 -236 l 207 -236 z "},"U":{"ha":1011,"x_min":108,"x_max":951,"o":"m 490 -11 q 205 79 301 -11 q 108 342 108 169 q 111 396 108 360 l 153 917 q 175 967 154 947 q 228 986 196 986 q 278 966 260 986 q 294 914 296 946 l 253 394 q 251 350 251 379 q 496 106 251 106 q 687 170 619 106 q 765 374 754 235 l 808 917 q 831 967 810 947 q 882 986 851 986 q 933 967 914 986 q 949 914 951 947 l 907 386 q 787 88 892 188 q 490 -11 682 -11 z "},"Ú":{"ha":1011,"x_min":108,"x_max":949,"o":"m 490 -11 q 205 79 301 -11 q 108 342 108 169 q 111 396 108 360 l 153 917 q 175 967 154 947 q 228 986 196 986 q 278 966 260 986 q 294 914 296 946 l 253 394 q 251 350 251 379 q 496 106 251 106 q 687 170 619 106 q 765 374 754 235 l 808 917 q 831 967 810 947 q 882 986 851 986 q 933 967 914 986 q 949 914 951 947 l 907 386 q 787 88 892 188 q 490 -11 682 -11 m 617 1072 q 581 1056 599 1056 q 556 1065 565 1056 q 546 1089 546 1075 q 556 1115 546 1101 l 656 1256 q 706 1285 675 1285 q 742 1269 726 1285 q 758 1233 758 1254 q 738 1190 758 1210 l 617 1072 z "},"Ŭ":{"ha":1011,"x_min":108,"x_max":949,"o":"m 490 -11 q 205 79 301 -11 q 108 342 108 169 q 111 396 108 360 l 153 917 q 175 967 154 947 q 228 986 196 986 q 278 966 260 986 q 294 914 296 946 l 253 394 q 251 350 251 379 q 496 106 251 106 q 687 170 619 106 q 765 374 754 235 l 808 917 q 831 967 810 947 q 882 986 851 986 q 933 967 914 986 q 949 914 951 947 l 907 386 q 787 88 892 188 q 490 -11 682 -11 m 568 1078 q 441 1108 494 1078 q 360 1193 388 1138 q 351 1221 351 1208 q 364 1249 351 1238 q 394 1260 376 1260 q 438 1238 419 1260 q 572 1171 482 1171 q 714 1238 661 1171 q 761 1260 735 1260 q 789 1250 778 1260 q 800 1225 800 1240 q 789 1193 800 1211 q 697 1108 754 1138 q 568 1078 640 1078 z "},"Û":{"ha":1011,"x_min":108,"x_max":949,"o":"m 490 -11 q 205 79 301 -11 q 108 342 108 169 q 111 396 108 360 l 153 917 q 175 967 154 947 q 228 986 196 986 q 278 966 260 986 q 294 914 296 946 l 253 394 q 251 350 251 379 q 496 106 251 106 q 687 170 619 106 q 765 374 754 235 l 808 917 q 831 967 810 947 q 882 986 851 986 q 933 967 914 986 q 949 914 951 947 l 907 386 q 787 88 892 188 q 490 -11 682 -11 m 479 1079 q 433 1056 460 1056 q 402 1067 415 1056 q 389 1096 389 1079 q 403 1129 389 1114 l 519 1257 q 582 1283 544 1283 q 639 1257 618 1283 l 731 1131 q 742 1100 742 1115 q 728 1069 742 1082 q 694 1056 714 1056 q 649 1085 667 1056 l 578 1199 l 479 1079 z "},"Ȕ":{"ha":1011,"x_min":108,"x_max":949,"o":"m 490 -11 q 205 79 301 -11 q 108 342 108 169 q 111 396 108 360 l 153 917 q 175 967 154 947 q 228 986 196 986 q 278 966 260 986 q 294 914 296 946 l 253 394 q 251 350 251 379 q 496 106 251 106 q 687 170 619 106 q 765 374 754 235 l 808 917 q 831 967 810 947 q 882 986 851 986 q 933 967 914 986 q 949 914 951 947 l 907 386 q 787 88 892 188 q 490 -11 682 -11 m 356 1208 q 347 1236 347 1224 q 362 1269 347 1256 q 396 1283 376 1283 q 422 1274 410 1283 q 440 1246 433 1265 l 494 1103 q 497 1089 497 1092 q 488 1066 497 1075 q 465 1057 478 1057 q 436 1075 449 1057 l 356 1208 m 529 1208 q 521 1236 521 1224 q 535 1269 521 1256 q 569 1283 550 1283 q 615 1246 601 1283 l 669 1103 q 672 1089 672 1094 q 663 1065 672 1075 q 640 1056 653 1056 q 610 1075 621 1056 l 529 1208 z "},"Ü":{"ha":1011,"x_min":108,"x_max":949,"o":"m 490 -11 q 205 79 301 -11 q 108 342 108 169 q 111 396 108 360 l 153 917 q 175 967 154 947 q 228 986 196 986 q 278 966 260 986 q 294 914 296 946 l 253 394 q 251 350 251 379 q 496 106 251 106 q 687 170 619 106 q 765 374 754 235 l 808 917 q 831 967 810 947 q 882 986 851 986 q 933 967 914 986 q 949 914 951 947 l 907 386 q 787 88 892 188 q 490 -11 682 -11 m 450 1094 q 393 1115 415 1094 q 371 1169 371 1136 q 393 1225 371 1204 q 450 1246 415 1246 q 506 1224 483 1246 q 529 1169 529 1203 q 507 1115 529 1136 q 450 1094 485 1094 m 694 1094 q 639 1115 661 1094 q 617 1169 617 1136 q 639 1224 617 1203 q 694 1246 661 1246 q 751 1225 729 1246 q 774 1169 774 1204 q 751 1115 774 1136 q 694 1094 729 1094 z "},"Ụ":{"ha":1011,"x_min":108,"x_max":949,"o":"m 490 -11 q 205 79 301 -11 q 108 342 108 169 q 111 396 108 360 l 153 917 q 175 967 154 947 q 228 986 196 986 q 278 966 260 986 q 294 914 296 946 l 253 394 q 251 350 251 379 q 496 106 251 106 q 687 170 619 106 q 765 374 754 235 l 808 917 q 831 967 810 947 q 882 986 851 986 q 933 967 914 986 q 949 914 951 947 l 907 386 q 787 88 892 188 q 490 -11 682 -11 m 464 -267 q 406 -245 428 -267 q 383 -189 383 -224 q 406 -133 383 -154 q 464 -112 428 -112 q 522 -134 499 -112 q 544 -189 544 -156 q 522 -245 544 -224 q 464 -267 500 -267 z "},"Ù":{"ha":1011,"x_min":108,"x_max":949,"o":"m 490 -11 q 205 79 301 -11 q 108 342 108 169 q 111 396 108 360 l 153 917 q 175 967 154 947 q 228 986 196 986 q 278 966 260 986 q 294 914 296 946 l 253 394 q 251 350 251 379 q 496 106 251 106 q 687 170 619 106 q 765 374 754 235 l 808 917 q 831 967 810 947 q 882 986 851 986 q 933 967 914 986 q 949 914 951 947 l 907 386 q 787 88 892 188 q 490 -11 682 -11 m 407 1199 q 392 1236 392 1215 q 408 1272 392 1257 q 446 1286 425 1286 q 494 1254 476 1286 l 578 1110 q 583 1089 583 1100 q 572 1065 583 1075 q 546 1056 561 1056 q 511 1072 524 1056 l 407 1199 z "},"Ủ":{"ha":1011,"x_min":108,"x_max":949,"o":"m 490 -11 q 205 79 301 -11 q 108 342 108 169 q 111 396 108 360 l 153 917 q 175 967 154 947 q 228 986 196 986 q 278 966 260 986 q 294 914 296 946 l 253 394 q 251 350 251 379 q 496 106 251 106 q 687 170 619 106 q 765 374 754 235 l 808 917 q 831 967 810 947 q 882 986 851 986 q 933 967 914 986 q 949 914 951 947 l 907 386 q 787 88 892 188 q 490 -11 682 -11 m 608 1082 q 592 1063 604 1069 q 567 1056 581 1056 q 538 1065 550 1056 q 526 1089 526 1074 q 542 1128 526 1114 q 586 1154 558 1142 q 615 1171 606 1164 q 624 1188 624 1178 q 575 1210 624 1210 q 501 1199 543 1210 q 472 1204 483 1194 q 461 1228 461 1214 q 469 1249 461 1239 q 489 1264 476 1258 q 590 1281 529 1281 q 689 1258 653 1281 q 725 1199 725 1235 q 708 1153 725 1168 q 657 1122 692 1139 q 622 1102 633 1110 q 608 1082 611 1094 z "},"Ư":{"ha":1011,"x_min":108,"x_max":1126,"o":"m 1126 1121 q 1078 977 1126 1036 q 947 904 1031 918 l 907 386 q 787 88 892 188 q 490 -11 682 -11 q 205 79 301 -11 q 108 342 108 169 q 111 396 108 360 l 153 917 q 175 967 154 947 q 228 986 196 986 q 278 966 260 986 q 294 914 296 946 l 253 388 q 251 347 251 374 q 496 106 251 106 q 688 172 622 106 q 765 374 754 238 l 807 914 q 829 964 810 946 q 882 983 849 982 q 965 1015 935 983 q 1003 1122 994 1047 q 1069 1183 1013 1183 q 1126 1121 1126 1183 z "},"Ứ":{"ha":1011,"x_min":108,"x_max":1126,"o":"m 1126 1121 q 1078 977 1126 1036 q 947 904 1031 918 l 907 386 q 787 88 892 188 q 490 -11 682 -11 q 205 79 301 -11 q 108 342 108 169 q 111 396 108 360 l 153 917 q 175 967 154 947 q 228 986 196 986 q 278 966 260 986 q 294 914 296 946 l 253 388 q 251 347 251 374 q 496 106 251 106 q 688 172 622 106 q 765 374 754 238 l 807 914 q 829 964 810 946 q 882 983 849 982 q 965 1015 935 983 q 1003 1122 994 1047 q 1069 1183 1013 1183 q 1126 1121 1126 1183 m 617 1072 q 581 1056 599 1056 q 556 1065 565 1056 q 546 1089 546 1075 q 556 1115 546 1101 l 656 1256 q 706 1285 675 1285 q 742 1269 726 1285 q 758 1233 758 1254 q 738 1190 758 1210 l 617 1072 z "},"Ự":{"ha":1011,"x_min":108,"x_max":1126,"o":"m 1126 1121 q 1078 977 1126 1036 q 947 904 1031 918 l 907 386 q 787 88 892 188 q 490 -11 682 -11 q 205 79 301 -11 q 108 342 108 169 q 111 396 108 360 l 153 917 q 175 967 154 947 q 228 986 196 986 q 278 966 260 986 q 294 914 296 946 l 253 388 q 251 347 251 374 q 496 106 251 106 q 688 172 622 106 q 765 374 754 238 l 807 914 q 829 964 810 946 q 882 983 849 982 q 965 1015 935 983 q 1003 1122 994 1047 q 1069 1183 1013 1183 q 1126 1121 1126 1183 m 464 -267 q 406 -245 428 -267 q 383 -189 383 -224 q 406 -133 383 -154 q 464 -112 428 -112 q 522 -134 499 -112 q 544 -189 544 -156 q 522 -245 544 -224 q 464 -267 500 -267 z "},"Ừ":{"ha":1011,"x_min":108,"x_max":1126,"o":"m 1126 1121 q 1078 977 1126 1036 q 947 904 1031 918 l 907 386 q 787 88 892 188 q 490 -11 682 -11 q 205 79 301 -11 q 108 342 108 169 q 111 396 108 360 l 153 917 q 175 967 154 947 q 228 986 196 986 q 278 966 260 986 q 294 914 296 946 l 253 388 q 251 347 251 374 q 496 106 251 106 q 688 172 622 106 q 765 374 754 238 l 807 914 q 829 964 810 946 q 882 983 849 982 q 965 1015 935 983 q 1003 1122 994 1047 q 1069 1183 1013 1183 q 1126 1121 1126 1183 m 407 1199 q 392 1236 392 1215 q 408 1272 392 1257 q 446 1286 425 1286 q 494 1254 476 1286 l 578 1110 q 583 1089 583 1100 q 572 1065 583 1075 q 546 1056 561 1056 q 511 1072 524 1056 l 407 1199 z "},"Ử":{"ha":1011,"x_min":108,"x_max":1126,"o":"m 1126 1121 q 1078 977 1126 1036 q 947 904 1031 918 l 907 386 q 787 88 892 188 q 490 -11 682 -11 q 205 79 301 -11 q 108 342 108 169 q 111 396 108 360 l 153 917 q 175 967 154 947 q 228 986 196 986 q 278 966 260 986 q 294 914 296 946 l 253 388 q 251 347 251 374 q 496 106 251 106 q 688 172 622 106 q 765 374 754 238 l 807 914 q 829 964 810 946 q 882 983 849 982 q 965 1015 935 983 q 1003 1122 994 1047 q 1069 1183 1013 1183 q 1126 1121 1126 1183 m 608 1082 q 592 1063 604 1069 q 567 1056 581 1056 q 538 1065 550 1056 q 526 1089 526 1074 q 542 1128 526 1114 q 586 1154 558 1142 q 615 1171 606 1164 q 624 1188 624 1178 q 575 1210 624 1210 q 501 1199 543 1210 q 472 1204 483 1194 q 461 1228 461 1214 q 469 1249 461 1239 q 489 1264 476 1258 q 590 1281 529 1281 q 689 1258 653 1281 q 725 1199 725 1235 q 708 1153 725 1168 q 657 1122 692 1139 q 622 1102 633 1110 q 608 1082 611 1094 z "},"Ữ":{"ha":1011,"x_min":108,"x_max":1126,"o":"m 1126 1121 q 1078 977 1126 1036 q 947 904 1031 918 l 907 386 q 787 88 892 188 q 490 -11 682 -11 q 205 79 301 -11 q 108 342 108 169 q 111 396 108 360 l 153 917 q 175 967 154 947 q 228 986 196 986 q 278 966 260 986 q 294 914 296 946 l 253 388 q 251 347 251 374 q 496 106 251 106 q 688 172 622 106 q 765 374 754 238 l 807 914 q 829 964 810 946 q 882 983 849 982 q 965 1015 935 983 q 1003 1122 994 1047 q 1069 1183 1013 1183 q 1126 1121 1126 1183 m 665 1089 q 618 1097 642 1089 q 558 1124 594 1106 q 514 1143 536 1135 q 475 1151 492 1151 q 439 1142 453 1151 q 410 1117 425 1133 q 392 1098 399 1103 q 375 1093 385 1093 q 353 1104 361 1093 q 344 1132 344 1115 q 361 1186 344 1158 q 409 1233 378 1214 q 479 1251 440 1251 q 526 1243 503 1251 q 586 1217 550 1235 q 631 1197 608 1206 q 669 1189 653 1189 q 707 1198 693 1189 q 733 1224 721 1207 q 751 1242 744 1238 q 768 1247 758 1247 q 792 1237 783 1247 q 800 1210 800 1226 q 783 1155 800 1183 q 735 1108 767 1126 q 665 1089 704 1089 z "},"Ű":{"ha":1011,"x_min":108,"x_max":949,"o":"m 490 -11 q 205 79 301 -11 q 108 342 108 169 q 111 396 108 360 l 153 917 q 175 967 154 947 q 228 986 196 986 q 278 966 260 986 q 294 914 296 946 l 253 394 q 251 350 251 379 q 496 106 251 106 q 687 170 619 106 q 765 374 754 235 l 808 917 q 831 967 810 947 q 882 986 851 986 q 933 967 914 986 q 949 914 951 947 l 907 386 q 787 88 892 188 q 490 -11 682 -11 m 515 1074 q 485 1057 503 1057 q 467 1064 474 1057 q 460 1082 460 1071 q 464 1100 460 1090 l 538 1249 q 586 1283 554 1283 q 617 1270 604 1283 q 631 1239 631 1257 q 617 1204 631 1222 l 515 1074 m 689 1074 q 658 1057 676 1057 q 640 1064 647 1057 q 633 1083 633 1071 q 638 1100 633 1092 l 713 1249 q 760 1283 731 1283 q 791 1270 778 1283 q 804 1239 804 1257 q 790 1204 804 1222 l 689 1074 z "},"Ȗ":{"ha":1011,"x_min":108,"x_max":949,"o":"m 490 -11 q 205 79 301 -11 q 108 342 108 169 q 111 396 108 360 l 153 917 q 175 967 154 947 q 228 986 196 986 q 278 966 260 986 q 294 914 296 946 l 253 394 q 251 350 251 379 q 496 106 251 106 q 687 170 619 106 q 765 374 754 235 l 808 917 q 831 967 810 947 q 882 986 851 986 q 933 967 914 986 q 949 914 951 947 l 907 386 q 787 88 892 188 q 490 -11 682 -11 m 574 1261 q 701 1231 647 1261 q 783 1146 756 1201 q 790 1119 790 1133 q 778 1090 790 1101 q 747 1079 765 1079 q 704 1101 722 1079 q 571 1168 660 1168 q 429 1101 485 1168 q 382 1079 408 1079 q 354 1089 365 1079 q 343 1114 343 1099 q 354 1146 343 1128 q 446 1231 389 1201 q 574 1261 503 1261 z "},"Ū":{"ha":1011,"x_min":108,"x_max":949,"o":"m 490 -11 q 205 79 301 -11 q 108 342 108 169 q 111 396 108 360 l 153 917 q 175 967 154 947 q 228 986 196 986 q 278 966 260 986 q 294 914 296 946 l 253 394 q 251 350 251 379 q 496 106 251 106 q 687 170 619 106 q 765 374 754 235 l 808 917 q 831 967 810 947 q 882 986 851 986 q 933 967 914 986 q 949 914 951 947 l 907 386 q 787 88 892 188 q 490 -11 682 -11 m 400 1121 q 363 1133 376 1121 q 349 1168 349 1146 q 365 1205 349 1192 q 407 1218 381 1218 l 744 1218 q 782 1205 768 1218 q 796 1169 796 1192 q 780 1133 796 1146 q 738 1121 764 1121 l 400 1121 z "},"Ṻ":{"ha":1011,"x_min":108,"x_max":949,"o":"m 490 -11 q 205 79 301 -11 q 108 342 108 169 q 111 396 108 360 l 153 917 q 175 967 154 947 q 228 986 196 986 q 278 966 260 986 q 294 914 296 946 l 253 394 q 251 350 251 379 q 496 106 251 106 q 687 170 619 106 q 765 374 754 235 l 808 917 q 831 967 810 947 q 882 986 851 986 q 933 967 914 986 q 949 914 951 947 l 907 386 q 787 88 892 188 q 490 -11 682 -11 m 400 1121 q 363 1133 376 1121 q 349 1168 349 1146 q 365 1205 349 1192 q 407 1218 381 1218 l 744 1218 q 782 1205 768 1218 q 796 1169 796 1192 q 780 1133 796 1146 q 738 1121 764 1121 l 400 1121 m 468 1317 q 411 1338 433 1317 q 389 1392 389 1358 q 411 1447 389 1426 q 468 1468 433 1468 q 524 1447 501 1468 q 547 1392 547 1425 q 525 1338 547 1358 q 468 1317 503 1317 m 713 1317 q 657 1338 679 1317 q 635 1392 635 1358 q 657 1447 635 1425 q 713 1468 679 1468 q 769 1447 747 1468 q 792 1392 792 1426 q 769 1338 792 1358 q 713 1317 747 1317 z "},"Ų":{"ha":1011,"x_min":108,"x_max":951,"o":"m 882 986 q 933 967 914 986 q 949 914 951 947 l 907 386 q 632 4 882 72 q 549 -39 576 -12 q 521 -107 521 -65 q 542 -165 521 -144 q 601 -186 564 -186 q 665 -171 629 -186 q 682 -167 674 -167 q 701 -176 694 -167 q 708 -197 708 -185 q 702 -222 708 -210 q 683 -242 696 -235 q 579 -269 633 -269 q 462 -231 506 -269 q 418 -129 418 -192 q 474 -11 418 -56 q 201 82 294 -8 q 108 342 108 172 q 111 396 108 360 l 153 917 q 175 967 154 947 q 228 986 196 986 q 278 966 260 986 q 294 914 296 946 l 253 394 q 251 350 251 379 q 496 106 251 106 q 687 170 619 106 q 765 374 754 235 l 808 917 q 831 967 810 947 q 882 986 851 986 z "},"Ů":{"ha":1011,"x_min":108,"x_max":949,"o":"m 490 -11 q 205 79 301 -11 q 108 342 108 169 q 111 396 108 360 l 153 917 q 175 967 154 947 q 228 986 196 986 q 278 966 260 986 q 294 914 296 946 l 253 394 q 251 350 251 379 q 496 106 251 106 q 687 170 619 106 q 765 374 754 235 l 808 917 q 831 967 810 947 q 882 986 851 986 q 933 967 914 986 q 949 914 951 947 l 907 386 q 787 88 892 188 q 490 -11 682 -11 m 572 1056 q 471 1097 513 1056 q 429 1197 429 1138 q 471 1297 429 1257 q 572 1338 513 1338 q 675 1297 633 1338 q 717 1197 717 1257 q 675 1097 717 1138 q 572 1056 633 1056 m 572 1129 q 619 1149 601 1129 q 638 1197 638 1168 q 619 1245 638 1226 q 572 1264 601 1264 q 526 1244 544 1264 q 508 1197 508 1225 q 526 1149 508 1168 q 572 1129 544 1129 z "},"Ũ":{"ha":1011,"x_min":108,"x_max":949,"o":"m 490 -11 q 205 79 301 -11 q 108 342 108 169 q 111 396 108 360 l 153 917 q 175 967 154 947 q 228 986 196 986 q 278 966 260 986 q 294 914 296 946 l 253 394 q 251 350 251 379 q 496 106 251 106 q 687 170 619 106 q 765 374 754 235 l 808 917 q 831 967 810 947 q 882 986 851 986 q 933 967 914 986 q 949 914 951 947 l 907 386 q 787 88 892 188 q 490 -11 682 -11 m 665 1089 q 618 1097 642 1089 q 558 1124 594 1106 q 514 1143 536 1135 q 475 1151 492 1151 q 439 1142 453 1151 q 410 1117 425 1133 q 392 1098 399 1103 q 375 1093 385 1093 q 353 1104 361 1093 q 344 1132 344 1115 q 361 1186 344 1158 q 409 1233 378 1214 q 479 1251 440 1251 q 526 1243 503 1251 q 586 1217 550 1235 q 631 1197 608 1206 q 669 1189 653 1189 q 707 1198 693 1189 q 733 1224 721 1207 q 751 1242 744 1238 q 768 1247 758 1247 q 792 1237 783 1247 q 800 1210 800 1226 q 783 1155 800 1183 q 735 1108 767 1126 q 665 1089 704 1089 z "},"Ṹ":{"ha":1011,"x_min":108,"x_max":949,"o":"m 490 -11 q 205 79 301 -11 q 108 342 108 169 q 111 396 108 360 l 153 917 q 175 967 154 947 q 228 986 196 986 q 278 966 260 986 q 294 914 296 946 l 253 394 q 251 350 251 379 q 496 106 251 106 q 687 170 619 106 q 765 374 754 235 l 808 917 q 831 967 810 947 q 882 986 851 986 q 933 967 914 986 q 949 914 951 947 l 907 386 q 787 88 892 188 q 490 -11 682 -11 m 665 1089 q 618 1097 642 1089 q 558 1124 594 1106 q 514 1143 536 1135 q 475 1151 492 1151 q 439 1142 453 1151 q 410 1117 425 1133 q 392 1098 399 1103 q 375 1093 385 1093 q 353 1104 361 1093 q 344 1132 344 1115 q 361 1186 344 1158 q 409 1233 378 1214 q 479 1251 440 1251 q 526 1243 503 1251 q 586 1217 550 1235 q 631 1197 608 1206 q 669 1189 653 1189 q 707 1198 693 1189 q 733 1224 721 1207 q 751 1242 744 1238 q 768 1247 758 1247 q 792 1237 783 1247 q 800 1210 800 1226 q 783 1155 800 1183 q 735 1108 767 1126 q 665 1089 704 1089 m 635 1294 q 599 1278 617 1278 q 574 1288 583 1278 q 564 1311 564 1297 q 574 1338 564 1324 l 674 1478 q 724 1507 693 1507 q 760 1492 744 1507 q 776 1456 776 1476 q 756 1413 776 1432 l 635 1294 z "},"V":{"ha":974,"x_min":72,"x_max":993,"o":"m 865 949 q 891 978 874 968 q 926 988 908 988 q 973 970 953 988 q 993 928 993 953 q 985 894 993 911 l 540 39 q 506 3 528 15 q 461 -8 485 -8 q 415 5 436 -8 q 385 42 393 18 l 76 896 q 72 919 72 908 q 95 968 72 949 q 147 988 118 988 q 183 977 167 988 q 206 946 199 967 l 475 181 l 865 949 z "},"W":{"ha":1535,"x_min":110,"x_max":1517,"o":"m 1389 943 q 1416 976 1397 965 q 1456 988 1435 988 q 1499 972 1481 988 q 1517 931 1517 957 q 1508 896 1517 915 l 1140 39 q 1110 3 1131 15 q 1065 -10 1089 -10 q 1022 4 1042 -10 q 994 43 1001 18 l 800 756 l 492 39 q 461 3 482 15 q 417 -10 440 -10 q 373 4 393 -10 q 346 43 353 18 l 113 897 q 110 921 110 906 q 131 969 110 951 q 182 988 153 988 q 222 976 204 988 q 244 940 239 964 l 436 203 l 750 938 q 779 974 760 961 q 819 988 799 988 q 860 974 842 988 q 883 936 878 960 l 1076 199 l 1389 943 z "},"Ẃ":{"ha":1535,"x_min":110,"x_max":1517,"o":"m 1389 943 q 1416 976 1397 965 q 1456 988 1435 988 q 1499 972 1481 988 q 1517 931 1517 957 q 1508 896 1517 915 l 1140 39 q 1110 3 1131 15 q 1065 -10 1089 -10 q 1022 4 1042 -10 q 994 43 1001 18 l 800 756 l 492 39 q 461 3 482 15 q 417 -10 440 -10 q 373 4 393 -10 q 346 43 353 18 l 113 897 q 110 921 110 906 q 131 969 110 951 q 182 988 153 988 q 222 976 204 988 q 244 940 239 964 l 436 203 l 750 938 q 779 974 760 961 q 819 988 799 988 q 860 974 842 988 q 883 936 878 960 l 1076 199 l 1389 943 m 878 1072 q 842 1056 860 1056 q 817 1065 826 1056 q 807 1089 807 1075 q 817 1115 807 1101 l 917 1256 q 967 1285 936 1285 q 1003 1269 988 1285 q 1019 1233 1019 1254 q 999 1190 1019 1210 l 878 1072 z "},"Ŵ":{"ha":1535,"x_min":110,"x_max":1517,"o":"m 1389 943 q 1416 976 1397 965 q 1456 988 1435 988 q 1499 972 1481 988 q 1517 931 1517 957 q 1508 896 1517 915 l 1140 39 q 1110 3 1131 15 q 1065 -10 1089 -10 q 1022 4 1042 -10 q 994 43 1001 18 l 800 756 l 492 39 q 461 3 482 15 q 417 -10 440 -10 q 373 4 393 -10 q 346 43 353 18 l 113 897 q 110 921 110 906 q 131 969 110 951 q 182 988 153 988 q 222 976 204 988 q 244 940 239 964 l 436 203 l 750 938 q 779 974 760 961 q 819 988 799 988 q 860 974 842 988 q 883 936 878 960 l 1076 199 l 1389 943 m 740 1079 q 694 1056 721 1056 q 663 1067 676 1056 q 650 1096 650 1079 q 664 1129 650 1114 l 781 1257 q 843 1283 806 1283 q 900 1257 879 1283 l 992 1131 q 1003 1100 1003 1115 q 989 1069 1003 1082 q 956 1056 975 1056 q 910 1085 928 1056 l 839 1199 l 740 1079 z "},"Ẅ":{"ha":1535,"x_min":110,"x_max":1517,"o":"m 1389 943 q 1416 976 1397 965 q 1456 988 1435 988 q 1499 972 1481 988 q 1517 931 1517 957 q 1508 896 1517 915 l 1140 39 q 1110 3 1131 15 q 1065 -10 1089 -10 q 1022 4 1042 -10 q 994 43 1001 18 l 800 756 l 492 39 q 461 3 482 15 q 417 -10 440 -10 q 373 4 393 -10 q 346 43 353 18 l 113 897 q 110 921 110 906 q 131 969 110 951 q 182 988 153 988 q 222 976 204 988 q 244 940 239 964 l 436 203 l 750 938 q 779 974 760 961 q 819 988 799 988 q 860 974 842 988 q 883 936 878 960 l 1076 199 l 1389 943 m 711 1094 q 654 1115 676 1094 q 632 1169 632 1136 q 654 1225 632 1204 q 711 1246 676 1246 q 767 1224 744 1246 q 790 1169 790 1203 q 768 1115 790 1136 q 711 1094 746 1094 m 956 1094 q 900 1115 922 1094 q 878 1169 878 1136 q 900 1224 878 1203 q 956 1246 922 1246 q 1013 1225 990 1246 q 1035 1169 1035 1204 q 1013 1115 1035 1136 q 956 1094 990 1094 z "},"Ẁ":{"ha":1535,"x_min":110,"x_max":1517,"o":"m 1389 943 q 1416 976 1397 965 q 1456 988 1435 988 q 1499 972 1481 988 q 1517 931 1517 957 q 1508 896 1517 915 l 1140 39 q 1110 3 1131 15 q 1065 -10 1089 -10 q 1022 4 1042 -10 q 994 43 1001 18 l 800 756 l 492 39 q 461 3 482 15 q 417 -10 440 -10 q 373 4 393 -10 q 346 43 353 18 l 113 897 q 110 921 110 906 q 131 969 110 951 q 182 988 153 988 q 222 976 204 988 q 244 940 239 964 l 436 203 l 750 938 q 779 974 760 961 q 819 988 799 988 q 860 974 842 988 q 883 936 878 960 l 1076 199 l 1389 943 m 668 1199 q 653 1236 653 1215 q 669 1272 653 1257 q 707 1286 686 1286 q 756 1254 738 1286 l 839 1110 q 844 1089 844 1100 q 833 1065 844 1075 q 807 1056 822 1056 q 772 1072 785 1056 l 668 1199 z "},"X":{"ha":908,"x_min":24,"x_max":894,"o":"m 779 963 q 829 988 800 988 q 874 968 854 988 q 894 924 894 949 q 875 878 894 899 l 550 499 l 833 101 q 847 61 847 82 q 825 13 847 33 q 775 -8 803 -8 q 726 19 744 -8 l 460 399 l 138 17 q 86 -8 117 -8 q 42 10 61 -8 q 24 54 24 28 q 43 103 24 79 l 385 503 l 119 878 q 107 917 107 894 q 130 967 107 946 q 181 988 153 988 q 228 961 210 988 l 475 603 l 779 963 z "},"Y":{"ha":849,"x_min":60,"x_max":878,"o":"m 758 957 q 815 988 783 988 q 859 969 840 988 q 878 926 878 951 q 858 879 878 900 l 506 457 l 475 63 q 451 11 472 29 q 400 -7 429 -7 q 349 12 368 -7 q 331 65 329 31 l 363 456 l 72 881 q 60 918 60 900 q 82 966 60 946 q 132 986 104 986 q 182 957 164 986 l 440 575 l 758 957 z "},"Ý":{"ha":849,"x_min":60,"x_max":878,"o":"m 758 957 q 815 988 783 988 q 859 969 840 988 q 878 926 878 951 q 858 879 878 900 l 506 457 l 475 63 q 451 11 472 29 q 400 -7 429 -7 q 349 12 368 -7 q 331 65 329 31 l 363 456 l 72 881 q 60 918 60 900 q 82 966 60 946 q 132 986 104 986 q 182 957 164 986 l 440 575 l 758 957 m 535 1072 q 499 1056 517 1056 q 474 1065 483 1056 q 464 1089 464 1075 q 474 1115 464 1101 l 574 1256 q 624 1285 593 1285 q 660 1269 644 1285 q 676 1233 676 1254 q 656 1190 676 1210 l 535 1072 z "},"Ŷ":{"ha":849,"x_min":60,"x_max":878,"o":"m 758 957 q 815 988 783 988 q 859 969 840 988 q 878 926 878 951 q 858 879 878 900 l 506 457 l 475 63 q 451 11 472 29 q 400 -7 429 -7 q 349 12 368 -7 q 331 65 329 31 l 363 456 l 72 881 q 60 918 60 900 q 82 966 60 946 q 132 986 104 986 q 182 957 164 986 l 440 575 l 758 957 m 397 1079 q 351 1056 378 1056 q 320 1067 333 1056 q 307 1096 307 1079 q 321 1129 307 1114 l 438 1257 q 500 1283 463 1283 q 557 1257 536 1283 l 649 1131 q 660 1100 660 1115 q 646 1069 660 1082 q 613 1056 632 1056 q 567 1085 585 1056 l 496 1199 l 397 1079 z "},"Ÿ":{"ha":849,"x_min":60,"x_max":878,"o":"m 758 957 q 815 988 783 988 q 859 969 840 988 q 878 926 878 951 q 858 879 878 900 l 506 457 l 475 63 q 451 11 472 29 q 400 -7 429 -7 q 349 12 368 -7 q 331 65 329 31 l 363 456 l 72 881 q 60 918 60 900 q 82 966 60 946 q 132 986 104 986 q 182 957 164 986 l 440 575 l 758 957 m 368 1094 q 311 1115 333 1094 q 289 1169 289 1136 q 311 1225 289 1204 q 368 1246 333 1246 q 424 1224 401 1246 q 447 1169 447 1203 q 425 1115 447 1136 q 368 1094 403 1094 m 613 1094 q 557 1115 579 1094 q 535 1169 535 1136 q 557 1224 535 1203 q 613 1246 579 1246 q 669 1225 647 1246 q 692 1169 692 1204 q 669 1115 692 1136 q 613 1094 647 1094 z "},"Ẏ":{"ha":849,"x_min":60,"x_max":878,"o":"m 758 957 q 815 988 783 988 q 859 969 840 988 q 878 926 878 951 q 858 879 878 900 l 506 457 l 475 63 q 451 11 472 29 q 400 -7 429 -7 q 349 12 368 -7 q 331 65 329 31 l 363 456 l 72 881 q 60 918 60 900 q 82 966 60 946 q 132 986 104 986 q 182 957 164 986 l 440 575 l 758 957 m 490 1089 q 426 1111 450 1089 q 403 1169 403 1133 q 426 1228 403 1207 q 490 1250 450 1250 q 553 1228 529 1250 q 578 1169 578 1207 q 554 1111 578 1133 q 490 1089 531 1089 z "},"Ỵ":{"ha":849,"x_min":60,"x_max":878,"o":"m 758 957 q 815 988 783 988 q 859 969 840 988 q 878 926 878 951 q 858 879 878 900 l 506 457 l 475 63 q 451 11 472 29 q 400 -7 429 -7 q 349 12 368 -7 q 331 65 329 31 l 363 456 l 72 881 q 60 918 60 900 q 82 966 60 946 q 132 986 104 986 q 182 957 164 986 l 440 575 l 758 957 m 382 -267 q 324 -245 346 -267 q 301 -189 301 -224 q 324 -133 301 -154 q 382 -112 346 -112 q 440 -134 417 -112 q 463 -189 463 -156 q 440 -245 463 -224 q 382 -267 418 -267 z "},"Ỳ":{"ha":849,"x_min":60,"x_max":878,"o":"m 758 957 q 815 988 783 988 q 859 969 840 988 q 878 926 878 951 q 858 879 878 900 l 506 457 l 475 63 q 451 11 472 29 q 400 -7 429 -7 q 349 12 368 -7 q 331 65 329 31 l 363 456 l 72 881 q 60 918 60 900 q 82 966 60 946 q 132 986 104 986 q 182 957 164 986 l 440 575 l 758 957 m 325 1199 q 310 1236 310 1215 q 326 1272 310 1257 q 364 1286 343 1286 q 413 1254 394 1286 l 496 1110 q 501 1089 501 1100 q 490 1065 501 1075 q 464 1056 479 1056 q 429 1072 442 1056 l 325 1199 z "},"Ỷ":{"ha":849,"x_min":60,"x_max":878,"o":"m 758 957 q 815 988 783 988 q 859 969 840 988 q 878 926 878 951 q 858 879 878 900 l 506 457 l 475 63 q 451 11 472 29 q 400 -7 429 -7 q 349 12 368 -7 q 331 65 329 31 l 363 456 l 72 881 q 60 918 60 900 q 82 966 60 946 q 132 986 104 986 q 182 957 164 986 l 440 575 l 758 957 m 526 1082 q 510 1063 522 1069 q 485 1056 499 1056 q 456 1065 468 1056 q 444 1089 444 1074 q 460 1128 444 1114 q 504 1154 476 1142 q 533 1171 524 1164 q 542 1188 542 1178 q 493 1210 542 1210 q 419 1199 461 1210 q 390 1204 401 1194 q 379 1228 379 1214 q 387 1249 379 1239 q 407 1264 394 1258 q 508 1281 447 1281 q 607 1258 571 1281 q 643 1199 643 1235 q 626 1153 643 1168 q 575 1122 610 1139 q 540 1102 551 1110 q 526 1082 529 1094 z "},"Ȳ":{"ha":849,"x_min":60,"x_max":878,"o":"m 758 957 q 815 988 783 988 q 859 969 840 988 q 878 926 878 951 q 858 879 878 900 l 506 457 l 475 63 q 451 11 472 29 q 400 -7 429 -7 q 349 12 368 -7 q 331 65 329 31 l 363 456 l 72 881 q 60 918 60 900 q 82 966 60 946 q 132 986 104 986 q 182 957 164 986 l 440 575 l 758 957 m 318 1121 q 281 1133 294 1121 q 267 1168 267 1146 q 283 1205 267 1192 q 325 1218 299 1218 l 663 1218 q 700 1205 686 1218 q 714 1169 714 1192 q 698 1133 714 1146 q 656 1121 682 1121 l 318 1121 z "},"Ỹ":{"ha":849,"x_min":60,"x_max":878,"o":"m 758 957 q 815 988 783 988 q 859 969 840 988 q 878 926 878 951 q 858 879 878 900 l 506 457 l 475 63 q 451 11 472 29 q 400 -7 429 -7 q 349 12 368 -7 q 331 65 329 31 l 363 456 l 72 881 q 60 918 60 900 q 82 966 60 946 q 132 986 104 986 q 182 957 164 986 l 440 575 l 758 957 m 583 1089 q 536 1097 560 1089 q 476 1124 513 1106 q 432 1143 454 1135 q 393 1151 410 1151 q 357 1142 371 1151 q 328 1117 343 1133 q 310 1098 317 1103 q 293 1093 303 1093 q 271 1104 279 1093 q 263 1132 263 1115 q 279 1186 263 1158 q 327 1233 296 1214 q 397 1251 358 1251 q 444 1243 421 1251 q 504 1217 468 1235 q 549 1197 526 1206 q 588 1189 571 1189 q 625 1198 611 1189 q 651 1224 639 1207 q 669 1242 663 1238 q 686 1247 676 1247 q 710 1237 701 1247 q 718 1210 718 1226 q 701 1155 718 1183 q 653 1108 685 1126 q 583 1089 622 1089 z "},"Z":{"ha":826,"x_min":31,"x_max":819,"o":"m 761 979 q 804 963 789 979 q 819 922 819 947 q 799 868 819 896 l 215 117 l 706 117 q 753 102 736 117 q 769 61 769 88 q 699 0 769 0 l 89 0 q 47 16 63 0 q 31 57 31 32 q 51 111 31 85 l 635 863 l 161 863 q 115 877 131 863 q 99 917 99 892 q 168 979 99 979 l 761 979 z "},"Ź":{"ha":826,"x_min":31,"x_max":819,"o":"m 761 979 q 804 963 789 979 q 819 922 819 947 q 799 868 819 896 l 215 117 l 706 117 q 753 102 736 117 q 769 61 769 88 q 699 0 769 0 l 89 0 q 47 16 63 0 q 31 57 31 32 q 51 111 31 85 l 635 863 l 161 863 q 115 877 131 863 q 99 917 99 892 q 168 979 99 979 l 761 979 m 525 1072 q 489 1056 507 1056 q 464 1065 474 1056 q 454 1089 454 1075 q 464 1115 454 1101 l 564 1256 q 614 1285 583 1285 q 651 1269 635 1285 q 667 1233 667 1254 q 646 1190 667 1210 l 525 1072 z "},"Ž":{"ha":826,"x_min":31,"x_max":819,"o":"m 761 979 q 804 963 789 979 q 819 922 819 947 q 799 868 819 896 l 215 117 l 706 117 q 753 102 736 117 q 769 61 769 88 q 699 0 769 0 l 89 0 q 47 16 63 0 q 31 57 31 32 q 51 111 31 85 l 635 863 l 161 863 q 115 877 131 863 q 99 917 99 892 q 168 979 99 979 l 761 979 m 571 1258 q 617 1282 590 1282 q 649 1270 636 1282 q 663 1242 663 1258 q 647 1208 663 1224 l 532 1081 q 469 1054 507 1054 q 413 1081 431 1054 l 319 1206 q 308 1236 308 1221 q 323 1267 308 1254 q 357 1281 338 1281 q 403 1253 386 1281 l 474 1139 l 571 1258 z "},"Ż":{"ha":826,"x_min":31,"x_max":819,"o":"m 761 979 q 804 963 789 979 q 819 922 819 947 q 799 868 819 896 l 215 117 l 706 117 q 753 102 736 117 q 769 61 769 88 q 699 0 769 0 l 89 0 q 47 16 63 0 q 31 57 31 32 q 51 111 31 85 l 635 863 l 161 863 q 115 877 131 863 q 99 917 99 892 q 168 979 99 979 l 761 979 m 481 1089 q 417 1111 440 1089 q 393 1169 393 1133 q 417 1228 393 1207 q 481 1250 440 1250 q 544 1228 519 1250 q 568 1169 568 1207 q 544 1111 568 1133 q 481 1089 521 1089 z "},"Ẓ":{"ha":826,"x_min":31,"x_max":819,"o":"m 761 979 q 804 963 789 979 q 819 922 819 947 q 799 868 819 896 l 215 117 l 706 117 q 753 102 736 117 q 769 61 769 88 q 699 0 769 0 l 89 0 q 47 16 63 0 q 31 57 31 32 q 51 111 31 85 l 635 863 l 161 863 q 115 877 131 863 q 99 917 99 892 q 168 979 99 979 l 761 979 m 375 -267 q 317 -245 339 -267 q 294 -189 294 -224 q 317 -133 294 -154 q 375 -112 339 -112 q 433 -134 410 -112 q 456 -189 456 -156 q 433 -245 456 -224 q 375 -267 411 -267 z "},"a":{"ha":743,"x_min":63,"x_max":656,"o":"m 399 694 q 656 456 656 694 q 654 415 656 429 l 626 57 q 606 10 625 26 q 557 -7 588 -7 q 508 12 526 -7 q 493 60 490 31 l 496 107 q 415 20 467 50 q 296 -10 364 -10 q 128 45 194 -10 q 63 186 63 100 q 103 309 63 264 q 231 375 143 354 q 468 396 319 396 l 518 396 l 521 431 q 493 547 526 510 q 385 583 460 583 q 182 522 293 583 q 154 515 169 515 q 119 531 133 515 q 106 567 106 546 q 140 622 106 600 q 259 675 190 656 q 399 694 328 694 m 329 94 q 451 146 401 94 q 508 278 501 197 l 511 317 l 472 317 q 311 306 369 317 q 228 269 253 294 q 203 200 203 244 q 237 123 203 151 q 329 94 271 94 z "},"á":{"ha":743,"x_min":63,"x_max":664,"o":"m 399 694 q 656 456 656 694 q 654 415 656 429 l 626 57 q 606 10 625 26 q 557 -7 588 -7 q 508 12 526 -7 q 493 60 490 31 l 496 107 q 415 20 467 50 q 296 -10 364 -10 q 128 45 194 -10 q 63 186 63 100 q 103 309 63 264 q 231 375 143 354 q 468 396 319 396 l 518 396 l 521 431 q 493 547 526 510 q 385 583 460 583 q 182 522 293 583 q 154 515 169 515 q 119 531 133 515 q 106 567 106 546 q 140 622 106 600 q 259 675 190 656 q 399 694 328 694 m 329 94 q 451 146 401 94 q 508 278 501 197 l 511 317 l 472 317 q 311 306 369 317 q 228 269 253 294 q 203 200 203 244 q 237 123 203 151 q 329 94 271 94 m 467 779 q 429 761 449 761 q 403 771 414 761 q 393 796 393 781 q 401 822 393 808 l 547 1024 q 601 1057 569 1057 q 645 1040 626 1057 q 664 999 664 1022 q 643 953 664 974 l 467 779 z "},"ă":{"ha":743,"x_min":63,"x_max":661,"o":"m 399 694 q 656 456 656 694 q 654 415 656 429 l 626 57 q 606 10 625 26 q 557 -7 588 -7 q 508 12 526 -7 q 493 60 490 31 l 496 107 q 415 20 467 50 q 296 -10 364 -10 q 128 45 194 -10 q 63 186 63 100 q 103 309 63 264 q 231 375 143 354 q 468 396 319 396 l 518 396 l 521 431 q 493 547 526 510 q 385 583 460 583 q 182 522 293 583 q 154 515 169 515 q 119 531 133 515 q 106 567 106 546 q 140 622 106 600 q 259 675 190 656 q 399 694 328 694 m 329 94 q 451 146 401 94 q 508 278 501 197 l 511 317 l 472 317 q 311 306 369 317 q 228 269 253 294 q 203 200 203 244 q 237 123 203 151 q 329 94 271 94 m 422 806 q 292 844 347 806 q 208 951 236 882 q 204 972 204 963 q 219 1005 204 992 q 251 1018 233 1018 q 293 989 279 1018 q 348 925 313 947 q 429 903 383 903 q 574 989 519 903 q 619 1018 592 1018 q 649 1007 636 1018 q 661 978 661 996 q 654 951 661 968 q 561 844 624 883 q 422 806 499 806 z "},"ắ":{"ha":743,"x_min":63,"x_max":656,"o":"m 399 694 q 656 456 656 694 q 654 415 656 429 l 626 57 q 606 10 625 26 q 557 -7 588 -7 q 508 12 526 -7 q 493 60 490 31 l 496 107 q 415 20 467 50 q 296 -10 364 -10 q 128 45 194 -10 q 63 186 63 100 q 103 309 63 264 q 231 375 143 354 q 468 396 319 396 l 518 396 l 521 431 q 493 547 526 510 q 385 583 460 583 q 182 522 293 583 q 154 515 169 515 q 119 531 133 515 q 106 567 106 546 q 140 622 106 600 q 259 675 190 656 q 399 694 328 694 m 329 94 q 451 146 401 94 q 508 278 501 197 l 511 317 l 472 317 q 311 306 369 317 q 228 269 253 294 q 203 200 203 244 q 237 123 203 151 q 329 94 271 94 m 471 914 q 443 903 458 903 q 420 911 429 903 q 411 933 411 919 q 419 956 411 943 l 519 1092 q 567 1121 539 1121 q 603 1105 588 1121 q 619 1069 619 1089 q 601 1032 619 1049 l 471 914 m 421 760 q 292 790 346 760 q 211 875 238 819 q 204 900 204 889 q 215 928 204 917 q 242 939 226 939 q 276 919 263 939 q 426 844 325 844 q 578 919 517 844 q 617 940 597 940 q 642 931 632 940 q 651 906 651 921 q 642 875 651 890 q 549 790 607 819 q 421 760 490 760 z "},"ặ":{"ha":743,"x_min":63,"x_max":661,"o":"m 399 694 q 656 456 656 694 q 654 415 656 429 l 626 57 q 606 10 625 26 q 557 -7 588 -7 q 508 12 526 -7 q 493 60 490 31 l 496 107 q 415 20 467 50 q 296 -10 364 -10 q 128 45 194 -10 q 63 186 63 100 q 103 309 63 264 q 231 375 143 354 q 468 396 319 396 l 518 396 l 521 431 q 493 547 526 510 q 385 583 460 583 q 182 522 293 583 q 154 515 169 515 q 119 531 133 515 q 106 567 106 546 q 140 622 106 600 q 259 675 190 656 q 399 694 328 694 m 329 94 q 451 146 401 94 q 508 278 501 197 l 511 317 l 472 317 q 311 306 369 317 q 228 269 253 294 q 203 200 203 244 q 237 123 203 151 q 329 94 271 94 m 336 -267 q 278 -245 300 -267 q 256 -189 256 -224 q 278 -133 256 -154 q 336 -112 300 -112 q 394 -134 371 -112 q 417 -189 417 -156 q 394 -245 417 -224 q 336 -267 372 -267 m 422 806 q 292 844 347 806 q 208 951 236 882 q 204 972 204 963 q 219 1005 204 992 q 251 1018 233 1018 q 293 989 279 1018 q 348 925 313 947 q 429 903 383 903 q 574 989 519 903 q 619 1018 592 1018 q 649 1007 636 1018 q 661 978 661 996 q 654 951 661 968 q 561 844 624 883 q 422 806 499 806 z "},"ằ":{"ha":743,"x_min":63,"x_max":656,"o":"m 399 694 q 656 456 656 694 q 654 415 656 429 l 626 57 q 606 10 625 26 q 557 -7 588 -7 q 508 12 526 -7 q 493 60 490 31 l 496 107 q 415 20 467 50 q 296 -10 364 -10 q 128 45 194 -10 q 63 186 63 100 q 103 309 63 264 q 231 375 143 354 q 468 396 319 396 l 518 396 l 521 431 q 493 547 526 510 q 385 583 460 583 q 182 522 293 583 q 154 515 169 515 q 119 531 133 515 q 106 567 106 546 q 140 622 106 600 q 259 675 190 656 q 399 694 328 694 m 329 94 q 451 146 401 94 q 508 278 501 197 l 511 317 l 472 317 q 311 306 369 317 q 228 269 253 294 q 203 200 203 244 q 237 123 203 151 q 329 94 271 94 m 275 1036 q 258 1072 258 1056 q 274 1106 258 1092 q 308 1119 289 1119 q 354 1092 336 1119 l 439 957 q 446 938 446 946 q 436 914 446 924 q 411 904 426 904 q 381 918 394 904 l 275 1036 m 421 760 q 292 790 346 760 q 211 875 238 819 q 204 900 204 889 q 215 928 204 917 q 242 939 226 939 q 276 919 263 939 q 426 844 325 844 q 578 919 517 844 q 617 940 597 940 q 642 931 632 940 q 651 906 651 921 q 642 875 651 890 q 549 790 607 819 q 421 760 490 760 z "},"ẳ":{"ha":743,"x_min":63,"x_max":656,"o":"m 399 694 q 656 456 656 694 q 654 415 656 429 l 626 57 q 606 10 625 26 q 557 -7 588 -7 q 508 12 526 -7 q 493 60 490 31 l 496 107 q 415 20 467 50 q 296 -10 364 -10 q 128 45 194 -10 q 63 186 63 100 q 103 309 63 264 q 231 375 143 354 q 468 396 319 396 l 518 396 l 521 431 q 493 547 526 510 q 385 583 460 583 q 182 522 293 583 q 154 515 169 515 q 119 531 133 515 q 106 567 106 546 q 140 622 106 600 q 259 675 190 656 q 399 694 328 694 m 329 94 q 451 146 401 94 q 508 278 501 197 l 511 317 l 472 317 q 311 306 369 317 q 228 269 253 294 q 203 200 203 244 q 237 123 203 151 q 329 94 271 94 m 471 929 q 456 912 468 918 q 431 906 444 906 q 402 914 414 906 q 392 940 390 922 q 409 976 393 964 q 453 1000 425 989 q 480 1013 472 1008 q 488 1026 488 1018 q 439 1046 488 1046 q 365 1036 411 1046 q 336 1043 347 1035 q 325 1065 325 1051 q 351 1099 325 1089 q 456 1115 394 1115 q 553 1094 517 1115 q 589 1038 589 1072 q 571 994 589 1008 q 519 964 553 979 q 485 947 496 954 q 471 929 474 940 m 421 760 q 292 790 346 760 q 211 875 238 819 q 204 900 204 889 q 215 928 204 917 q 242 939 226 939 q 276 919 263 939 q 426 844 325 844 q 578 919 517 844 q 617 940 597 940 q 642 931 632 940 q 651 906 651 921 q 642 875 651 890 q 549 790 607 819 q 421 760 490 760 z "},"ẵ":{"ha":743,"x_min":63,"x_max":667,"o":"m 399 694 q 656 456 656 694 q 654 415 656 429 l 626 57 q 606 10 625 26 q 557 -7 588 -7 q 508 12 526 -7 q 493 60 490 31 l 496 107 q 415 20 467 50 q 296 -10 364 -10 q 128 45 194 -10 q 63 186 63 100 q 103 309 63 264 q 231 375 143 354 q 468 396 319 396 l 518 396 l 521 431 q 493 547 526 510 q 385 583 460 583 q 182 522 293 583 q 154 515 169 515 q 119 531 133 515 q 106 567 106 546 q 140 622 106 600 q 259 675 190 656 q 399 694 328 694 m 329 94 q 451 146 401 94 q 508 278 501 197 l 511 317 l 472 317 q 311 306 369 317 q 228 269 253 294 q 203 200 203 244 q 237 123 203 151 q 329 94 271 94 m 533 975 q 419 1006 492 975 q 375 1022 397 1015 q 338 1029 353 1029 q 306 1022 318 1029 q 278 999 293 1014 q 260 982 268 988 q 242 976 251 976 q 219 986 228 976 q 211 1011 211 996 q 229 1056 211 1032 q 278 1098 247 1081 q 344 1115 308 1115 q 393 1108 368 1115 q 456 1085 418 1100 q 490 1071 463 1082 q 539 1060 518 1060 q 572 1068 560 1060 q 599 1092 585 1076 q 618 1109 611 1104 q 635 1114 625 1114 q 658 1104 650 1114 q 667 1078 667 1094 q 649 1033 667 1057 q 600 992 631 1008 q 533 975 569 975 m 421 760 q 292 790 346 760 q 211 875 238 819 q 204 900 204 889 q 215 928 204 917 q 242 940 226 940 q 276 919 263 940 q 426 844 324 844 q 578 919 517 844 q 617 940 597 940 q 642 931 632 940 q 651 906 651 921 q 642 875 651 890 q 549 790 607 819 q 421 760 490 760 z "},"ǎ":{"ha":743,"x_min":63,"x_max":656,"o":"m 399 694 q 656 456 656 694 q 654 415 656 429 l 626 57 q 606 10 625 26 q 557 -7 588 -7 q 508 12 526 -7 q 493 60 490 31 l 496 107 q 415 20 467 50 q 296 -10 364 -10 q 128 45 194 -10 q 63 186 63 100 q 103 309 63 264 q 231 375 143 354 q 468 396 319 396 l 518 396 l 521 431 q 493 547 526 510 q 385 583 460 583 q 182 522 293 583 q 154 515 169 515 q 119 531 133 515 q 106 567 106 546 q 140 622 106 600 q 259 675 190 656 q 399 694 328 694 m 329 94 q 451 146 401 94 q 508 278 501 197 l 511 317 l 472 317 q 311 306 369 317 q 228 269 253 294 q 203 200 203 244 q 237 123 203 151 q 329 94 271 94 m 517 1024 q 565 1054 533 1054 q 601 1041 586 1054 q 615 1008 615 1028 q 604 975 615 990 l 485 799 q 453 769 472 779 q 415 760 435 760 q 380 769 397 760 q 353 799 363 779 l 260 981 q 253 1007 253 993 q 269 1041 253 1028 q 306 1054 285 1054 q 354 1021 339 1054 l 424 861 l 517 1024 z "},"â":{"ha":743,"x_min":63,"x_max":656,"o":"m 399 694 q 656 456 656 694 q 654 415 656 429 l 626 57 q 606 10 625 26 q 557 -7 588 -7 q 508 12 526 -7 q 493 60 490 31 l 496 107 q 415 20 467 50 q 296 -10 364 -10 q 128 45 194 -10 q 63 186 63 100 q 103 309 63 264 q 231 375 143 354 q 468 396 319 396 l 518 396 l 521 431 q 493 547 526 510 q 385 583 460 583 q 182 522 293 583 q 154 515 169 515 q 119 531 133 515 q 106 567 106 546 q 140 622 106 600 q 259 675 190 656 q 399 694 328 694 m 329 94 q 451 146 401 94 q 508 278 501 197 l 511 317 l 472 317 q 311 306 369 317 q 228 269 253 294 q 203 200 203 244 q 237 123 203 151 q 329 94 271 94 m 338 792 q 289 760 319 760 q 253 773 268 760 q 239 806 239 786 q 251 839 239 822 l 371 1017 q 403 1045 385 1035 q 440 1056 421 1056 q 475 1046 458 1056 q 501 1017 492 1036 l 596 835 q 603 810 603 821 q 587 775 603 789 q 549 761 571 761 q 521 769 533 761 q 501 794 508 778 l 432 954 l 338 792 z "},"ấ":{"ha":743,"x_min":63,"x_max":769,"o":"m 399 694 q 656 456 656 694 q 654 415 656 429 l 626 57 q 606 10 625 26 q 557 -7 588 -7 q 508 12 526 -7 q 493 60 490 31 l 496 107 q 415 20 467 50 q 296 -10 364 -10 q 128 45 194 -10 q 63 186 63 100 q 103 309 63 264 q 231 375 143 354 q 468 396 319 396 l 518 396 l 521 431 q 493 547 526 510 q 385 583 460 583 q 182 522 293 583 q 154 515 169 515 q 119 531 133 515 q 106 567 106 546 q 140 622 106 600 q 259 675 190 656 q 399 694 328 694 m 329 94 q 451 146 401 94 q 508 278 501 197 l 511 317 l 472 317 q 311 306 369 317 q 228 269 253 294 q 203 200 203 244 q 237 123 203 151 q 329 94 271 94 m 625 915 q 599 904 614 904 q 575 913 585 904 q 565 936 565 922 q 574 958 565 946 l 671 1092 q 718 1118 690 1118 q 754 1103 739 1118 q 769 1069 769 1089 q 747 1026 769 1044 l 625 915 m 328 776 q 292 758 311 758 q 260 772 274 758 q 247 803 247 785 q 263 836 247 821 l 374 951 q 435 979 401 979 q 490 951 468 979 l 582 833 q 594 803 594 819 q 581 772 594 785 q 547 760 567 760 q 506 782 522 760 l 429 893 l 328 776 z "},"ậ":{"ha":743,"x_min":63,"x_max":656,"o":"m 399 694 q 656 456 656 694 q 654 415 656 429 l 626 57 q 606 10 625 26 q 557 -7 588 -7 q 508 12 526 -7 q 493 60 490 31 l 496 107 q 415 20 467 50 q 296 -10 364 -10 q 128 45 194 -10 q 63 186 63 100 q 103 309 63 264 q 231 375 143 354 q 468 396 319 396 l 518 396 l 521 431 q 493 547 526 510 q 385 583 460 583 q 182 522 293 583 q 154 515 169 515 q 119 531 133 515 q 106 567 106 546 q 140 622 106 600 q 259 675 190 656 q 399 694 328 694 m 329 94 q 451 146 401 94 q 508 278 501 197 l 511 317 l 472 317 q 311 306 369 317 q 228 269 253 294 q 203 200 203 244 q 237 123 203 151 q 329 94 271 94 m 336 -267 q 278 -245 300 -267 q 256 -189 256 -224 q 278 -133 256 -154 q 336 -112 300 -112 q 394 -134 371 -112 q 417 -189 417 -156 q 394 -245 417 -224 q 336 -267 372 -267 m 338 792 q 289 760 319 760 q 253 773 268 760 q 239 806 239 786 q 251 839 239 822 l 371 1017 q 403 1045 385 1035 q 440 1056 421 1056 q 475 1046 458 1056 q 501 1017 492 1036 l 596 835 q 603 810 603 821 q 587 775 603 789 q 549 761 571 761 q 521 769 533 761 q 501 794 508 778 l 432 954 l 338 792 z "},"ầ":{"ha":743,"x_min":63,"x_max":667,"o":"m 399 694 q 656 456 656 694 q 654 415 656 429 l 626 57 q 606 10 625 26 q 557 -7 588 -7 q 508 12 526 -7 q 493 60 490 31 l 496 107 q 415 20 467 50 q 296 -10 364 -10 q 128 45 194 -10 q 63 186 63 100 q 103 309 63 264 q 231 375 143 354 q 468 396 319 396 l 518 396 l 521 431 q 493 547 526 510 q 385 583 460 583 q 182 522 293 583 q 154 515 169 515 q 119 531 133 515 q 106 567 106 546 q 140 622 106 600 q 259 675 190 656 q 399 694 328 694 m 329 94 q 451 146 401 94 q 508 278 501 197 l 511 317 l 472 317 q 311 306 369 317 q 228 269 253 294 q 203 200 203 244 q 237 123 203 151 q 329 94 271 94 m 515 1038 q 504 1069 504 1053 q 522 1105 504 1090 q 561 1119 539 1119 q 607 1088 594 1119 l 664 953 q 667 938 667 947 q 656 914 667 924 q 632 904 646 904 q 604 918 617 904 l 515 1038 m 328 776 q 292 758 311 758 q 260 772 274 758 q 247 803 247 785 q 263 836 247 821 l 374 951 q 435 979 401 979 q 490 951 468 979 l 582 833 q 594 803 594 819 q 581 772 594 785 q 547 760 567 760 q 506 782 522 760 l 429 893 l 328 776 z "},"ẩ":{"ha":743,"x_min":63,"x_max":750,"o":"m 399 694 q 656 456 656 694 q 654 415 656 429 l 626 57 q 606 10 625 26 q 557 -7 588 -7 q 508 12 526 -7 q 493 60 490 31 l 496 107 q 415 20 467 50 q 296 -10 364 -10 q 128 45 194 -10 q 63 186 63 100 q 103 309 63 264 q 231 375 143 354 q 468 396 319 396 l 518 396 l 521 431 q 493 547 526 510 q 385 583 460 583 q 182 522 293 583 q 154 515 169 515 q 119 531 133 515 q 106 567 106 546 q 140 622 106 600 q 259 675 190 656 q 399 694 328 694 m 329 94 q 451 146 401 94 q 508 278 501 197 l 511 317 l 472 317 q 311 306 369 317 q 228 269 253 294 q 203 200 203 244 q 237 123 203 151 q 329 94 271 94 m 632 929 q 617 912 629 918 q 592 906 606 906 q 564 914 575 906 q 553 938 553 922 q 569 975 553 963 q 617 1001 586 988 q 630 1008 619 1003 q 645 1017 640 1013 q 650 1026 650 1021 q 600 1046 650 1046 q 526 1038 579 1046 q 497 1044 508 1036 q 486 1067 486 1053 q 493 1085 486 1076 q 513 1100 500 1094 q 615 1117 558 1117 q 715 1094 679 1117 q 750 1038 750 1072 q 732 993 750 1008 q 679 964 714 978 q 646 947 657 954 q 632 929 635 940 m 328 776 q 292 758 311 758 q 260 772 274 758 q 247 803 247 785 q 263 836 247 821 l 374 951 q 435 979 401 979 q 490 951 468 979 l 582 833 q 594 803 594 819 q 581 772 594 785 q 547 760 567 760 q 506 782 522 760 l 429 893 l 328 776 z "},"ẫ":{"ha":743,"x_min":63,"x_max":667,"o":"m 399 694 q 656 456 656 694 q 654 415 656 429 l 626 57 q 606 10 625 26 q 557 -7 588 -7 q 508 12 526 -7 q 493 60 490 31 l 496 107 q 415 20 467 50 q 296 -10 364 -10 q 128 45 194 -10 q 63 186 63 100 q 103 309 63 264 q 231 375 143 354 q 468 396 319 396 l 518 396 l 521 431 q 493 547 526 510 q 385 583 460 583 q 182 522 293 583 q 154 515 169 515 q 119 531 133 515 q 106 567 106 546 q 140 622 106 600 q 259 675 190 656 q 399 694 328 694 m 329 94 q 451 146 401 94 q 508 278 501 197 l 511 317 l 472 317 q 311 306 369 317 q 228 269 253 294 q 203 200 203 244 q 237 123 203 151 q 329 94 271 94 m 533 990 q 422 1019 496 990 q 376 1036 399 1029 q 339 1043 354 1043 q 307 1035 319 1043 q 279 1013 294 1028 q 260 997 268 1001 q 243 992 253 992 q 213 1026 213 992 q 230 1071 213 1047 q 278 1111 247 1094 q 344 1128 308 1128 q 396 1120 369 1128 q 458 1099 422 1113 q 503 1082 481 1089 q 540 1075 525 1075 q 572 1083 560 1075 q 600 1106 585 1090 q 635 1126 618 1126 q 658 1117 650 1126 q 667 1092 667 1107 q 649 1047 667 1071 q 600 1007 631 1024 q 533 990 569 990 m 328 776 q 292 758 311 758 q 260 772 274 758 q 247 803 247 785 q 263 836 247 821 l 374 951 q 435 979 401 979 q 490 951 468 979 l 582 833 q 594 803 594 819 q 581 772 594 785 q 547 760 567 760 q 506 782 522 760 l 429 893 l 328 776 z "},"ȁ":{"ha":743,"x_min":63,"x_max":656,"o":"m 399 694 q 656 456 656 694 q 654 415 656 429 l 626 57 q 606 10 625 26 q 557 -7 588 -7 q 508 12 526 -7 q 493 60 490 31 l 496 107 q 415 20 467 50 q 296 -10 364 -10 q 128 45 194 -10 q 63 186 63 100 q 103 309 63 264 q 231 375 143 354 q 468 396 319 396 l 518 396 l 521 431 q 493 547 526 510 q 385 583 460 583 q 182 522 293 583 q 154 515 169 515 q 119 531 133 515 q 106 567 106 546 q 140 622 106 600 q 259 675 190 656 q 399 694 328 694 m 329 94 q 451 146 401 94 q 508 278 501 197 l 511 317 l 472 317 q 311 306 369 317 q 228 269 253 294 q 203 200 203 244 q 237 123 203 151 q 329 94 271 94 m 228 986 q 224 1007 224 997 q 240 1043 224 1029 q 276 1057 256 1057 q 311 1044 296 1057 q 328 1006 326 1031 l 356 796 q 348 768 357 778 q 325 758 339 758 q 306 765 315 758 q 293 782 297 771 l 228 986 m 403 986 q 400 1007 400 993 q 416 1043 400 1029 q 453 1057 432 1057 q 487 1044 472 1057 q 503 1006 501 1031 l 531 796 q 523 768 532 778 q 500 758 514 758 q 481 765 490 758 q 468 782 472 771 l 403 986 z "},"ä":{"ha":743,"x_min":63,"x_max":656,"o":"m 399 694 q 656 456 656 694 q 654 415 656 429 l 626 57 q 606 10 625 26 q 557 -7 588 -7 q 508 12 526 -7 q 493 60 490 31 l 496 107 q 415 20 467 50 q 296 -10 364 -10 q 128 45 194 -10 q 63 186 63 100 q 103 309 63 264 q 231 375 143 354 q 468 396 319 396 l 518 396 l 521 431 q 493 547 526 510 q 385 583 460 583 q 182 522 293 583 q 154 515 169 515 q 119 531 133 515 q 106 567 106 546 q 140 622 106 600 q 259 675 190 656 q 399 694 328 694 m 329 94 q 451 146 401 94 q 508 278 501 197 l 511 317 l 472 317 q 311 306 369 317 q 228 269 253 294 q 203 200 203 244 q 237 123 203 151 q 329 94 271 94 m 306 832 q 249 853 271 832 q 226 908 226 874 q 249 963 226 942 q 306 983 271 983 q 362 963 339 983 q 385 908 385 942 q 363 853 385 874 q 306 832 340 832 m 550 832 q 494 853 517 832 q 472 908 472 875 q 494 963 472 942 q 550 983 517 983 q 607 963 585 983 q 629 908 629 942 q 607 853 629 874 q 550 832 585 832 z "},"ȧ":{"ha":743,"x_min":63,"x_max":656,"o":"m 399 694 q 656 456 656 694 q 654 415 656 429 l 626 57 q 606 10 625 26 q 557 -7 588 -7 q 508 12 526 -7 q 493 60 490 31 l 496 107 q 415 20 467 50 q 296 -10 364 -10 q 128 45 194 -10 q 63 186 63 100 q 103 309 63 264 q 231 375 143 354 q 468 396 319 396 l 518 396 l 521 431 q 493 547 526 510 q 385 583 460 583 q 182 522 293 583 q 154 515 169 515 q 119 531 133 515 q 106 567 106 546 q 140 622 106 600 q 259 675 190 656 q 399 694 328 694 m 329 94 q 451 146 401 94 q 508 278 501 197 l 511 317 l 472 317 q 311 306 369 317 q 228 269 253 294 q 203 200 203 244 q 237 123 203 151 q 329 94 271 94 m 428 828 q 364 850 388 828 q 340 908 340 872 q 364 966 340 944 q 428 988 388 988 q 491 966 467 988 q 515 908 515 944 q 492 850 515 872 q 428 828 468 828 z "},"ạ":{"ha":743,"x_min":63,"x_max":656,"o":"m 399 694 q 656 456 656 694 q 654 415 656 429 l 626 57 q 606 10 625 26 q 557 -7 588 -7 q 508 12 526 -7 q 493 60 490 31 l 496 107 q 415 20 467 50 q 296 -10 364 -10 q 128 45 194 -10 q 63 186 63 100 q 103 309 63 264 q 231 375 143 354 q 468 396 319 396 l 518 396 l 521 431 q 493 547 526 510 q 385 583 460 583 q 182 522 293 583 q 154 515 169 515 q 119 531 133 515 q 106 567 106 546 q 140 622 106 600 q 259 675 190 656 q 399 694 328 694 m 329 94 q 451 146 401 94 q 508 278 501 197 l 511 317 l 472 317 q 311 306 369 317 q 228 269 253 294 q 203 200 203 244 q 237 123 203 151 q 329 94 271 94 m 336 -267 q 278 -245 300 -267 q 256 -189 256 -224 q 278 -133 256 -154 q 336 -112 300 -112 q 394 -134 371 -112 q 417 -189 417 -156 q 394 -245 417 -224 q 336 -267 372 -267 z "},"à":{"ha":743,"x_min":63,"x_max":656,"o":"m 399 694 q 656 456 656 694 q 654 415 656 429 l 626 57 q 606 10 625 26 q 557 -7 588 -7 q 508 12 526 -7 q 493 60 490 31 l 496 107 q 415 20 467 50 q 296 -10 364 -10 q 128 45 194 -10 q 63 186 63 100 q 103 309 63 264 q 231 375 143 354 q 468 396 319 396 l 518 396 l 521 431 q 493 547 526 510 q 385 583 460 583 q 182 522 293 583 q 154 515 169 515 q 119 531 133 515 q 106 567 106 546 q 140 622 106 600 q 259 675 190 656 q 399 694 328 694 m 329 94 q 451 146 401 94 q 508 278 501 197 l 511 317 l 472 317 q 311 306 369 317 q 228 269 253 294 q 203 200 203 244 q 237 123 203 151 q 329 94 271 94 m 253 964 q 240 1003 240 985 q 258 1042 240 1026 q 299 1058 276 1058 q 333 1048 317 1058 q 357 1015 349 1038 l 440 817 q 444 797 444 807 q 433 771 444 781 q 404 761 421 761 q 361 785 376 761 l 253 964 z "},"ả":{"ha":743,"x_min":63,"x_max":656,"o":"m 399 694 q 656 456 656 694 q 654 415 656 429 l 626 57 q 606 10 625 26 q 557 -7 588 -7 q 508 12 526 -7 q 493 60 490 31 l 496 107 q 415 20 467 50 q 296 -10 364 -10 q 128 45 194 -10 q 63 186 63 100 q 103 309 63 264 q 231 375 143 354 q 468 396 319 396 l 518 396 l 521 431 q 493 547 526 510 q 385 583 460 583 q 182 522 293 583 q 154 515 169 515 q 119 531 133 515 q 106 567 106 546 q 140 622 106 600 q 259 675 190 656 q 399 694 328 694 m 329 94 q 451 146 401 94 q 508 278 501 197 l 511 317 l 472 317 q 311 306 369 317 q 228 269 253 294 q 203 200 203 244 q 237 123 203 151 q 329 94 271 94 m 463 797 q 448 769 461 779 q 419 758 435 758 q 392 769 404 758 q 381 800 381 781 q 396 851 381 829 q 440 896 411 872 q 469 925 461 915 q 478 947 478 935 q 428 978 478 978 q 363 967 400 978 q 350 965 358 965 q 328 974 336 965 q 321 996 321 983 q 328 1019 321 1008 q 350 1036 336 1031 q 444 1053 393 1053 q 546 1027 510 1053 q 582 961 582 1001 q 565 908 582 928 q 515 863 549 888 q 478 829 490 843 q 463 797 465 815 z "},"ȃ":{"ha":743,"x_min":63,"x_max":656,"o":"m 399 694 q 656 456 656 694 q 654 415 656 429 l 626 57 q 606 10 625 26 q 557 -7 588 -7 q 508 12 526 -7 q 493 60 490 31 l 496 107 q 415 20 467 50 q 296 -10 364 -10 q 128 45 194 -10 q 63 186 63 100 q 103 309 63 264 q 231 375 143 354 q 468 396 319 396 l 518 396 l 521 431 q 493 547 526 510 q 385 583 460 583 q 182 522 293 583 q 154 515 169 515 q 119 531 133 515 q 106 567 106 546 q 140 622 106 600 q 259 675 190 656 q 399 694 328 694 m 329 94 q 451 146 401 94 q 508 278 501 197 l 511 317 l 472 317 q 311 306 369 317 q 228 269 253 294 q 203 200 203 244 q 237 123 203 151 q 329 94 271 94 m 432 1018 q 563 980 507 1018 q 646 872 618 942 q 650 851 650 863 q 636 819 650 832 q 604 807 622 807 q 561 835 575 807 q 506 899 542 876 q 425 921 471 921 q 281 835 332 921 q 235 806 263 806 q 206 817 218 806 q 193 846 193 828 q 200 872 193 856 q 294 979 232 940 q 432 1018 356 1018 z "},"ā":{"ha":743,"x_min":63,"x_max":656,"o":"m 399 694 q 656 456 656 694 q 654 415 656 429 l 626 57 q 606 10 625 26 q 557 -7 588 -7 q 508 12 526 -7 q 493 60 490 31 l 496 107 q 415 20 467 50 q 296 -10 364 -10 q 128 45 194 -10 q 63 186 63 100 q 103 309 63 264 q 231 375 143 354 q 468 396 319 396 l 518 396 l 521 431 q 493 547 526 510 q 385 583 460 583 q 182 522 293 583 q 154 515 169 515 q 119 531 133 515 q 106 567 106 546 q 140 622 106 600 q 259 675 190 656 q 399 694 328 694 m 329 94 q 451 146 401 94 q 508 278 501 197 l 511 317 l 472 317 q 311 306 369 317 q 228 269 253 294 q 203 200 203 244 q 237 123 203 151 q 329 94 271 94 m 256 858 q 218 871 232 858 q 204 906 204 883 q 220 943 204 931 q 263 956 236 956 l 600 956 q 638 944 624 956 q 651 910 651 932 q 635 872 651 886 q 593 858 619 858 l 256 858 z "},"ą":{"ha":743,"x_min":63,"x_max":671,"o":"m 628 -171 q 643 -168 633 -168 q 663 -177 656 -168 q 671 -200 671 -186 q 665 -224 671 -212 q 646 -242 658 -235 q 542 -269 596 -269 q 424 -231 468 -269 q 379 -129 379 -192 q 410 -34 379 -76 q 496 32 440 8 q 493 60 492 46 l 496 107 q 414 20 467 50 q 293 -10 361 -10 q 127 45 192 -10 q 63 186 63 100 q 103 308 63 263 q 231 375 143 354 q 468 396 319 396 l 518 396 l 521 431 q 494 546 526 508 q 385 583 461 583 q 182 522 290 583 q 153 515 168 515 q 119 530 132 515 q 107 565 107 544 q 140 622 107 600 q 261 675 192 656 q 399 694 331 694 q 656 456 656 694 q 654 415 656 429 l 626 58 q 586 1 625 15 q 511 -38 540 -11 q 482 -107 482 -65 q 503 -165 482 -144 q 563 -186 525 -186 q 628 -171 586 -186 m 329 94 q 452 146 401 94 q 508 278 503 197 l 511 317 l 472 317 q 306 305 364 317 q 226 267 249 293 q 203 197 203 242 q 237 123 203 151 q 329 94 271 94 z "},"å":{"ha":743,"x_min":63,"x_max":656,"o":"m 399 694 q 656 456 656 694 q 654 415 656 429 l 626 57 q 606 10 625 26 q 557 -7 588 -7 q 508 12 526 -7 q 493 60 490 31 l 496 107 q 415 20 467 50 q 296 -10 364 -10 q 128 45 194 -10 q 63 186 63 100 q 103 309 63 264 q 231 375 143 354 q 468 396 319 396 l 518 396 l 521 431 q 493 547 526 510 q 385 583 460 583 q 182 522 293 583 q 154 515 169 515 q 119 531 133 515 q 106 567 106 546 q 140 622 106 600 q 259 675 190 656 q 399 694 328 694 m 329 94 q 451 146 401 94 q 508 278 501 197 l 511 317 l 472 317 q 311 306 369 317 q 228 269 253 294 q 203 200 203 244 q 237 123 203 151 q 329 94 271 94 m 426 767 q 325 808 367 767 q 283 908 283 849 q 325 1008 283 968 q 426 1049 367 1049 q 529 1008 488 1049 q 571 908 571 968 q 529 808 571 849 q 426 767 488 767 m 426 840 q 474 860 456 840 q 492 908 492 879 q 474 956 492 938 q 426 975 456 975 q 381 956 399 975 q 363 908 363 936 q 381 860 363 879 q 426 840 399 840 z "},"ǻ":{"ha":743,"x_min":63,"x_max":738,"o":"m 624 1164 q 676 1189 647 1189 q 719 1170 701 1189 q 738 1128 738 1151 q 700 1072 738 1094 l 553 979 q 572 908 572 947 q 530 809 572 850 q 428 768 488 768 q 326 808 368 768 q 285 908 285 849 q 326 1009 285 968 q 428 1050 368 1050 q 501 1031 469 1050 l 624 1164 m 428 840 q 474 860 456 840 q 493 908 493 881 q 474 956 493 936 q 428 976 456 976 q 381 956 400 976 q 363 908 363 936 q 381 860 363 881 q 428 840 400 840 m 399 694 q 656 456 656 694 q 654 415 656 429 l 626 57 q 606 10 625 26 q 557 -7 586 -7 q 508 11 526 -7 q 493 60 490 29 l 496 107 q 415 20 467 50 q 296 -10 363 -10 q 128 45 194 -10 q 63 186 63 100 q 103 308 63 263 q 231 375 143 354 q 468 396 319 396 l 518 396 l 521 431 q 494 546 526 508 q 385 583 461 583 q 182 522 293 583 q 153 515 168 515 q 119 530 132 515 q 107 565 107 544 q 140 622 107 600 q 259 675 190 656 q 399 694 328 694 m 329 94 q 452 146 401 94 q 508 278 503 197 l 511 317 l 472 317 q 307 305 365 317 q 226 268 249 293 q 203 200 203 243 q 237 123 203 151 q 329 94 271 94 z "},"ã":{"ha":743,"x_min":63,"x_max":656,"o":"m 399 694 q 656 456 656 694 q 654 415 656 429 l 626 57 q 606 10 625 26 q 557 -7 588 -7 q 508 12 526 -7 q 493 60 490 31 l 496 107 q 415 20 467 50 q 296 -10 364 -10 q 128 45 194 -10 q 63 186 63 100 q 103 309 63 264 q 231 375 143 354 q 468 396 319 396 l 518 396 l 521 431 q 493 547 526 510 q 385 583 460 583 q 182 522 293 583 q 154 515 169 515 q 119 531 133 515 q 106 567 106 546 q 140 622 106 600 q 259 675 190 656 q 399 694 328 694 m 329 94 q 451 146 401 94 q 508 278 501 197 l 511 317 l 472 317 q 311 306 369 317 q 228 269 253 294 q 203 200 203 244 q 237 123 203 151 q 329 94 271 94 m 519 818 q 467 830 492 818 q 408 865 443 842 q 364 892 381 883 q 332 900 347 900 q 296 888 310 900 q 268 856 282 876 q 247 831 254 838 q 229 824 240 824 q 207 835 215 824 q 199 864 199 846 q 217 924 199 892 q 267 979 236 957 q 335 1001 299 1001 q 388 990 363 1001 q 446 956 413 978 q 490 928 472 938 q 524 919 507 919 q 560 931 546 919 q 588 964 574 943 q 608 989 601 982 q 626 996 615 996 q 648 985 640 996 q 656 956 656 974 q 637 895 656 928 q 587 840 618 863 q 519 818 556 818 z "},"æ":{"ha":1178,"x_min":63,"x_max":1126,"o":"m 1126 372 q 1112 330 1126 344 q 1072 315 1097 315 l 650 315 q 703 156 651 213 q 851 100 754 100 q 1022 156 939 100 q 1054 165 1038 165 q 1085 151 1074 165 q 1097 115 1097 136 q 1069 60 1097 82 q 968 10 1032 29 q 843 -10 904 -10 q 672 32 743 -10 q 565 150 601 74 q 460 32 529 74 q 303 -10 390 -10 q 129 45 196 -10 q 63 186 63 100 q 103 308 63 263 q 231 375 143 354 q 468 396 319 396 l 519 396 l 522 431 l 524 456 q 490 552 524 521 q 386 583 457 583 q 182 522 292 583 q 153 515 168 515 q 119 530 132 515 q 107 565 107 544 q 140 622 107 600 q 260 675 190 656 q 406 694 331 694 q 619 592 563 694 q 720 668 661 642 q 851 694 779 694 q 1054 611 982 694 q 1126 372 1126 528 m 851 592 q 719 542 769 592 q 656 396 669 492 l 1004 396 q 966 541 1007 490 q 851 592 925 592 m 326 94 q 452 147 400 94 q 511 285 504 200 l 514 317 l 472 317 q 306 305 364 317 q 225 267 247 293 q 203 197 203 242 q 237 123 203 151 q 326 94 271 94 z "},"ǽ":{"ha":1178,"x_min":63,"x_max":1126,"o":"m 1126 372 q 1112 330 1126 344 q 1072 315 1097 315 l 650 315 q 703 156 651 213 q 851 100 754 100 q 1022 156 939 100 q 1054 165 1038 165 q 1085 151 1074 165 q 1097 115 1097 136 q 1069 60 1097 82 q 968 10 1032 29 q 843 -10 904 -10 q 672 32 743 -10 q 565 150 601 74 q 460 32 529 74 q 303 -10 390 -10 q 129 45 196 -10 q 63 186 63 100 q 103 308 63 263 q 231 375 143 354 q 468 396 319 396 l 519 396 l 522 431 l 524 456 q 490 552 524 521 q 386 583 457 583 q 182 522 292 583 q 153 515 168 515 q 119 530 132 515 q 107 565 107 544 q 140 622 107 600 q 260 675 190 656 q 406 694 331 694 q 619 592 563 694 q 720 668 661 642 q 851 694 779 694 q 1054 611 982 694 q 1126 372 1126 528 m 851 592 q 719 542 769 592 q 656 396 669 492 l 1004 396 q 966 541 1007 490 q 851 592 925 592 m 326 94 q 452 147 400 94 q 511 285 504 200 l 514 317 l 472 317 q 306 305 364 317 q 225 267 247 293 q 203 197 203 242 q 237 123 203 151 q 326 94 271 94 m 668 779 q 631 761 650 761 q 605 771 615 761 q 594 796 594 781 q 603 822 594 808 l 749 1024 q 803 1057 771 1057 q 847 1040 828 1057 q 865 999 865 1022 q 844 953 865 974 l 668 779 z "},"b":{"ha":821,"x_min":74,"x_max":764,"o":"m 475 694 q 626 654 560 694 q 728 540 692 614 q 764 367 764 465 q 724 170 764 256 q 610 38 683 85 q 443 -10 538 -10 q 306 24 364 -10 q 218 118 249 57 l 214 60 q 192 10 213 28 q 140 -7 171 -7 q 92 10 110 -7 q 75 60 74 28 l 144 922 q 168 969 146 951 q 221 988 190 988 q 269 971 251 988 q 285 925 286 954 l 257 585 q 349 665 292 636 q 475 694 407 694 m 424 101 q 569 171 517 101 q 621 363 621 240 q 572 525 621 468 q 433 582 524 582 q 289 512 342 582 q 236 321 236 442 q 285 158 236 214 q 424 101 333 101 z "},"c":{"ha":671,"x_min":58,"x_max":663,"o":"m 385 -10 q 213 31 286 -10 q 99 145 139 71 q 58 318 58 219 q 101 517 58 432 q 225 648 144 601 q 414 694 306 694 q 540 676 481 694 q 636 629 599 658 q 663 578 663 611 q 648 536 663 554 q 613 518 633 518 q 586 526 600 518 q 418 582 504 582 q 260 513 315 582 q 204 318 204 443 q 254 160 204 217 q 397 103 304 103 q 481 116 443 103 q 557 157 519 129 q 586 165 574 165 q 618 150 606 165 q 631 114 631 135 q 606 64 631 81 q 508 10 567 29 q 385 -10 449 -10 z "},"ć":{"ha":671,"x_min":58,"x_max":676,"o":"m 385 -10 q 213 31 286 -10 q 99 145 139 71 q 58 318 58 219 q 101 517 58 432 q 225 648 144 601 q 414 694 306 694 q 540 676 481 694 q 636 629 599 658 q 663 578 663 611 q 648 536 663 554 q 613 518 633 518 q 586 526 600 518 q 418 582 504 582 q 260 513 315 582 q 204 318 204 443 q 254 160 204 217 q 397 103 304 103 q 481 116 443 103 q 557 157 519 129 q 586 165 574 165 q 618 150 606 165 q 631 114 631 135 q 606 64 631 81 q 508 10 567 29 q 385 -10 449 -10 m 479 779 q 442 761 461 761 q 416 771 426 761 q 406 796 406 781 q 414 822 406 808 l 560 1024 q 614 1057 582 1057 q 658 1040 639 1057 q 676 999 676 1022 q 656 953 676 974 l 479 779 z "},"č":{"ha":671,"x_min":58,"x_max":663,"o":"m 385 -10 q 213 31 286 -10 q 99 145 139 71 q 58 318 58 219 q 101 517 58 432 q 225 648 144 601 q 414 694 306 694 q 540 676 481 694 q 636 629 599 658 q 663 578 663 611 q 648 536 663 554 q 613 518 633 518 q 586 526 600 518 q 418 582 504 582 q 260 513 315 582 q 204 318 204 443 q 254 160 204 217 q 397 103 304 103 q 481 116 443 103 q 557 157 519 129 q 586 165 574 165 q 618 150 606 165 q 631 114 631 135 q 606 64 631 81 q 508 10 567 29 q 385 -10 449 -10 m 529 1024 q 578 1054 546 1054 q 613 1041 599 1054 q 628 1008 628 1028 q 617 975 628 990 l 497 799 q 466 769 485 779 q 428 760 447 760 q 392 769 410 760 q 365 799 375 779 l 272 981 q 265 1007 265 993 q 281 1041 265 1028 q 318 1054 297 1054 q 367 1021 351 1054 l 436 861 l 529 1024 z "},"ç":{"ha":671,"x_min":58,"x_max":663,"o":"m 418 582 q 260 513 315 582 q 204 318 204 443 q 254 160 204 217 q 397 103 304 103 q 481 116 443 103 q 557 157 519 129 q 586 165 574 165 q 618 150 606 165 q 631 114 631 135 q 606 64 631 81 q 510 11 567 31 q 390 -10 453 -8 l 381 -58 q 404 -57 388 -57 q 481 -82 453 -57 q 510 -150 510 -107 q 463 -237 510 -204 q 340 -269 417 -269 q 239 -254 285 -269 q 220 -241 226 -250 q 214 -221 214 -232 q 227 -192 214 -204 q 258 -186 240 -181 q 338 -197 301 -197 q 414 -153 414 -197 q 402 -127 414 -136 q 368 -118 390 -118 q 333 -124 351 -118 q 308 -129 315 -129 q 288 -121 296 -129 q 283 -101 281 -112 l 304 -1 q 124 106 189 22 q 58 318 58 190 q 101 517 58 432 q 225 648 144 601 q 414 694 306 694 q 540 676 481 694 q 636 629 599 658 q 663 578 663 611 q 648 536 663 554 q 613 518 633 518 q 586 526 600 518 q 418 582 504 582 z "},"ḉ":{"ha":671,"x_min":58,"x_max":676,"o":"m 479 779 q 442 761 461 761 q 416 771 426 761 q 406 796 406 781 q 414 822 406 808 l 560 1024 q 614 1057 582 1057 q 658 1040 639 1057 q 676 999 676 1022 q 656 953 676 974 l 479 779 m 636 629 q 663 578 663 611 q 648 536 663 554 q 613 518 633 518 q 586 526 600 518 q 418 582 504 582 q 260 513 315 582 q 204 318 204 443 q 254 160 204 217 q 397 103 304 103 q 481 116 443 103 q 557 157 519 129 q 586 165 574 165 q 618 150 606 165 q 631 114 631 135 q 606 64 631 81 q 510 11 567 31 q 390 -10 453 -8 l 381 -58 q 404 -57 388 -57 q 481 -82 453 -57 q 510 -150 510 -107 q 463 -237 510 -204 q 340 -269 417 -269 q 239 -254 285 -269 q 220 -241 226 -250 q 214 -221 214 -232 q 227 -192 214 -204 q 258 -186 240 -181 q 338 -197 301 -197 q 414 -153 414 -197 q 402 -127 414 -136 q 368 -118 390 -118 q 333 -124 351 -118 q 308 -129 315 -129 q 288 -121 296 -129 q 283 -101 281 -112 l 304 -1 q 124 106 189 22 q 58 318 58 190 q 101 517 58 432 q 225 648 144 601 q 414 694 306 694 q 540 676 481 694 q 636 629 599 658 z "},"ĉ":{"ha":671,"x_min":58,"x_max":663,"o":"m 385 -10 q 213 31 286 -10 q 99 145 139 71 q 58 318 58 219 q 101 517 58 432 q 225 648 144 601 q 414 694 306 694 q 540 676 481 694 q 636 629 599 658 q 663 578 663 611 q 648 536 663 554 q 613 518 633 518 q 586 526 600 518 q 418 582 504 582 q 260 513 315 582 q 204 318 204 443 q 254 160 204 217 q 397 103 304 103 q 481 116 443 103 q 557 157 519 129 q 586 165 574 165 q 618 150 606 165 q 631 114 631 135 q 606 64 631 81 q 508 10 567 29 q 385 -10 449 -10 m 350 792 q 301 760 332 760 q 266 773 281 760 q 251 806 251 786 q 264 839 251 822 l 383 1017 q 415 1045 397 1035 q 453 1056 433 1056 q 488 1046 471 1056 q 514 1017 504 1036 l 608 835 q 615 810 615 821 q 599 775 615 789 q 561 761 583 761 q 533 769 546 761 q 514 794 521 778 l 444 954 l 350 792 z "}}}
